<svg width="24" height="24" viewBox="0 0 24 24" fill="none" xmlns="http://www.w3.org/2000/svg">
<circle cx="12" cy="12" r="11.5" fill="#37223B" stroke="#727272"/>
<path d="M7.91667 17.8333C7.59583 17.8333 7.32108 17.7192 7.09242 17.4909C6.86414 17.2622 6.75 16.9875 6.75 16.6666V8.49996H7.91667V16.6666H14.3333V17.8333H7.91667ZM10.25 15.5C9.92917 15.5 9.65461 15.3858 9.42633 15.1575C9.19767 14.9289 9.08333 14.6541 9.08333 14.3333V7.33329C9.08333 7.01246 9.19767 6.73771 9.42633 6.50904C9.65461 6.28076 9.92917 6.16663 10.25 6.16663H15.5C15.8208 6.16663 16.0956 6.28076 16.3243 6.50904C16.5525 6.73771 16.6667 7.01246 16.6667 7.33329V14.3333C16.6667 14.6541 16.5525 14.9289 16.3243 15.1575C16.0956 15.3858 15.8208 15.5 15.5 15.5H10.25Z" fill="white"/>
</svg>
