<svg width="687" height="16" viewBox="0 0 687 16" fill="none" xmlns="http://www.w3.org/2000/svg">
<path d="M175.452 0.650391H0.95752V2.1556H175.452V0.650391Z" fill="#2B3D3E"/>
<path d="M175.071 13.9415H0.576172V15.4467H175.071V13.9415Z" fill="#2B3D3E"/>
<path d="M39.9702 12.2156H32.404V5.42453H26.0369V7.41894H30.2139V12.2156H21.4962V5.42453H18.6614V12.2156H9.83327V7.28347H13.7393V5.42453H7.75607V12.2156H0.95752V10.7103H6.25086V3.91931H15.2445V8.78868H11.3385V10.7103H17.1561V3.91931H23.0014V10.7103H28.7087V8.92415H24.5317V3.91931H33.9092V10.7103H39.9702V12.2156Z" fill="#2B3D3E"/>
<path d="M74.0581 12.2156H66.4919V5.42453H60.1248V7.41894H64.3018V12.2156H55.5841V5.42453H52.7493V12.2156H43.9212V7.28347H47.8272V5.42453H41.8465V12.2156H36.2998V10.7103H40.3413V3.91931H49.3325V8.78868H45.4264V10.7103H51.2441V3.91931H57.0893V10.7103H62.7966V8.92415H58.6196V3.91931H67.9971V10.7103H74.0581V12.2156Z" fill="#2B3D3E"/>
<path d="M108.146 12.2156H100.58V5.42453H94.2132V7.41894H98.3902V12.2156H89.6725V5.42453H86.8377V12.2156H78.0096V7.28347H81.9156V5.42453H75.9349V12.2156H70.3882V10.7103H74.4297V3.91931H83.4208V8.78868H79.5148V10.7103H85.3324V3.91931H91.1777V10.7103H96.885V8.92415H92.708V3.91931H102.085V10.7103H108.146V12.2156Z" fill="#2B3D3E"/>
<path d="M142.234 12.2156H134.668V5.42453H128.301V7.41894H132.478V12.2156H123.76V5.42453H120.926V12.2156H112.097V7.28347H116.004V5.42453H110.023V12.2156H104.476V10.7103H108.518V3.91931H117.509V8.78868H113.603V10.7103H119.42V3.91931H125.266V10.7103H130.973V8.92415H126.796V3.91931H136.173V10.7103H142.234V12.2156Z" fill="#2B3D3E"/>
<path d="M175.068 12.2156H168.756V5.42453H162.389V7.41894H166.566V12.2156H157.851V5.42453H155.013V12.2156H146.185V7.28347H150.091V5.42453H144.111V12.2156H138.564V10.7103H142.605V3.91931H151.597V8.78868H147.691V10.7103H153.508V3.91931H159.356V10.7103H165.061V8.92415H160.884V3.91931H170.261V10.7103H175.068V12.2156Z" fill="#2B3D3E"/>
<path d="M38.0132 6.06665H36.2646V7.81521H38.0132V6.06665Z" fill="#2B3D3E"/>
<path d="M72.1367 6.06665H70.3882V7.81521H72.1367V6.06665Z" fill="#2B3D3E"/>
<path d="M106.262 6.06665H104.514V7.81521H106.262V6.06665Z" fill="#2B3D3E"/>
<path d="M140.386 6.06665H138.637V7.81521H140.386V6.06665Z" fill="#2B3D3E"/>
<path d="M343.628 0.650391H169.134V2.1556H343.628V0.650391Z" fill="#2B3D3E"/>
<path d="M343.247 13.9415H168.752V15.4467H343.247V13.9415Z" fill="#2B3D3E"/>
<path d="M208.146 12.2156H200.58V5.42453H194.213V7.41894H198.39V12.2156H189.672V5.42453H186.838V12.2156H178.01V7.28347H181.916V5.42453H175.932V12.2156H169.134V10.7103H174.427V3.91931H183.421V8.78868H179.515V10.7103H185.332V3.91931H191.178V10.7103H196.885V8.92415H192.708V3.91931H202.085V10.7103H208.146V12.2156Z" fill="#2B3D3E"/>
<path d="M242.234 12.2156H234.668V5.42453H228.301V7.41894H232.478V12.2156H223.76V5.42453H220.926V12.2156H212.097V7.28347H216.004V5.42453H210.023V12.2156H204.476V10.7103H208.518V3.91931H217.509V8.78868H213.603V10.7103H219.42V3.91931H225.266V10.7103H230.973V8.92415H226.796V3.91931H236.173V10.7103H242.234V12.2156Z" fill="#2B3D3E"/>
<path d="M276.323 12.2156H268.757V5.42453H262.389V7.41894H266.566V12.2156H257.849V5.42453H255.014V12.2156H246.186V7.28347H250.092V5.42453H244.111V12.2156H238.564V10.7103H242.606V3.91931H251.597V8.78868H247.691V10.7103H253.509V3.91931H259.354V10.7103H265.061V8.92415H260.884V3.91931H270.262V10.7103H276.323V12.2156Z" fill="#2B3D3E"/>
<path d="M310.411 12.2156H302.844V5.42453H296.477V7.41894H300.654V12.2156H291.937V5.42453H289.102V12.2156H280.274V7.28347H284.18V5.42453H278.199V12.2156H272.652V10.7103H276.694V3.91931H285.685V8.78868H281.779V10.7103H287.597V3.91931H293.442V10.7103H299.149V8.92415H294.972V3.91931H304.35V10.7103H310.411V12.2156Z" fill="#2B3D3E"/>
<path d="M343.244 12.2156H336.932V5.42453H330.565V7.41894H334.742V12.2156H326.027V5.42453H323.19V12.2156H314.362V7.28347H318.268V5.42453H312.287V12.2156H306.74V10.7103H310.782V3.91931H319.773V8.78868H315.867V10.7103H321.685V3.91931H327.532V10.7103H333.237V8.92415H329.06V3.91931H338.438V10.7103H343.244V12.2156Z" fill="#2B3D3E"/>
<path d="M206.189 6.06665H204.441V7.81521H206.189V6.06665Z" fill="#2B3D3E"/>
<path d="M240.313 6.06665H238.564V7.81521H240.313V6.06665Z" fill="#2B3D3E"/>
<path d="M274.438 6.06665H272.69V7.81521H274.438V6.06665Z" fill="#2B3D3E"/>
<path d="M308.562 6.06665H306.813V7.81521H308.562V6.06665Z" fill="#2B3D3E"/>
<path d="M518.504 0.650391H344.01V2.1556H518.504V0.650391Z" fill="#2B3D3E"/>
<path d="M518.123 13.9415H343.628V15.4467H518.123V13.9415Z" fill="#2B3D3E"/>
<path d="M383.022 12.2156H375.456V5.42453H369.089V7.41894H373.266V12.2156H364.548V5.42453H361.714V12.2156H352.886V7.28347H356.792V5.42453H350.808V12.2156H344.01V10.7103H349.303V3.91931H358.297V8.78868H354.391V10.7103H360.208V3.91931H366.054V10.7103H371.761V8.92415H367.584V3.91931H376.961V10.7103H383.022V12.2156Z" fill="#2B3D3E"/>
<path d="M417.11 12.2156H409.544V5.42453H403.177V7.41894H407.354V12.2156H398.636V5.42453H395.802V12.2156H386.973V7.28347H390.879V5.42453H384.899V12.2156H379.352V10.7103H383.394V3.91931H392.385V8.78868H388.479V10.7103H394.296V3.91931H400.142V10.7103H405.849V8.92415H401.672V3.91931H411.049V10.7103H417.11V12.2156Z" fill="#2B3D3E"/>
<path d="M451.199 12.2156H443.633V5.42453H437.265V7.41894H441.442V12.2156H432.725V5.42453H429.89V12.2156H421.062V7.28347H424.968V5.42453H418.987V12.2156H413.44V10.7103H417.482V3.91931H426.473V8.78868H422.567V10.7103H428.385V3.91931H434.23V10.7103H439.937V8.92415H435.76V3.91931H445.138V10.7103H451.199V12.2156Z" fill="#2B3D3E"/>
<path d="M485.287 12.2156H477.72V5.42453H471.353V7.41894H475.53V12.2156H466.813V5.42453H463.978V12.2156H455.15V7.28347H459.056V5.42453H453.075V12.2156H447.528V10.7103H451.57V3.91931H460.561V8.78868H456.655V10.7103H462.473V3.91931H468.318V10.7103H474.025V8.92415H469.848V3.91931H479.226V10.7103H485.287V12.2156Z" fill="#2B3D3E"/>
<path d="M518.12 12.2156H511.808V5.42453H505.441V7.41894H509.618V12.2156H500.903V5.42453H498.066V12.2156H489.238V7.28347H493.144V5.42453H487.163V12.2156H481.616V10.7103H485.658V3.91931H494.649V8.78868H490.743V10.7103H496.56V3.91931H502.408V10.7103H508.113V8.92415H503.936V3.91931H513.314V10.7103H518.12V12.2156Z" fill="#2B3D3E"/>
<path d="M381.066 6.06665H379.317V7.81521H381.066V6.06665Z" fill="#2B3D3E"/>
<path d="M415.189 6.06665H413.44V7.81521H415.189V6.06665Z" fill="#2B3D3E"/>
<path d="M449.314 6.06665H447.566V7.81521H449.314V6.06665Z" fill="#2B3D3E"/>
<path d="M483.438 6.06665H481.689V7.81521H483.438V6.06665Z" fill="#2B3D3E"/>
<path d="M686.681 0.650391H512.186V2.1556H686.681V0.650391Z" fill="#2B3D3E"/>
<path d="M686.299 13.9415H511.805V15.4467H686.299V13.9415Z" fill="#2B3D3E"/>
<path d="M551.199 12.2156H543.632V5.42453H537.265V7.41894H541.442V12.2156H532.725V5.42453H529.89V12.2156H521.062V7.28347H524.968V5.42453H518.985V12.2156H512.186V10.7103H517.479V3.91931H526.473V8.78868H522.567V10.7103H528.385V3.91931H534.23V10.7103H539.937V8.92415H535.76V3.91931H545.138V10.7103H551.199V12.2156Z" fill="#2B3D3E"/>
<path d="M585.287 12.2156H577.72V5.42453H571.353V7.41894H575.53V12.2156H566.813V5.42453H563.978V12.2156H555.15V7.28347H559.056V5.42453H553.075V12.2156H547.528V10.7103H551.57V3.91931H560.561V8.78868H556.655V10.7103H562.473V3.91931H568.318V10.7103H574.025V8.92415H569.848V3.91931H579.226V10.7103H585.287V12.2156Z" fill="#2B3D3E"/>
<path d="M619.375 12.2156H611.809V5.42453H605.442V7.41894H609.619V12.2156H600.901V5.42453H598.066V12.2156H589.238V7.28347H593.144V5.42453H587.163V12.2156H581.617V10.7103H585.658V3.91931H594.649V8.78868H590.743V10.7103H596.561V3.91931H602.406V10.7103H608.113V8.92415H603.937V3.91931H613.314V10.7103H619.375V12.2156Z" fill="#2B3D3E"/>
<path d="M653.463 12.2156H645.897V5.42453H639.53V7.41894H643.707V12.2156H634.989V5.42453H632.154V12.2156H623.326V7.28347H627.232V5.42453H621.251V12.2156H615.705V10.7103H619.746V3.91931H628.737V8.78868H624.831V10.7103H630.649V3.91931H636.494V10.7103H642.201V8.92415H638.024V3.91931H647.402V10.7103H653.463V12.2156Z" fill="#2B3D3E"/>
<path d="M686.296 12.2156H679.985V5.42453H673.618V7.41894H677.794V12.2156H669.079V5.42453H666.242V12.2156H657.414V7.28347H661.32V5.42453H655.339V12.2156H649.792V10.7103H653.834V3.91931H662.825V8.78868H658.919V10.7103H664.737V3.91931H670.585V10.7103H676.289V8.92415H672.112V3.91931H681.49V10.7103H686.296V12.2156Z" fill="#2B3D3E"/>
<path d="M549.242 6.06665H547.493V7.81521H549.242V6.06665Z" fill="#2B3D3E"/>
<path d="M583.365 6.06665H581.617V7.81521H583.365V6.06665Z" fill="#2B3D3E"/>
<path d="M617.491 6.06665H615.742V7.81521H617.491V6.06665Z" fill="#2B3D3E"/>
<path d="M651.614 6.06665H649.866V7.81521H651.614V6.06665Z" fill="#2B3D3E"/>
</svg>
