<svg width="24" height="24" viewBox="0 0 24 24" fill="none" xmlns="http://www.w3.org/2000/svg">
<circle cx="12" cy="12" r="11.5" fill="#37223B" stroke="#727272"/>
<g clip-path="url(#clip0_450_1366)">
<path d="M14.3311 6.48657L14.696 6.48657C14.9983 6.48657 15.2433 6.7316 15.2433 7.03387L15.2433 15.2433L16.3379 15.2433C16.8252 15.2433 17.0686 15.8339 16.7249 16.1776L14.9006 18.002C14.6868 18.2157 14.3403 18.2157 14.1266 18.002L12.3023 16.1776C11.9599 15.8352 12.2 15.2433 12.6892 15.2433L13.7838 15.2433L13.7838 7.03387C13.7838 6.7316 14.0289 6.48657 14.3311 6.48657ZM10.8649 17.615L10.8649 9.40549L11.9595 9.40549C12.4456 9.40549 12.6911 8.81573 12.3465 8.47119L10.5222 6.64686C10.3085 6.43314 9.96193 6.43314 9.74821 6.64686L7.92389 8.47119C7.58121 8.81389 7.82202 9.40549 8.31087 9.40549L9.40547 9.40549L9.40547 17.615C9.40547 17.9172 9.6505 18.1622 9.95276 18.1622L10.3176 18.1622C10.6199 18.1622 10.8649 17.9172 10.8649 17.615Z" fill="white"/>
</g>
<defs>
<clipPath id="clip0_450_1366">
<rect width="11.6757" height="11.6757" fill="white" transform="translate(18.1621 6.48657) rotate(90)"/>
</clipPath>
</defs>
</svg>
