<svg width="400" height="736" viewBox="0 0 400 736" fill="none" xmlns="http://www.w3.org/2000/svg">
<g clip-path="url(#clip0_145_1517)">
<path d="M100.601 13.5974L46.5866 13.5974L15.7497 44.8024L15.7498 513.518L79.5811 578.111L79.7198 578.111L382.688 577.632L382.688 101.366L396.357 87.53L396.357 30.966L379.667 14.0755L328.48 14.0755L318.109 24.5724L111.443 24.5724L100.601 13.5974ZM46.864 14.2607L100.332 14.2607L111.173 25.2356L318.394 25.2356L328.765 14.7388L379.405 14.7388L395.71 31.2437L395.71 87.2601L382.04 101.096L382.041 576.969L79.8662 577.447L16.4124 513.24L16.4124 45.0801L46.864 14.2684L46.864 14.2607Z" fill="#00F2F8"/>
</g>
<g clip-path="url(#clip1_145_1517)">
<path d="M299.398 13.5974L353.413 13.5974L384.25 44.8024L384.25 513.518L320.419 578.111L320.28 578.111L17.312 577.632L17.312 101.366L3.64265 87.53L3.64266 30.966L20.3325 14.0755L71.5194 14.0755L81.8908 24.5724L288.557 24.5724L299.398 13.5974ZM353.136 14.2607L299.668 14.2607L288.827 25.2356L81.6057 25.2356L71.2343 14.7388L20.5945 14.7388L4.28993 31.2437L4.28993 87.2601L17.9593 101.096L17.9592 576.969L320.134 577.447L383.587 513.24L383.587 45.0801L353.136 14.2684L353.136 14.2607Z" fill="#00F2F8"/>
</g>
<g clip-path="url(#clip2_145_1517)">
<path d="M100.601 722.403L46.5866 722.403L15.7497 691.198L15.7498 222.482L79.5811 157.89L79.7198 157.89L382.688 158.368L382.688 634.634L396.357 648.47L396.357 705.034L379.667 721.925L328.48 721.925L318.109 711.428L111.443 711.428L100.601 722.403ZM46.864 721.739L100.332 721.739L111.173 710.764L318.394 710.764L328.765 721.261L379.405 721.261L395.71 704.756L395.71 648.74L382.04 634.904L382.041 159.031L79.8662 158.553L16.4124 222.76L16.4124 690.92L46.864 721.732L46.864 721.739Z" fill="#00F2F8"/>
</g>
<g clip-path="url(#clip3_145_1517)">
<path d="M299.399 722.403L353.414 722.403L384.251 691.198L384.25 222.482L320.419 157.89L320.28 157.89L17.3125 158.368L17.3125 634.634L3.64314 648.47L3.64314 705.034L20.333 721.925L71.5199 721.925L81.8913 711.428L288.557 711.428L299.399 722.403ZM353.136 721.739L299.669 721.739L288.827 710.764L81.6062 710.764L71.2348 721.261L20.595 721.261L4.29042 704.756L4.29042 648.74L17.9598 634.904L17.9597 159.031L320.134 158.553L383.588 222.76L383.588 690.92L353.136 721.732L353.136 721.739Z" fill="#00F2F8"/>
</g>
<defs>
<clipPath id="clip0_145_1517">
<rect width="212" height="324" fill="white" transform="matrix(1 -8.74228e-08 -8.74228e-08 -1 0 324)"/>
</clipPath>
<clipPath id="clip1_145_1517">
<rect width="212" height="324" fill="white" transform="translate(400 324) rotate(-180)"/>
</clipPath>
<clipPath id="clip2_145_1517">
<rect width="212" height="452" fill="white" transform="translate(0 284)"/>
</clipPath>
<clipPath id="clip3_145_1517">
<rect width="212" height="452" fill="white" transform="matrix(-1 1.2196e-07 6.26659e-08 1 400 284)"/>
</clipPath>
</defs>
</svg>
