<svg xmlns="http://www.w3.org/2000/svg" width="766" height="782" viewBox="0 0 766 782" fill="none" style="">

<g clip-path="url(#clip0_145_1545)">
<path d="M497.351 776.238H241.898L200.581 738.958V577.916L213.653 566.126V520.571L199.81 508.084L199.81 327.473L216.599 312.365H217.65L481.146 312.365L486.026 307.96H507.116L512.754 313.048V330.337L507.06 335.475L507.06 519.794L514.128 526.168V697.323L508.571 702.337V766.125L497.357 776.245L497.351 776.238ZM242.147 775.686H497.096L507.949 765.895V702.107L513.506 697.094V526.398L506.439 520.024L506.439 335.245L512.132 330.107V313.278L506.855 308.519H486.274L481.395 312.924L216.854 312.924L200.426 327.709L200.426 507.854L214.268 520.341V566.355L201.196 578.146V738.729L242.153 775.679L242.147 775.686Z" fill="#00F2F8"/>
</g>
<g clip-path="url(#clip1_145_1545)">
<path d="M219.119 776.238H474.572L515.888 738.958L515.888 577.916L502.816 566.126V520.571L516.659 508.084V327.473L499.87 312.365H498.82L235.323 312.365L230.444 307.96H209.353L203.716 313.048V330.337L209.409 335.475L209.409 519.794L202.342 526.168V697.323L207.899 702.337V766.125L219.112 776.245L219.119 776.238ZM474.323 775.686H219.373L208.521 765.895V702.107L202.964 697.094V526.398L210.031 520.024L210.031 335.245L204.337 330.107V313.278L209.615 308.519H230.195L235.075 312.924L499.615 312.924L516.044 327.709V507.854L502.201 520.341V566.355L515.273 578.146L515.273 738.729L474.317 775.679L474.323 775.686Z" fill="#00F2F8"/>
</g>
<g clip-path="url(#clip2_145_1545)">
<path d="M219.119 294.496L474.572 294.496L515.888 331.776L515.888 492.818L502.816 504.609L502.816 550.164L516.659 562.65L516.659 743.261L499.87 758.369L498.82 758.369L235.323 758.369L230.444 762.774L209.353 762.774L203.716 757.686L203.716 740.397L209.409 735.26L209.409 550.94L202.342 544.566L202.342 373.411L207.899 368.397L207.899 304.609L219.112 294.489L219.119 294.496ZM474.323 295.048L219.373 295.048L208.521 304.839L208.521 368.627L202.964 373.641L202.964 544.336L210.031 550.71L210.031 735.489L204.337 740.627L204.337 757.456L209.615 762.215L230.195 762.215L235.075 757.81L499.615 757.81L516.044 743.025L516.044 562.88L502.201 550.393L502.201 504.379L515.273 492.588L515.273 332.006L474.317 295.055L474.323 295.048Z" fill="#00F2F8"/>
</g>
<g clip-path="url(#clip3_145_1545)">
<path d="M497.351 294.496L241.898 294.496L200.581 331.776L200.581 492.818L213.653 504.609L213.653 550.164L199.81 562.65L199.81 743.261L216.599 758.369L217.65 758.369L481.146 758.369L486.026 762.774L507.116 762.774L512.754 757.686L512.754 740.397L507.06 735.26L507.06 550.94L514.127 544.566L514.127 373.411L508.571 368.397L508.571 304.609L497.357 294.489L497.351 294.496ZM242.146 295.048L497.096 295.048L507.949 304.839L507.949 368.627L513.506 373.641L513.506 544.336L506.439 550.71L506.439 735.489L512.132 740.627L512.132 757.456L506.855 762.215L486.274 762.215L481.395 757.81L216.854 757.81L200.426 743.025L200.426 562.88L214.268 550.393L214.268 504.379L201.196 492.588L201.196 332.006L242.153 295.055L242.146 295.048Z" fill="#00F2F8"/>
</g>









<path d="M240.683 525.151H474.203" stroke="#00F2F8" stroke-width="0.841837"/>
<path d="M240.683 597.315H474.203" stroke="#00F2F8" stroke-width="0.841837"/>
<path d="M240.683 669.479H474.203" stroke="#00F2F8" stroke-width="0.841837"/>
<defs>
<filter id="filter0_f_145_1545" x="0" y="0.824707" width="766" height="766" filterUnits="userSpaceOnUse" color-interpolation-filters="sRGB">
<feFlood flood-opacity="0" result="BackgroundImageFix"/>
<feBlend mode="normal" in="SourceGraphic" in2="BackgroundImageFix" result="shape"/>
<feGaussianBlur stdDeviation="139.5" result="effect1_foregroundBlur_145_1545"/>
</filter>
<clipPath id="clip0_145_1545">
<rect width="144.796" height="252.551" fill="white" transform="translate(194.918 528.632)"/>
</clipPath>
<clipPath id="clip1_145_1545">
<rect width="191.939" height="252.551" fill="white" transform="matrix(-1 0 0 1 521.551 528.632)"/>
</clipPath>
<clipPath id="clip2_145_1545">
<rect width="191.939" height="252.551" fill="white" transform="translate(521.551 542.102) rotate(-180)"/>
</clipPath>
<clipPath id="clip3_145_1545">
<rect width="144.796" height="252.551" fill="white" transform="matrix(1 -8.74228e-08 -8.74228e-08 -1 194.918 542.102)"/>
</clipPath>
</defs>
</svg>