<svg xmlns="http://www.w3.org/2000/svg" width="390" height="736" viewBox="0 0 390 736" fill="none" style="&#10;    &#10;">
<g clip-path="url(#clip0_145_2179)">
<path d="M95.6016 13.5972L41.5869 13.5972L10.75 44.8022L10.75 513.518L74.5814 578.11L74.7201 578.11L377.688 577.632L377.688 101.366L391.357 87.5297L391.357 30.9658L374.667 14.0753L323.481 14.0753L313.109 24.5721L106.443 24.5721L95.6016 13.5972ZM41.8643 14.2604L95.3319 14.2604L106.173 25.2354L313.394 25.2354L323.766 14.7386L374.405 14.7386L390.71 31.2435L390.71 87.2598L377.041 101.096L377.041 576.969L74.8665 577.447L11.4127 513.24L11.4126 45.0798L41.8643 14.2681L41.8643 14.2604Z" fill="#00F2F8"/>
</g>
<g clip-path="url(#clip1_145_2179)">
<path d="M294.398 13.5972L348.413 13.5972L379.25 44.8022L379.25 513.518L315.419 578.11L315.28 578.11L12.312 577.632L12.312 101.366L-1.35735 87.5297L-1.35734 30.9658L15.3325 14.0753L66.5194 14.0753L76.8908 24.5721L283.557 24.5721L294.398 13.5972ZM348.136 14.2604L294.668 14.2604L283.827 25.2354L76.6057 25.2354L66.2343 14.7386L15.5945 14.7386L-0.710066 31.2435L-0.710071 87.2598L12.9593 101.096L12.9592 576.969L315.134 577.447L378.587 513.24L378.587 45.0798L348.136 14.2681L348.136 14.2604Z" fill="#00F2F8"/>
</g>
<g clip-path="url(#clip2_145_2179)">
<path d="M95.6011 722.403L41.5864 722.403L10.7495 691.198L10.7495 222.482L74.5809 157.889L74.7196 157.889L377.688 158.368L377.687 634.634L391.357 648.47L391.357 705.034L374.667 721.924L323.48 721.924L313.109 711.428L106.443 711.428L95.6011 722.403ZM41.8638 721.739L95.3314 721.739L106.173 710.764L313.394 710.764L323.765 721.261L374.405 721.261L390.71 704.756L390.71 648.74L377.04 634.904L377.04 159.031L74.866 158.553L11.4122 222.76L11.4121 690.92L41.8638 721.732L41.8638 721.739Z" fill="#00F2F8"/>
</g>
<g clip-path="url(#clip3_145_2179)">
<path d="M294.399 722.403L348.414 722.403L379.251 691.198L379.25 222.482L315.419 157.889L315.28 157.889L12.3125 158.368L12.3125 634.634L-1.35686 648.47L-1.35686 705.034L15.333 721.924L66.5199 721.924L76.8913 711.428L283.557 711.428L294.399 722.403ZM348.136 721.739L294.669 721.739L283.827 710.764L76.6062 710.764L66.2348 721.261L15.595 721.261L-0.709577 704.756L-0.709582 648.74L12.9598 634.904L12.9597 159.031L315.134 158.553L378.588 222.76L378.588 690.92L348.136 721.732L348.136 721.739Z" fill="#00F2F8"/>
</g>







<defs>
<linearGradient id="paint0_linear_145_2179" x1="338.546" y1="597.919" x2="7.35798" y2="597.919" gradientUnits="userSpaceOnUse">
<stop stop-color="#99939C" stop-opacity="0"/>
<stop offset="0.45098" stop-color="#99939C"/>
<stop offset="1" stop-color="#99939C" stop-opacity="0"/>
</linearGradient>
<linearGradient id="paint1_linear_145_2179" x1="338.546" y1="669.919" x2="7.35798" y2="669.919" gradientUnits="userSpaceOnUse">
<stop stop-color="#99939C" stop-opacity="0"/>
<stop offset="0.45098" stop-color="#99939C"/>
<stop offset="1" stop-color="#99939C" stop-opacity="0"/>
</linearGradient>
<clipPath id="clip0_145_2179">
<rect width="212" height="324" fill="white" transform="matrix(1 -8.74228e-08 -8.74228e-08 -1 -5 324)"/>
</clipPath>
<clipPath id="clip1_145_2179">
<rect width="212" height="324" fill="white" transform="translate(395 324) rotate(-180)"/>
</clipPath>
<clipPath id="clip2_145_2179">
<rect width="212" height="452" fill="white" transform="translate(-5 284)"/>
</clipPath>
<clipPath id="clip3_145_2179">
<rect width="212" height="452" fill="white" transform="matrix(-1 1.2196e-07 6.26659e-08 1 395 284)"/>
</clipPath>
</defs>
</svg>