<svg xmlns="http://www.w3.org/2000/svg" width="328" height="493" viewBox="0 0 328 493" fill="none">
<g clip-path="url(#clip0_145_2311)">
<path d="M303.308 487.061L47.8551 487.061L6.53834 449.781L6.53834 288.739L19.6103 276.948L19.6103 231.393L5.76758 218.907L5.76758 38.2959L22.5566 23.1875H23.6071L287.103 23.1875L291.983 18.783L313.073 18.783L318.711 23.8708V41.1597L313.017 46.2973L313.017 230.617L320.085 236.991V408.146L314.528 413.16V476.948L303.314 487.067L303.308 487.061ZM48.1038 486.508L303.053 486.508L313.906 476.718V412.93L319.463 407.916V237.22L312.396 230.847L312.396 46.0675L318.09 40.9299V24.1007L312.812 19.3421L292.232 19.3421L287.352 23.7466L22.8115 23.7466L6.38295 38.5319L6.38295 218.677L20.2257 231.163L20.2257 277.178L7.15371 288.969L7.15371 449.551L48.11 486.502L48.1038 486.508Z" fill="#00F2F8"/>
</g>
<g clip-path="url(#clip1_145_2311)">
<path d="M25.0761 487.061L280.529 487.061L321.846 449.781V288.739L308.774 276.948V231.393L322.617 218.907L322.617 38.2959L305.828 23.1875H304.777L41.2808 23.1875L36.4014 18.783L15.3109 18.783L9.67319 23.8708V41.1597L15.3669 46.2973L15.3669 230.617L8.2995 236.991V408.146L13.8564 413.16V476.948L25.0699 487.067L25.0761 487.061ZM280.28 486.508L25.3309 486.508L14.478 476.718V412.93L8.92108 407.916V237.22L15.9885 230.847L15.9885 46.0675L10.2948 40.9299V24.1007L15.572 19.3421L36.1527 19.3421L41.0322 23.7466L305.573 23.7466L322.001 38.5319L322.001 218.677L308.159 231.163V277.178L321.231 288.969V449.551L280.274 486.502L280.28 486.508Z" fill="#00F2F8"/>
</g>
<g clip-path="url(#clip2_145_2311)">
<path d="M25.0756 5.31836L280.529 5.31839L321.845 42.5985L321.845 203.64L308.774 215.431L308.774 260.986L322.616 273.473L322.616 454.084L305.827 469.192L304.777 469.192L41.2803 469.192L36.4009 473.597L15.3105 473.597L9.6727 468.509L9.6727 451.22L15.3664 446.082L15.3664 261.763L8.29903 255.389L8.29905 84.2334L13.856 79.2201L13.856 15.432L25.0694 5.31214L25.0756 5.31836ZM280.28 5.87124L25.3305 5.87122L14.4776 15.6618L14.4776 79.4499L8.92063 84.4633L8.92061 255.159L15.988 261.533L15.988 446.312L10.2943 451.45L10.2943 468.279L15.5715 473.038L36.1522 473.038L41.0317 468.633L305.572 468.633L322.001 453.848L322.001 273.703L308.158 261.216L308.158 215.202L321.23 203.411L321.23 42.8284L280.274 5.87747L280.28 5.87124Z" fill="#00F2F8"/>
</g>
<g clip-path="url(#clip3_145_2311)">
<path d="M303.308 5.31836L47.8551 5.31839L6.53831 42.5985L6.53832 203.64L19.6103 215.431L19.6103 260.986L5.76756 273.473L5.76758 454.084L22.5566 469.192L23.6071 469.192L287.103 469.192L291.983 473.597L313.073 473.597L318.711 468.509L318.711 451.22L313.017 446.082L313.017 261.763L320.085 255.389L320.085 84.2334L314.528 79.2201L314.528 15.432L303.314 5.31214L303.308 5.31836ZM48.1037 5.87124L303.053 5.87122L313.906 15.6618L313.906 79.4499L319.463 84.4633L319.463 255.159L312.396 261.533L312.396 446.312L318.09 451.45L318.09 468.279L312.812 473.038L292.232 473.038L287.352 468.633L22.8115 468.633L6.38295 453.848L6.38293 273.703L20.2256 261.216L20.2256 215.202L7.15369 203.411L7.15368 42.8284L48.1099 5.87747L48.1037 5.87124Z" fill="#00F2F8"/>
</g>









<path d="M46.6401 235.973H280.161" stroke="#00F2F8" stroke-width="0.841837"/>
<path d="M46.6401 308.138H280.161" stroke="#00F2F8" stroke-width="0.841837"/>
<path d="M46.6401 380.302H280.161" stroke="#00F2F8" stroke-width="0.841837"/>
<defs>
<clipPath id="clip0_145_2311">
<rect width="144.796" height="252.551" fill="white" transform="translate(0.875488 239.455)"/>
</clipPath>
<clipPath id="clip1_145_2311">
<rect width="191.939" height="252.551" fill="white" transform="matrix(-1 0 0 1 327.508 239.455)"/>
</clipPath>
<clipPath id="clip2_145_2311">
<rect width="191.939" height="252.551" fill="white" transform="translate(327.508 252.924) rotate(-180)"/>
</clipPath>
<clipPath id="clip3_145_2311">
<rect width="144.796" height="252.551" fill="white" transform="matrix(1 -8.74228e-08 -8.74228e-08 -1 0.875488 252.924)"/>
</clipPath>
</defs>
</svg>