<svg width="332" height="797" viewBox="0 0 332 797" fill="none" xmlns="http://www.w3.org/2000/svg">
<path d="M181.024 679.507L181.024 796.24L293.639 796.24L293.639 757.039" stroke="white" stroke-width="0.883536"/>
<path d="M144.861 680.282L144.861 796.24L32.2456 796.24L32.2456 757.039" stroke="white" stroke-width="0.883536"/>
<path d="M301.876 61.8833L301.876 89.8937C301.876 95.7493 297.129 100.496 291.274 100.496L42.3953 100.496C36.5398 100.496 31.7929 95.7493 31.7929 89.8937L31.7929 61.8833" stroke="white" stroke-width="0.883536"/>
<path d="M122.064 60.0496L122.064 99.8942" stroke="white" stroke-width="0.883536"/>
<path d="M211.97 60.0496L211.97 99.8942" stroke="white" stroke-width="0.883536"/>
<path d="M160.887 100.405L160.887 131.566" stroke="white" stroke-width="0.883536"/>
<path d="M160.887 275.924L160.887 356.211" stroke="white" stroke-width="0.883536"/>
<path d="M160.887 458.701L160.887 577.095" stroke="white" stroke-width="0.883536"/>
<path d="M36.3543 600.106L36.3543 140.579C36.3543 136.734 39.4709 133.618 43.3153 133.618V133.618L76.8136 133.618C81.6932 133.618 85.6489 129.662 85.6489 124.783L85.6489 102.49" stroke="#00F2F8" stroke-width="0.883536"/>
<path d="M299.324 598.595L299.324 213.86C299.324 208.492 294.973 204.141 289.605 204.141L230.559 204.141" stroke="#00F2F8" stroke-width="0.883536"/>
<path d="M160.763 122.059L156.384 114.473L165.143 114.473L160.763 122.059Z" fill="white"/>
<path d="M160.763 317.966L156.384 310.38L165.143 310.38L160.763 317.966Z" fill="white"/>
<path d="M160.763 519.173L156.384 511.588L165.143 511.588L160.763 519.173Z" fill="white"/>
<path d="M181.024 740.591L176.644 733.006L185.404 733.006L181.024 740.591Z" fill="white"/>
<path d="M145.23 740.591L140.85 733.006L149.609 733.006L145.23 740.591Z" fill="white"/>
<path d="M36.4955 348.998L40.875 356.583L32.116 356.583L36.4955 348.998Z" fill="#00F2F8"/>
<path d="M299.213 430.042L303.592 437.627L294.833 437.627L299.213 430.042Z" fill="#00F2F8"/>
<circle cx="301.623" cy="31.0268" r="29.5984" transform="rotate(90 301.623 31.0268)" stroke="#EDDB0F" stroke-width="0.883536"/>
<path d="M310.947 38.7568C312.192 37.2595 313.057 35.4845 313.47 33.582C313.884 31.6794 313.833 29.7053 313.322 27.8266C312.811 25.9479 311.855 24.2199 310.535 22.7887C309.215 21.3576 307.57 20.2654 305.739 19.6046C303.907 18.9438 301.944 18.7338 300.014 18.9924C298.084 19.251 296.245 19.9705 294.652 21.0902C293.06 22.2098 291.76 23.6966 290.863 25.4248C289.967 27.1529 289.499 29.0716 289.501 31.0186C289.502 33.8489 290.499 36.5885 292.318 38.7568L292.301 38.7716C292.361 38.8444 292.431 38.9067 292.493 38.9787C292.571 39.0679 292.655 39.152 292.736 39.2386C292.978 39.5021 293.228 39.7551 293.49 39.9925C293.569 40.0653 293.652 40.1329 293.732 40.2022C294.01 40.4414 294.295 40.6684 294.59 40.8799C294.628 40.9059 294.663 40.9397 294.701 40.9665V40.9561C296.731 42.3843 299.152 43.1508 301.633 43.1508C304.115 43.1508 306.536 42.3843 308.566 40.9561V40.9665C308.604 40.9397 308.638 40.9059 308.677 40.8799C308.971 40.6676 309.257 40.4414 309.535 40.2022C309.615 40.1329 309.698 40.0645 309.777 39.9925C310.039 39.7542 310.289 39.5021 310.531 39.2386C310.612 39.152 310.695 39.0679 310.774 38.9787C310.835 38.9067 310.906 38.8444 310.966 38.7707L310.947 38.7568ZM301.633 24.0862C302.404 24.0862 303.158 24.3149 303.799 24.7434C304.44 25.1719 304.94 25.7809 305.235 26.4934C305.53 27.206 305.608 27.99 305.457 28.7464C305.307 29.5028 304.935 30.1977 304.39 30.743C303.845 31.2884 303.15 31.6597 302.393 31.8102C301.637 31.9607 300.853 31.8834 300.14 31.5883C299.428 31.2932 298.819 30.7934 298.39 30.1521C297.962 29.5108 297.733 28.7569 297.733 27.9857C297.733 26.9515 298.144 25.9596 298.875 25.2284C299.607 24.4971 300.598 24.0862 301.633 24.0862ZM294.706 38.7568C294.721 37.619 295.184 36.5329 295.993 35.7334C296.803 34.9339 297.895 34.4854 299.033 34.4848H304.232C305.37 34.4854 306.462 34.9339 307.272 35.7334C308.081 36.5329 308.544 37.619 308.559 38.7568C306.658 40.4694 304.191 41.4172 301.633 41.4172C299.074 41.4172 296.607 40.4694 294.706 38.7568Z" fill="#FF005C"/>
<circle cx="212.386" cy="31.0268" r="29.5984" transform="rotate(90 212.386 31.0268)" stroke="#EDDB0F" stroke-width="0.883536"/>
<path d="M221.71 38.7568C222.954 37.2595 223.82 35.4845 224.233 33.582C224.647 31.6794 224.596 29.7053 224.085 27.8266C223.574 25.9479 222.618 24.2199 221.298 22.7887C219.978 21.3576 218.333 20.2654 216.501 19.6046C214.67 18.9438 212.706 18.7338 210.777 18.9924C208.847 19.251 207.008 19.9705 205.415 21.0902C203.822 22.2098 202.523 23.6966 201.626 25.4248C200.729 27.1529 200.262 29.0716 200.264 31.0186C200.264 33.8489 201.262 36.5885 203.081 38.7568L203.063 38.7716C203.124 38.8444 203.193 38.9067 203.256 38.9787C203.334 39.0679 203.418 39.152 203.498 39.2386C203.741 39.5021 203.991 39.7551 204.252 39.9925C204.332 40.0653 204.414 40.1329 204.495 40.2022C204.772 40.4414 205.057 40.6684 205.353 40.8799C205.391 40.9059 205.426 40.9397 205.464 40.9665V40.9561C207.493 42.3843 209.914 43.1508 212.396 43.1508C214.878 43.1508 217.299 42.3843 219.329 40.9561V40.9665C219.367 40.9397 219.4 40.9059 219.439 40.8799C219.734 40.6676 220.02 40.4414 220.297 40.2022C220.378 40.1329 220.46 40.0645 220.54 39.9925C220.802 39.7542 221.051 39.5021 221.294 39.2386C221.374 39.152 221.458 39.0679 221.536 38.9787C221.598 38.9067 221.668 38.8444 221.729 38.7707L221.71 38.7568ZM212.395 24.0862C213.167 24.0862 213.92 24.3149 214.562 24.7434C215.203 25.1719 215.703 25.7809 215.998 26.4934C216.293 27.206 216.37 27.99 216.22 28.7464C216.069 29.5028 215.698 30.1977 215.153 30.743C214.607 31.2884 213.912 31.6597 213.156 31.8102C212.4 31.9607 211.616 31.8834 210.903 31.5883C210.191 31.2932 209.582 30.7934 209.153 30.1521C208.725 29.5108 208.496 28.7569 208.496 27.9857C208.496 26.9515 208.907 25.9596 209.638 25.2284C210.369 24.4971 211.361 24.0862 212.395 24.0862ZM205.469 38.7568C205.484 37.619 205.946 36.5329 206.756 35.7334C207.566 34.9339 208.658 34.4854 209.796 34.4848H214.995C216.133 34.4854 217.225 34.9339 218.034 35.7334C218.844 36.5329 219.307 37.619 219.322 38.7568C217.421 40.4694 214.954 41.4172 212.395 41.4172C209.837 41.4172 207.369 40.4694 205.469 38.7568Z" fill="#FF005C"/>
<circle cx="123.149" cy="31.0268" r="29.5984" transform="rotate(90 123.149 31.0268)" stroke="#EDDB0F" stroke-width="0.883536"/>
<path d="M132.473 38.7568C133.717 37.2595 134.583 35.4845 134.996 33.582C135.41 31.6794 135.359 29.7053 134.848 27.8266C134.337 25.9479 133.381 24.2199 132.061 22.7887C130.741 21.3576 129.096 20.2654 127.264 19.6046C125.433 18.9438 123.469 18.7338 121.54 18.9924C119.61 19.251 117.771 19.9705 116.178 21.0902C114.585 22.2098 113.286 23.6966 112.389 25.4248C111.492 27.1529 111.025 29.0716 111.027 31.0186C111.028 33.8489 112.025 36.5885 113.844 38.7568L113.827 38.7716C113.887 38.8444 113.957 38.9067 114.019 38.9787C114.097 39.0679 114.181 39.152 114.262 39.2386C114.504 39.5021 114.754 39.7551 115.016 39.9925C115.095 40.0653 115.178 40.1329 115.258 40.2022C115.535 40.4414 115.821 40.6684 116.116 40.8799C116.154 40.9059 116.189 40.9397 116.227 40.9665V40.9561C118.257 42.3843 120.678 43.1508 123.159 43.1508C125.641 43.1508 128.062 42.3843 130.092 40.9561V40.9665C130.13 40.9397 130.164 40.9059 130.203 40.8799C130.497 40.6676 130.783 40.4414 131.061 40.2022C131.141 40.1329 131.223 40.0645 131.303 39.9925C131.565 39.7542 131.814 39.5021 132.057 39.2386C132.138 39.152 132.221 39.0679 132.3 38.9787C132.361 38.9067 132.431 38.8444 132.492 38.7707L132.473 38.7568ZM123.158 24.0862C123.93 24.0862 124.684 24.3149 125.325 24.7434C125.966 25.1719 126.466 25.7809 126.761 26.4934C127.056 27.206 127.133 27.99 126.983 28.7464C126.833 29.5028 126.461 30.1977 125.916 30.743C125.37 31.2884 124.676 31.6597 123.919 31.8102C123.163 31.9607 122.379 31.8834 121.666 31.5883C120.954 31.2932 120.345 30.7934 119.916 30.1521C119.488 29.5108 119.259 28.7569 119.259 27.9857C119.259 26.9515 119.67 25.9596 120.401 25.2284C121.132 24.4971 122.124 24.0862 123.158 24.0862ZM116.232 38.7568C116.247 37.619 116.71 36.5329 117.519 35.7334C118.329 34.9339 119.421 34.4854 120.559 34.4848H125.758C126.896 34.4854 127.988 34.9339 128.798 35.7334C129.607 36.5329 130.07 37.619 130.085 38.7568C128.184 40.4694 125.717 41.4172 123.158 41.4172C120.6 41.4172 118.133 40.4694 116.232 38.7568Z" fill="#FF005C"/>
<circle cx="33.9119" cy="31.0268" r="29.5984" transform="rotate(90 33.9119 31.0268)" stroke="#EDDB0F" stroke-width="0.883536"/>
<path d="M43.2357 38.7568C44.4801 37.2595 45.3457 35.4845 45.7591 33.582C46.1724 31.6794 46.1215 29.7053 45.6106 27.8266C45.0997 25.9479 44.1438 24.2199 42.8238 22.7887C41.5037 21.3576 39.8585 20.2654 38.0271 19.6046C36.1957 18.9438 34.2321 18.7338 32.3024 18.9924C30.3727 19.251 28.5337 19.9705 26.9409 21.0902C25.3481 22.2098 24.0484 23.6966 23.1518 25.4248C22.2551 27.1529 21.7879 29.0716 21.7896 31.0186C21.7902 33.8489 22.7876 36.5885 24.6067 38.7568L24.5894 38.7716C24.65 38.8444 24.7193 38.9067 24.7817 38.9787C24.8597 39.0679 24.9438 39.152 25.0244 39.2386C25.267 39.5021 25.5166 39.7551 25.7783 39.9925C25.858 40.0653 25.9403 40.1329 26.0209 40.2022C26.2982 40.4414 26.5833 40.6684 26.8788 40.8799C26.9169 40.9059 26.9516 40.9397 26.9897 40.9665V40.9561C29.0192 42.3843 31.4404 43.1508 33.922 43.1508C36.4037 43.1508 38.8249 42.3843 40.8544 40.9561V40.9665C40.8925 40.9397 40.9263 40.9059 40.9653 40.8799C41.2599 40.6676 41.5459 40.4414 41.8232 40.2022C41.9038 40.1329 41.9861 40.0645 42.0658 39.9925C42.3275 39.7542 42.5771 39.5021 42.8197 39.2386C42.9003 39.152 42.9835 39.0679 43.0624 38.9787C43.1239 38.9067 43.1941 38.8444 43.2547 38.7707L43.2357 38.7568ZM33.9212 24.0862C34.6924 24.0862 35.4463 24.3149 36.0876 24.7434C36.7289 25.1719 37.2287 25.7809 37.5238 26.4934C37.8189 27.206 37.8962 27.99 37.7457 28.7464C37.5952 29.5028 37.2239 30.1977 36.6785 30.743C36.1332 31.2884 35.4383 31.6597 34.6819 31.8102C33.9255 31.9607 33.1415 31.8834 32.4289 31.5883C31.7164 31.2932 31.1074 30.7934 30.6789 30.1521C30.2504 29.5108 30.0217 28.7569 30.0217 27.9857C30.0217 26.9515 30.4326 25.9596 31.1639 25.2284C31.8951 24.4971 32.887 24.0862 33.9212 24.0862ZM26.9949 38.7568C27.0099 37.619 27.4723 36.5329 28.282 35.7334C29.0917 34.9339 30.1836 34.4854 31.3215 34.4848H36.5208C37.6587 34.4854 38.7506 34.9339 39.5603 35.7334C40.3701 36.5329 40.8324 37.619 40.8475 38.7568C38.947 40.4694 36.4794 41.4172 33.9212 41.4172C31.3629 41.4172 28.8954 40.4694 26.9949 38.7568Z" fill="#FF005C"/>
<rect x="232.966" y="204.221" width="101.607" height="101.607" transform="rotate(135 232.966 204.221)" stroke="#EDDB0F" stroke-width="0.883536"/>
<path d="M124.148 194.458C123.12 194.458 122.181 194.22 121.333 193.743C120.485 193.255 119.812 192.582 119.313 191.723C118.826 190.854 118.582 189.878 118.582 188.797C118.582 187.715 118.826 186.745 119.313 185.886C119.812 185.017 120.485 184.344 121.333 183.867C122.181 183.379 123.12 183.135 124.148 183.135C125.187 183.135 126.131 183.379 126.979 183.867C127.827 184.344 128.495 185.012 128.983 185.871C129.47 186.729 129.714 187.705 129.714 188.797C129.714 189.889 129.47 190.864 128.983 191.723C128.495 192.582 127.827 193.255 126.979 193.743C126.131 194.22 125.187 194.458 124.148 194.458ZM124.148 193.202C124.922 193.202 125.616 193.022 126.231 192.661C126.857 192.301 127.345 191.787 127.695 191.119C128.055 190.451 128.235 189.677 128.235 188.797C128.235 187.906 128.055 187.132 127.695 186.475C127.345 185.807 126.862 185.293 126.247 184.932C125.632 184.572 124.933 184.391 124.148 184.391C123.363 184.391 122.664 184.572 122.049 184.932C121.434 185.293 120.946 185.807 120.586 186.475C120.236 187.132 120.061 187.906 120.061 188.797C120.061 189.677 120.236 190.451 120.586 191.119C120.946 191.787 121.434 192.301 122.049 192.661C122.674 193.022 123.374 193.202 124.148 193.202ZM133.39 187.238C133.676 186.74 134.1 186.326 134.662 185.998C135.235 185.658 135.898 185.489 136.65 185.489C137.424 185.489 138.124 185.674 138.75 186.045C139.386 186.417 139.884 186.941 140.245 187.62C140.605 188.288 140.785 189.067 140.785 189.958C140.785 190.838 140.605 191.622 140.245 192.312C139.884 193.001 139.386 193.536 138.75 193.918C138.124 194.299 137.424 194.49 136.65 194.49C135.908 194.49 135.251 194.326 134.678 193.997C134.116 193.658 133.687 193.239 133.39 192.741V198.482H131.943V185.632H133.39V187.238ZM139.306 189.958C139.306 189.3 139.174 188.728 138.909 188.24C138.644 187.752 138.283 187.381 137.827 187.127C137.382 186.872 136.889 186.745 136.348 186.745C135.818 186.745 135.325 186.878 134.869 187.143C134.424 187.397 134.063 187.774 133.788 188.272C133.523 188.76 133.39 189.327 133.39 189.974C133.39 190.631 133.523 191.209 133.788 191.707C134.063 192.195 134.424 192.571 134.869 192.836C135.325 193.091 135.818 193.218 136.348 193.218C136.889 193.218 137.382 193.091 137.827 192.836C138.283 192.571 138.644 192.195 138.909 191.707C139.174 191.209 139.306 190.626 139.306 189.958ZM144.774 186.825V191.962C144.774 192.386 144.864 192.688 145.044 192.868C145.224 193.038 145.537 193.123 145.982 193.123H147.048V194.347H145.744C144.938 194.347 144.334 194.162 143.931 193.791C143.528 193.419 143.326 192.81 143.326 191.962V186.825H142.197V185.632H143.326V183.437H144.774V185.632H147.048V186.825H144.774ZM149.867 184.217C149.591 184.217 149.358 184.121 149.167 183.93C148.976 183.739 148.881 183.506 148.881 183.231C148.881 182.955 148.976 182.722 149.167 182.531C149.358 182.34 149.591 182.244 149.867 182.244C150.132 182.244 150.355 182.34 150.535 182.531C150.726 182.722 150.821 182.955 150.821 183.231C150.821 183.506 150.726 183.739 150.535 183.93C150.355 184.121 150.132 184.217 149.867 184.217ZM150.567 185.632V194.347H149.119V185.632H150.567ZM163.832 185.473C164.51 185.473 165.115 185.616 165.645 185.902C166.175 186.178 166.594 186.597 166.901 187.159C167.209 187.721 167.362 188.405 167.362 189.21V194.347H165.931V189.417C165.931 188.548 165.714 187.885 165.279 187.429C164.855 186.963 164.277 186.729 163.546 186.729C162.793 186.729 162.194 186.973 161.748 187.461C161.303 187.938 161.08 188.632 161.08 189.544V194.347H159.649V189.417C159.649 188.548 159.432 187.885 158.997 187.429C158.573 186.963 157.995 186.729 157.264 186.729C156.511 186.729 155.912 186.973 155.466 187.461C155.021 187.938 154.799 188.632 154.799 189.544V194.347H153.351V185.632H154.799V186.888C155.085 186.432 155.466 186.083 155.944 185.839C156.431 185.595 156.967 185.473 157.55 185.473C158.281 185.473 158.928 185.637 159.49 185.966C160.052 186.295 160.471 186.777 160.747 187.413C160.99 186.798 161.393 186.321 161.955 185.982C162.517 185.643 163.143 185.473 163.832 185.473ZM177.784 185.632V194.347H176.336V193.059C176.061 193.504 175.674 193.854 175.175 194.109C174.688 194.352 174.147 194.474 173.553 194.474C172.875 194.474 172.265 194.337 171.724 194.061C171.184 193.775 170.754 193.351 170.436 192.789C170.129 192.227 169.975 191.543 169.975 190.737V185.632H171.406V190.546C171.406 191.405 171.624 192.068 172.058 192.534C172.493 192.99 173.087 193.218 173.84 193.218C174.614 193.218 175.223 192.979 175.668 192.502C176.114 192.025 176.336 191.331 176.336 190.419V185.632H177.784ZM191.026 185.473C191.704 185.473 192.309 185.616 192.839 185.902C193.369 186.178 193.788 186.597 194.095 187.159C194.403 187.721 194.556 188.405 194.556 189.21V194.347H193.125V189.417C193.125 188.548 192.908 187.885 192.473 187.429C192.049 186.963 191.471 186.729 190.74 186.729C189.987 186.729 189.388 186.973 188.942 187.461C188.497 187.938 188.274 188.632 188.274 189.544V194.347H186.843V189.417C186.843 188.548 186.626 187.885 186.191 187.429C185.767 186.963 185.189 186.729 184.458 186.729C183.705 186.729 183.106 186.973 182.66 187.461C182.215 187.938 181.993 188.632 181.993 189.544V194.347H180.545V185.632H181.993V186.888C182.279 186.432 182.66 186.083 183.138 185.839C183.625 185.595 184.161 185.473 184.744 185.473C185.475 185.473 186.122 185.637 186.684 185.966C187.246 186.295 187.665 186.777 187.94 187.413C188.184 186.798 188.587 186.321 189.149 185.982C189.711 185.643 190.337 185.473 191.026 185.473ZM129.338 215.458C128.521 215.458 127.79 215.326 127.143 215.061C126.496 214.796 125.977 214.404 125.584 213.884C125.203 213.365 125.001 212.739 124.98 212.007H127.875C127.917 212.421 128.06 212.739 128.304 212.962C128.548 213.174 128.866 213.28 129.258 213.28C129.661 213.28 129.979 213.19 130.212 213.009C130.446 212.818 130.562 212.559 130.562 212.23C130.562 211.954 130.467 211.726 130.276 211.546C130.096 211.366 129.868 211.218 129.592 211.101C129.327 210.984 128.945 210.852 128.447 210.703C127.726 210.481 127.138 210.258 126.682 210.035C126.226 209.813 125.834 209.484 125.505 209.049C125.176 208.615 125.012 208.047 125.012 207.348C125.012 206.309 125.388 205.498 126.141 204.914C126.894 204.321 127.875 204.024 129.083 204.024C130.313 204.024 131.304 204.321 132.057 204.914C132.81 205.498 133.213 206.314 133.266 207.364H130.324C130.302 207.003 130.17 206.722 129.926 206.521C129.682 206.309 129.369 206.203 128.988 206.203C128.659 206.203 128.394 206.293 128.193 206.473C127.991 206.643 127.89 206.892 127.89 207.22C127.89 207.581 128.06 207.862 128.399 208.063C128.739 208.265 129.269 208.482 129.99 208.715C130.711 208.959 131.294 209.192 131.739 209.415C132.195 209.638 132.587 209.961 132.916 210.385C133.245 210.809 133.409 211.355 133.409 212.023C133.409 212.659 133.245 213.237 132.916 213.757C132.598 214.276 132.131 214.69 131.516 214.997C130.902 215.305 130.175 215.458 129.338 215.458ZM140.347 213.041V215.347H138.963C137.977 215.347 137.208 215.109 136.657 214.632C136.106 214.144 135.83 213.354 135.83 212.262V208.731H134.749V206.473H135.83V204.31H138.55V206.473H140.331V208.731H138.55V212.294C138.55 212.559 138.613 212.75 138.74 212.866C138.868 212.983 139.08 213.041 139.377 213.041H140.347ZM141.639 210.894C141.639 209.982 141.809 209.182 142.148 208.493C142.498 207.804 142.969 207.273 143.563 206.902C144.157 206.531 144.82 206.346 145.551 206.346C146.177 206.346 146.723 206.473 147.189 206.727C147.666 206.982 148.032 207.316 148.287 207.729V206.473H151.006V215.347H148.287V214.091C148.022 214.504 147.65 214.838 147.173 215.093C146.707 215.347 146.161 215.474 145.535 215.474C144.814 215.474 144.157 215.289 143.563 214.918C142.969 214.536 142.498 214.001 142.148 213.312C141.809 212.612 141.639 211.806 141.639 210.894ZM148.287 210.91C148.287 210.231 148.096 209.696 147.714 209.304C147.343 208.911 146.887 208.715 146.346 208.715C145.806 208.715 145.344 208.911 144.963 209.304C144.592 209.685 144.406 210.216 144.406 210.894C144.406 211.573 144.592 212.113 144.963 212.516C145.344 212.909 145.806 213.105 146.346 213.105C146.887 213.105 147.343 212.909 147.714 212.516C148.096 212.124 148.287 211.589 148.287 210.91ZM158.715 215.347L156.011 211.626V215.347H153.292V203.578H156.011V210.083L158.699 206.473H162.055L158.365 210.926L162.086 215.347H158.715ZM164.809 205.551C164.331 205.551 163.939 205.413 163.632 205.137C163.335 204.851 163.186 204.501 163.186 204.087C163.186 203.663 163.335 203.313 163.632 203.038C163.939 202.751 164.331 202.608 164.809 202.608C165.275 202.608 165.657 202.751 165.954 203.038C166.261 203.313 166.415 203.663 166.415 204.087C166.415 204.501 166.261 204.851 165.954 205.137C165.657 205.413 165.275 205.551 164.809 205.551ZM166.16 206.473V215.347H163.441V206.473H166.16ZM173.856 206.378C174.895 206.378 175.722 206.717 176.337 207.395C176.963 208.063 177.276 208.986 177.276 210.163V215.347H174.572V210.528C174.572 209.935 174.418 209.473 174.111 209.145C173.803 208.816 173.39 208.652 172.87 208.652C172.351 208.652 171.937 208.816 171.63 209.145C171.322 209.473 171.169 209.935 171.169 210.528V215.347H168.449V206.473H171.169V207.65C171.444 207.258 171.815 206.95 172.282 206.727C172.748 206.494 173.273 206.378 173.856 206.378ZM182.855 206.346C183.481 206.346 184.027 206.473 184.493 206.727C184.97 206.982 185.336 207.316 185.591 207.729V206.473H188.31V215.331C188.31 216.148 188.146 216.885 187.817 217.542C187.499 218.21 187.006 218.74 186.338 219.132C185.681 219.525 184.859 219.721 183.873 219.721C182.558 219.721 181.493 219.408 180.676 218.782C179.86 218.167 179.393 217.33 179.277 216.27H181.965C182.049 216.609 182.251 216.874 182.569 217.065C182.887 217.266 183.279 217.367 183.746 217.367C184.308 217.367 184.753 217.203 185.082 216.874C185.421 216.556 185.591 216.042 185.591 215.331V214.075C185.326 214.488 184.96 214.828 184.493 215.093C184.027 215.347 183.481 215.474 182.855 215.474C182.124 215.474 181.461 215.289 180.867 214.918C180.273 214.536 179.802 214.001 179.452 213.312C179.113 212.612 178.943 211.806 178.943 210.894C178.943 209.982 179.113 209.182 179.452 208.493C179.802 207.804 180.273 207.273 180.867 206.902C181.461 206.531 182.124 206.346 182.855 206.346ZM185.591 210.91C185.591 210.231 185.4 209.696 185.018 209.304C184.647 208.911 184.191 208.715 183.65 208.715C183.11 208.715 182.648 208.911 182.267 209.304C181.896 209.685 181.71 210.216 181.71 210.894C181.71 211.573 181.896 212.113 182.267 212.516C182.648 212.909 183.11 213.105 183.65 213.105C184.191 213.105 184.647 212.909 185.018 212.516C185.4 212.124 185.591 211.589 185.591 210.91ZM148.545 228.777C148.545 229.424 148.396 230.018 148.1 230.558C147.803 231.088 147.347 231.518 146.732 231.846C146.117 232.175 145.353 232.339 144.442 232.339H142.756V236.347H140.036V225.183H144.442C145.332 225.183 146.085 225.337 146.7 225.644C147.315 225.951 147.776 226.376 148.084 226.916C148.391 227.457 148.545 228.077 148.545 228.777ZM144.235 230.177C144.754 230.177 145.141 230.055 145.396 229.811C145.65 229.567 145.778 229.222 145.778 228.777C145.778 228.332 145.65 227.987 145.396 227.743C145.141 227.499 144.754 227.378 144.235 227.378H142.756V230.177H144.235ZM154.318 236.474C153.449 236.474 152.664 236.289 151.964 235.918C151.275 235.547 150.729 235.017 150.326 234.327C149.934 233.638 149.738 232.832 149.738 231.91C149.738 230.998 149.939 230.198 150.342 229.509C150.745 228.809 151.297 228.273 151.996 227.902C152.696 227.531 153.481 227.346 154.35 227.346C155.219 227.346 156.004 227.531 156.704 227.902C157.404 228.273 157.955 228.809 158.358 229.509C158.761 230.198 158.962 230.998 158.962 231.91C158.962 232.822 158.755 233.628 158.342 234.327C157.939 235.017 157.382 235.547 156.672 235.918C155.972 236.289 155.188 236.474 154.318 236.474ZM154.318 234.121C154.838 234.121 155.278 233.93 155.638 233.548C156.009 233.166 156.195 232.62 156.195 231.91C156.195 231.2 156.015 230.654 155.654 230.272C155.304 229.89 154.87 229.699 154.35 229.699C153.82 229.699 153.38 229.89 153.03 230.272C152.68 230.643 152.505 231.189 152.505 231.91C152.505 232.62 152.675 233.166 153.014 233.548C153.364 233.93 153.799 234.121 154.318 234.121ZM164.762 236.474C163.893 236.474 163.108 236.289 162.409 235.918C161.72 235.547 161.173 235.017 160.771 234.327C160.378 233.638 160.182 232.832 160.182 231.91C160.182 230.998 160.384 230.198 160.787 229.509C161.189 228.809 161.741 228.273 162.44 227.902C163.14 227.531 163.925 227.346 164.794 227.346C165.664 227.346 166.448 227.531 167.148 227.902C167.848 228.273 168.399 228.809 168.802 229.509C169.205 230.198 169.406 230.998 169.406 231.91C169.406 232.822 169.2 233.628 168.786 234.327C168.383 235.017 167.827 235.547 167.116 235.918C166.416 236.289 165.632 236.474 164.762 236.474ZM164.762 234.121C165.282 234.121 165.722 233.93 166.082 233.548C166.454 233.166 166.639 232.62 166.639 231.91C166.639 231.2 166.459 230.654 166.098 230.272C165.748 229.89 165.314 229.699 164.794 229.699C164.264 229.699 163.824 229.89 163.474 230.272C163.124 230.643 162.949 231.189 162.949 231.91C162.949 232.62 163.119 233.166 163.458 233.548C163.808 233.93 164.243 234.121 164.762 234.121ZM173.887 224.578V236.347H171.167V224.578H173.887Z" fill="white"/>
<rect x="243.73" y="356.653" width="101.607" height="165.221" transform="rotate(90 243.73 356.653)" stroke="#EDDB0F" stroke-width="0.883536"/>
<path d="M115.962 382.01C115.655 381.363 115.209 380.864 114.626 380.515C114.043 380.154 113.364 379.974 112.59 379.974C111.816 379.974 111.117 380.154 110.491 380.515C109.876 380.864 109.389 381.373 109.028 382.041C108.678 382.699 108.503 383.462 108.503 384.331C108.503 385.201 108.678 385.964 109.028 386.622C109.389 387.279 109.876 387.788 110.491 388.148C111.117 388.498 111.816 388.673 112.59 388.673C113.672 388.673 114.563 388.35 115.262 387.703C115.962 387.056 116.37 386.182 116.487 385.079H112.066V383.902H118.03V385.015C117.945 385.927 117.658 386.765 117.171 387.528C116.683 388.281 116.042 388.88 115.246 389.325C114.451 389.76 113.566 389.977 112.59 389.977C111.562 389.977 110.624 389.739 109.776 389.262C108.927 388.774 108.254 388.101 107.756 387.242C107.268 386.383 107.024 385.413 107.024 384.331C107.024 383.25 107.268 382.28 107.756 381.421C108.254 380.552 108.927 379.878 109.776 379.401C110.624 378.914 111.562 378.67 112.59 378.67C113.767 378.67 114.806 378.961 115.708 379.544C116.619 380.128 117.282 380.949 117.696 382.01H115.962ZM124.062 390.025C123.246 390.025 122.504 389.839 121.836 389.468C121.178 389.097 120.659 388.572 120.277 387.894C119.906 387.205 119.72 386.41 119.72 385.508C119.72 384.618 119.911 383.833 120.293 383.155C120.685 382.465 121.215 381.941 121.883 381.58C122.551 381.209 123.299 381.024 124.126 381.024C124.953 381.024 125.7 381.209 126.368 381.58C127.036 381.941 127.561 382.46 127.943 383.139C128.335 383.817 128.531 384.607 128.531 385.508C128.531 386.41 128.33 387.205 127.927 387.894C127.534 388.572 126.999 389.097 126.32 389.468C125.642 389.839 124.889 390.025 124.062 390.025ZM124.062 388.753C124.582 388.753 125.069 388.631 125.525 388.387C125.981 388.143 126.347 387.777 126.623 387.29C126.909 386.802 127.052 386.208 127.052 385.508C127.052 384.809 126.914 384.215 126.638 383.727C126.363 383.239 126.002 382.879 125.557 382.646C125.112 382.402 124.629 382.28 124.11 382.28C123.58 382.28 123.092 382.402 122.647 382.646C122.212 382.879 121.862 383.239 121.597 383.727C121.332 384.215 121.199 384.809 121.199 385.508C121.199 386.219 121.327 386.818 121.581 387.305C121.846 387.793 122.196 388.159 122.631 388.403C123.065 388.636 123.543 388.753 124.062 388.753ZM133.996 388.546L136.7 381.167H138.243L134.823 389.882H133.137L129.718 381.167H131.277L133.996 388.546ZM147.937 385.19C147.937 385.466 147.921 385.757 147.889 386.065H140.923C140.976 386.924 141.268 387.597 141.798 388.085C142.338 388.562 142.991 388.8 143.754 388.8C144.379 388.8 144.899 388.657 145.312 388.371C145.737 388.074 146.033 387.682 146.203 387.194H147.762C147.528 388.032 147.062 388.716 146.362 389.246C145.662 389.765 144.793 390.025 143.754 390.025C142.927 390.025 142.185 389.839 141.527 389.468C140.881 389.097 140.372 388.572 140.001 387.894C139.63 387.205 139.444 386.41 139.444 385.508C139.444 384.607 139.624 383.817 139.985 383.139C140.345 382.46 140.849 381.941 141.496 381.58C142.153 381.209 142.906 381.024 143.754 381.024C144.581 381.024 145.312 381.204 145.949 381.564C146.585 381.925 147.072 382.423 147.412 383.059C147.762 383.685 147.937 384.395 147.937 385.19ZM146.442 384.888C146.442 384.337 146.32 383.865 146.076 383.473C145.832 383.07 145.498 382.768 145.074 382.566C144.66 382.354 144.199 382.248 143.69 382.248C142.959 382.248 142.333 382.481 141.814 382.948C141.305 383.414 141.013 384.061 140.939 384.888H146.442ZM151.612 382.582C151.867 382.084 152.227 381.697 152.694 381.421C153.171 381.145 153.749 381.008 154.427 381.008V382.503H154.045C152.423 382.503 151.612 383.383 151.612 385.143V389.882H150.165V381.167H151.612V382.582ZM160.662 381.008C161.722 381.008 162.581 381.331 163.238 381.978C163.896 382.614 164.225 383.536 164.225 384.745V389.882H162.793V384.952C162.793 384.082 162.576 383.42 162.141 382.964C161.706 382.497 161.113 382.264 160.36 382.264C159.597 382.264 158.987 382.503 158.531 382.98C158.086 383.457 157.863 384.151 157.863 385.063V389.882H156.416V381.167H157.863V382.407C158.149 381.962 158.536 381.617 159.024 381.373C159.522 381.13 160.068 381.008 160.662 381.008ZM166.366 385.492C166.366 384.602 166.546 383.823 166.907 383.155C167.267 382.476 167.76 381.951 168.386 381.58C169.022 381.209 169.727 381.024 170.501 381.024C171.264 381.024 171.927 381.188 172.489 381.517C173.051 381.845 173.47 382.259 173.745 382.757V381.167H175.208V389.882H173.745V388.26C173.459 388.769 173.03 389.193 172.457 389.532C171.895 389.861 171.238 390.025 170.485 390.025C169.711 390.025 169.011 389.834 168.386 389.452C167.76 389.071 167.267 388.535 166.907 387.846C166.546 387.157 166.366 386.372 166.366 385.492ZM173.745 385.508C173.745 384.851 173.613 384.278 173.348 383.791C173.083 383.303 172.722 382.932 172.266 382.677C171.821 382.412 171.328 382.28 170.787 382.28C170.246 382.28 169.753 382.407 169.308 382.662C168.863 382.916 168.508 383.287 168.243 383.775C167.977 384.263 167.845 384.835 167.845 385.492C167.845 386.16 167.977 386.744 168.243 387.242C168.508 387.73 168.863 388.106 169.308 388.371C169.753 388.625 170.246 388.753 170.787 388.753C171.328 388.753 171.821 388.625 172.266 388.371C172.722 388.106 173.083 387.73 173.348 387.242C173.613 386.744 173.745 386.166 173.745 385.508ZM182.218 381.008C183.279 381.008 184.137 381.331 184.795 381.978C185.452 382.614 185.781 383.536 185.781 384.745V389.882H184.349V384.952C184.349 384.082 184.132 383.42 183.697 382.964C183.263 382.497 182.669 382.264 181.916 382.264C181.153 382.264 180.543 382.503 180.087 382.98C179.642 383.457 179.419 384.151 179.419 385.063V389.882H177.972V381.167H179.419V382.407C179.706 381.962 180.093 381.617 180.58 381.373C181.079 381.13 181.625 381.008 182.218 381.008ZM187.922 385.508C187.922 384.607 188.102 383.823 188.463 383.155C188.823 382.476 189.322 381.951 189.958 381.58C190.605 381.209 191.341 381.024 192.168 381.024C193.239 381.024 194.119 381.283 194.808 381.803C195.508 382.322 195.969 383.043 196.192 383.966H194.634C194.485 383.436 194.194 383.017 193.759 382.709C193.335 382.402 192.805 382.248 192.168 382.248C191.341 382.248 190.674 382.534 190.165 383.107C189.656 383.669 189.401 384.469 189.401 385.508C189.401 386.558 189.656 387.369 190.165 387.942C190.674 388.514 191.341 388.8 192.168 388.8C192.805 388.8 193.335 388.652 193.759 388.355C194.183 388.058 194.474 387.634 194.634 387.083H196.192C195.959 387.973 195.492 388.689 194.793 389.23C194.093 389.76 193.218 390.025 192.168 390.025C191.341 390.025 190.605 389.839 189.958 389.468C189.322 389.097 188.823 388.572 188.463 387.894C188.102 387.215 187.922 386.42 187.922 385.508ZM206.393 385.19C206.393 385.466 206.377 385.757 206.345 386.065H199.38C199.433 386.924 199.724 387.597 200.254 388.085C200.795 388.562 201.447 388.8 202.21 388.8C202.836 388.8 203.355 388.657 203.769 388.371C204.193 388.074 204.49 387.682 204.66 387.194H206.218C205.985 388.032 205.518 388.716 204.819 389.246C204.119 389.765 203.249 390.025 202.21 390.025C201.383 390.025 200.641 389.839 199.984 389.468C199.337 389.097 198.828 388.572 198.457 387.894C198.086 387.205 197.9 386.41 197.9 385.508C197.9 384.607 198.081 383.817 198.441 383.139C198.802 382.46 199.305 381.941 199.952 381.58C200.609 381.209 201.362 381.024 202.21 381.024C203.037 381.024 203.769 381.204 204.405 381.564C205.041 381.925 205.529 382.423 205.868 383.059C206.218 383.685 206.393 384.395 206.393 385.19ZM204.898 384.888C204.898 384.337 204.776 383.865 204.532 383.473C204.288 383.07 203.954 382.768 203.53 382.566C203.117 382.354 202.656 382.248 202.147 382.248C201.415 382.248 200.79 382.481 200.27 382.948C199.761 383.414 199.47 384.061 199.395 384.888H204.898ZM113.402 410.882L110.762 406.349H109.012V410.882H107.565V399.797H111.143C111.981 399.797 112.686 399.94 113.258 400.226C113.842 400.513 114.276 400.9 114.563 401.387C114.849 401.875 114.992 402.432 114.992 403.057C114.992 403.821 114.769 404.494 114.324 405.077C113.889 405.66 113.232 406.047 112.352 406.238L115.135 410.882H113.402ZM109.012 405.188H111.143C111.928 405.188 112.516 404.997 112.909 404.616C113.301 404.224 113.497 403.704 113.497 403.057C113.497 402.4 113.301 401.891 112.909 401.53C112.527 401.17 111.938 400.99 111.143 400.99H109.012V405.188ZM125.511 406.19C125.511 406.466 125.495 406.757 125.463 407.065H118.497C118.55 407.924 118.842 408.597 119.372 409.085C119.912 409.562 120.565 409.8 121.328 409.8C121.953 409.8 122.473 409.657 122.886 409.371C123.311 409.074 123.607 408.682 123.777 408.194H125.336C125.102 409.032 124.636 409.716 123.936 410.246C123.236 410.765 122.367 411.025 121.328 411.025C120.501 411.025 119.759 410.839 119.101 410.468C118.455 410.097 117.946 409.572 117.575 408.894C117.204 408.205 117.018 407.41 117.018 406.508C117.018 405.607 117.198 404.817 117.559 404.139C117.919 403.46 118.423 402.941 119.07 402.58C119.727 402.209 120.48 402.024 121.328 402.024C122.155 402.024 122.886 402.204 123.523 402.564C124.159 402.925 124.646 403.423 124.986 404.059C125.336 404.685 125.511 405.395 125.511 406.19ZM124.016 405.888C124.016 405.337 123.894 404.865 123.65 404.473C123.406 404.07 123.072 403.768 122.648 403.566C122.234 403.354 121.773 403.248 121.264 403.248C120.533 403.248 119.907 403.481 119.388 403.948C118.879 404.414 118.587 405.061 118.513 405.888H124.016ZM131.333 402.024C132.086 402.024 132.743 402.188 133.305 402.517C133.878 402.845 134.302 403.259 134.578 403.757V402.167H136.041V411.073C136.041 411.868 135.871 412.573 135.532 413.188C135.192 413.813 134.705 414.301 134.069 414.651C133.443 415.001 132.711 415.176 131.874 415.176C130.729 415.176 129.775 414.905 129.011 414.365C128.248 413.824 127.797 413.087 127.659 412.154H129.091C129.25 412.684 129.578 413.108 130.077 413.426C130.575 413.755 131.174 413.919 131.874 413.919C132.669 413.919 133.316 413.67 133.814 413.172C134.323 412.674 134.578 411.974 134.578 411.073V409.244C134.291 409.753 133.867 410.177 133.305 410.516C132.743 410.855 132.086 411.025 131.333 411.025C130.559 411.025 129.854 410.834 129.218 410.452C128.592 410.071 128.099 409.535 127.739 408.846C127.378 408.157 127.198 407.372 127.198 406.492C127.198 405.602 127.378 404.823 127.739 404.155C128.099 403.476 128.592 402.951 129.218 402.58C129.854 402.209 130.559 402.024 131.333 402.024ZM134.578 406.508C134.578 405.851 134.445 405.278 134.18 404.791C133.915 404.303 133.554 403.932 133.098 403.677C132.653 403.412 132.16 403.28 131.619 403.28C131.079 403.28 130.586 403.407 130.14 403.662C129.695 403.916 129.34 404.287 129.075 404.775C128.81 405.263 128.677 405.835 128.677 406.492C128.677 407.16 128.81 407.744 129.075 408.242C129.34 408.73 129.695 409.106 130.14 409.371C130.586 409.625 131.079 409.753 131.619 409.753C132.16 409.753 132.653 409.625 133.098 409.371C133.554 409.106 133.915 408.73 134.18 408.242C134.445 407.744 134.578 407.166 134.578 406.508ZM139.552 400.751C139.276 400.751 139.043 400.656 138.852 400.465C138.661 400.274 138.566 400.041 138.566 399.765C138.566 399.49 138.661 399.256 138.852 399.065C139.043 398.875 139.276 398.779 139.552 398.779C139.817 398.779 140.04 398.875 140.22 399.065C140.411 399.256 140.506 399.49 140.506 399.765C140.506 400.041 140.411 400.274 140.22 400.465C140.04 400.656 139.817 400.751 139.552 400.751ZM140.252 402.167V410.882H138.804V402.167H140.252ZM146.122 411.025C145.454 411.025 144.855 410.914 144.324 410.691C143.794 410.458 143.376 410.14 143.068 409.737C142.761 409.323 142.591 408.851 142.559 408.321H144.054C144.096 408.756 144.298 409.111 144.658 409.387C145.03 409.663 145.512 409.8 146.106 409.8C146.657 409.8 147.092 409.678 147.41 409.435C147.728 409.191 147.887 408.883 147.887 408.512C147.887 408.131 147.717 407.85 147.378 407.669C147.039 407.478 146.514 407.293 145.803 407.113C145.157 406.943 144.627 406.773 144.213 406.604C143.81 406.424 143.46 406.164 143.163 405.824C142.877 405.475 142.734 405.019 142.734 404.457C142.734 404.011 142.867 403.603 143.132 403.232C143.397 402.861 143.773 402.57 144.261 402.357C144.749 402.135 145.305 402.024 145.931 402.024C146.896 402.024 147.675 402.267 148.269 402.755C148.862 403.243 149.18 403.911 149.223 404.759H147.776C147.744 404.303 147.558 403.937 147.219 403.662C146.89 403.386 146.445 403.248 145.883 403.248C145.363 403.248 144.95 403.359 144.643 403.582C144.335 403.805 144.181 404.096 144.181 404.457C144.181 404.743 144.271 404.982 144.452 405.172C144.643 405.353 144.876 405.501 145.151 405.618C145.438 405.724 145.83 405.846 146.328 405.984C146.954 406.153 147.463 406.323 147.855 406.492C148.247 406.651 148.581 406.895 148.857 407.224C149.143 407.553 149.292 407.982 149.302 408.512C149.302 408.989 149.17 409.419 148.905 409.8C148.64 410.182 148.263 410.484 147.776 410.707C147.298 410.919 146.747 411.025 146.122 411.025ZM153.429 403.359V408.496C153.429 408.92 153.519 409.223 153.699 409.403C153.879 409.572 154.192 409.657 154.637 409.657H155.703V410.882H154.399C153.593 410.882 152.989 410.696 152.586 410.325C152.183 409.954 151.981 409.344 151.981 408.496V403.359H150.852V402.167H151.981V399.972H153.429V402.167H155.703V403.359H153.429ZM159.222 403.582C159.476 403.084 159.837 402.697 160.303 402.421C160.78 402.145 161.358 402.008 162.037 402.008V403.503H161.655C160.033 403.503 159.222 404.383 159.222 406.143V410.882H157.774V402.167H159.222V403.582ZM163.485 406.492C163.485 405.602 163.665 404.823 164.025 404.155C164.386 403.476 164.879 402.951 165.504 402.58C166.141 402.209 166.846 402.024 167.62 402.024C168.383 402.024 169.046 402.188 169.608 402.517C170.169 402.845 170.588 403.259 170.864 403.757V402.167H172.327V410.882H170.864V409.26C170.578 409.769 170.148 410.193 169.576 410.532C169.014 410.861 168.356 411.025 167.604 411.025C166.83 411.025 166.13 410.834 165.504 410.452C164.879 410.071 164.386 409.535 164.025 408.846C163.665 408.157 163.485 407.372 163.485 406.492ZM170.864 406.508C170.864 405.851 170.731 405.278 170.466 404.791C170.201 404.303 169.841 403.932 169.385 403.677C168.94 403.412 168.447 403.28 167.906 403.28C167.365 403.28 166.872 403.407 166.427 403.662C165.981 403.916 165.626 404.287 165.361 404.775C165.096 405.263 164.964 405.835 164.964 406.492C164.964 407.16 165.096 407.744 165.361 408.242C165.626 408.73 165.981 409.106 166.427 409.371C166.872 409.625 167.365 409.753 167.906 409.753C168.447 409.753 168.94 409.625 169.385 409.371C169.841 409.106 170.201 408.73 170.466 408.242C170.731 407.744 170.864 407.166 170.864 406.508ZM176.856 403.359V408.496C176.856 408.92 176.946 409.223 177.126 409.403C177.307 409.572 177.619 409.657 178.065 409.657H179.13V410.882H177.826C177.02 410.882 176.416 410.696 176.013 410.325C175.61 409.954 175.409 409.344 175.409 408.496V403.359H174.28V402.167H175.409V399.972H176.856V402.167H179.13V403.359H176.856ZM181.949 400.751C181.674 400.751 181.44 400.656 181.25 400.465C181.059 400.274 180.963 400.041 180.963 399.765C180.963 399.49 181.059 399.256 181.25 399.065C181.44 398.875 181.674 398.779 181.949 398.779C182.214 398.779 182.437 398.875 182.617 399.065C182.808 399.256 182.904 399.49 182.904 399.765C182.904 400.041 182.808 400.274 182.617 400.465C182.437 400.656 182.214 400.751 181.949 400.751ZM182.649 402.167V410.882H181.202V402.167H182.649ZM189.235 411.025C188.418 411.025 187.676 410.839 187.008 410.468C186.351 410.097 185.831 409.572 185.45 408.894C185.079 408.205 184.893 407.41 184.893 406.508C184.893 405.618 185.084 404.833 185.466 404.155C185.858 403.465 186.388 402.941 187.056 402.58C187.724 402.209 188.471 402.024 189.298 402.024C190.125 402.024 190.873 402.209 191.541 402.58C192.209 402.941 192.734 403.46 193.115 404.139C193.508 404.817 193.704 405.607 193.704 406.508C193.704 407.41 193.502 408.205 193.099 408.894C192.707 409.572 192.172 410.097 191.493 410.468C190.814 410.839 190.062 411.025 189.235 411.025ZM189.235 409.753C189.754 409.753 190.242 409.631 190.698 409.387C191.154 409.143 191.52 408.777 191.795 408.29C192.081 407.802 192.225 407.208 192.225 406.508C192.225 405.809 192.087 405.215 191.811 404.727C191.535 404.239 191.175 403.879 190.73 403.646C190.284 403.402 189.802 403.28 189.282 403.28C188.752 403.28 188.265 403.402 187.819 403.646C187.385 403.879 187.035 404.239 186.77 404.727C186.505 405.215 186.372 405.809 186.372 406.508C186.372 407.219 186.499 407.818 186.754 408.305C187.019 408.793 187.369 409.159 187.803 409.403C188.238 409.636 188.715 409.753 189.235 409.753ZM200.171 402.008C201.231 402.008 202.09 402.331 202.747 402.978C203.405 403.614 203.733 404.536 203.733 405.745V410.882H202.302V405.952C202.302 405.082 202.085 404.42 201.65 403.964C201.215 403.497 200.621 403.264 199.869 403.264C199.105 403.264 198.496 403.503 198.04 403.98C197.594 404.457 197.372 405.151 197.372 406.063V410.882H195.925V402.167H197.372V403.407C197.658 402.962 198.045 402.617 198.533 402.373C199.031 402.13 199.577 402.008 200.171 402.008ZM107.024 427.492C107.024 426.602 107.204 425.823 107.565 425.155C107.925 424.476 108.418 423.951 109.044 423.58C109.68 423.209 110.385 423.024 111.159 423.024C111.923 423.024 112.585 423.188 113.147 423.517C113.709 423.845 114.128 424.259 114.403 424.757V423.167H115.867V431.882H114.403V430.26C114.117 430.769 113.688 431.193 113.115 431.532C112.553 431.861 111.896 432.025 111.143 432.025C110.369 432.025 109.669 431.834 109.044 431.452C108.418 431.071 107.925 430.535 107.565 429.846C107.204 429.157 107.024 428.372 107.024 427.492ZM114.403 427.508C114.403 426.851 114.271 426.278 114.006 425.791C113.741 425.303 113.38 424.932 112.924 424.677C112.479 424.412 111.986 424.28 111.445 424.28C110.905 424.28 110.412 424.407 109.966 424.662C109.521 424.916 109.166 425.287 108.901 425.775C108.636 426.263 108.503 426.835 108.503 427.492C108.503 428.16 108.636 428.744 108.901 429.242C109.166 429.73 109.521 430.106 109.966 430.371C110.412 430.625 110.905 430.753 111.445 430.753C111.986 430.753 112.479 430.625 112.924 430.371C113.38 430.106 113.741 429.73 114.006 429.242C114.271 428.744 114.403 428.166 114.403 427.508ZM122.877 423.008C123.937 423.008 124.796 423.331 125.453 423.978C126.11 424.614 126.439 425.536 126.439 426.745V431.882H125.008V426.952C125.008 426.082 124.79 425.42 124.356 424.964C123.921 424.497 123.327 424.264 122.574 424.264C121.811 424.264 121.201 424.503 120.746 424.98C120.3 425.457 120.078 426.151 120.078 427.063V431.882H118.63V423.167H120.078V424.407C120.364 423.962 120.751 423.617 121.239 423.373C121.737 423.13 122.283 423.008 122.877 423.008ZM128.58 427.492C128.58 426.602 128.761 425.823 129.121 425.155C129.482 424.476 129.975 423.951 130.6 423.58C131.236 423.209 131.947 423.024 132.731 423.024C133.41 423.024 134.041 423.183 134.624 423.501C135.207 423.808 135.652 424.216 135.96 424.725V420.113H137.423V431.882H135.96V430.244C135.673 430.763 135.249 431.193 134.687 431.532C134.126 431.861 133.468 432.025 132.715 432.025C131.941 432.025 131.236 431.834 130.6 431.452C129.975 431.071 129.482 430.535 129.121 429.846C128.761 429.157 128.58 428.372 128.58 427.492ZM135.96 427.508C135.96 426.851 135.827 426.278 135.562 425.791C135.297 425.303 134.937 424.932 134.481 424.677C134.035 424.412 133.542 424.28 133.002 424.28C132.461 424.28 131.968 424.407 131.523 424.662C131.077 424.916 130.722 425.287 130.457 425.775C130.192 426.263 130.06 426.835 130.06 427.492C130.06 428.16 130.192 428.744 130.457 429.242C130.722 429.73 131.077 430.106 131.523 430.371C131.968 430.625 132.461 430.753 133.002 430.753C133.542 430.753 134.035 430.625 134.481 430.371C134.937 430.106 135.297 429.73 135.562 429.242C135.827 428.744 135.96 428.166 135.96 427.508ZM153.905 420.797L149.722 431.882H148.053L143.87 420.797H145.413L148.896 430.355L152.378 420.797H153.905ZM159.611 432.025C158.795 432.025 158.053 431.839 157.385 431.468C156.727 431.097 156.208 430.572 155.826 429.894C155.455 429.205 155.269 428.41 155.269 427.508C155.269 426.618 155.46 425.833 155.842 425.155C156.234 424.465 156.764 423.941 157.432 423.58C158.1 423.209 158.848 423.024 159.675 423.024C160.502 423.024 161.249 423.209 161.917 423.58C162.585 423.941 163.11 424.46 163.492 425.139C163.884 425.817 164.08 426.607 164.08 427.508C164.08 428.41 163.879 429.205 163.476 429.894C163.083 430.572 162.548 431.097 161.869 431.468C161.191 431.839 160.438 432.025 159.611 432.025ZM159.611 430.753C160.131 430.753 160.618 430.631 161.074 430.387C161.53 430.143 161.896 429.777 162.172 429.29C162.458 428.802 162.601 428.208 162.601 427.508C162.601 426.809 162.463 426.215 162.187 425.727C161.912 425.239 161.551 424.879 161.106 424.646C160.661 424.402 160.178 424.28 159.659 424.28C159.129 424.28 158.641 424.402 158.196 424.646C157.761 424.879 157.411 425.239 157.146 425.727C156.881 426.215 156.748 426.809 156.748 427.508C156.748 428.219 156.876 428.818 157.13 429.305C157.395 429.793 157.745 430.159 158.18 430.403C158.614 430.636 159.092 430.753 159.611 430.753ZM168.066 424.359V429.496C168.066 429.92 168.156 430.223 168.337 430.403C168.517 430.572 168.83 430.657 169.275 430.657H170.34V431.882H169.036C168.231 431.882 167.626 431.696 167.223 431.325C166.82 430.954 166.619 430.344 166.619 429.496V424.359H165.49V423.167H166.619V420.972H168.066V423.167H170.34V424.359H168.066ZM173.159 421.751C172.884 421.751 172.651 421.656 172.46 421.465C172.269 421.274 172.173 421.041 172.173 420.765C172.173 420.49 172.269 420.256 172.46 420.065C172.651 419.875 172.884 419.779 173.159 419.779C173.425 419.779 173.647 419.875 173.827 420.065C174.018 420.256 174.114 420.49 174.114 420.765C174.114 421.041 174.018 421.274 173.827 421.465C173.647 421.656 173.425 421.751 173.159 421.751ZM173.859 423.167V431.882H172.412V423.167H173.859ZM180.89 423.008C181.95 423.008 182.809 423.331 183.467 423.978C184.124 424.614 184.453 425.536 184.453 426.745V431.882H183.021V426.952C183.021 426.082 182.804 425.42 182.369 424.964C181.934 424.497 181.341 424.264 180.588 424.264C179.825 424.264 179.215 424.503 178.759 424.98C178.314 425.457 178.091 426.151 178.091 427.063V431.882H176.644V423.167H178.091V424.407C178.377 423.962 178.764 423.617 179.252 423.373C179.75 423.13 180.296 423.008 180.89 423.008ZM190.729 423.024C191.482 423.024 192.139 423.188 192.701 423.517C193.274 423.845 193.698 424.259 193.973 424.757V423.167H195.436V432.073C195.436 432.868 195.267 433.573 194.927 434.188C194.588 434.813 194.1 435.301 193.464 435.651C192.839 436.001 192.107 436.176 191.27 436.176C190.125 436.176 189.17 435.905 188.407 435.365C187.644 434.824 187.193 434.087 187.055 433.154H188.487C188.646 433.684 188.974 434.108 189.473 434.426C189.971 434.755 190.57 434.919 191.27 434.919C192.065 434.919 192.712 434.67 193.21 434.172C193.719 433.674 193.973 432.974 193.973 432.073V430.244C193.687 430.753 193.263 431.177 192.701 431.516C192.139 431.855 191.482 432.025 190.729 432.025C189.955 432.025 189.25 431.834 188.614 431.452C187.988 431.071 187.495 430.535 187.135 429.846C186.774 429.157 186.594 428.372 186.594 427.492C186.594 426.602 186.774 425.823 187.135 425.155C187.495 424.476 187.988 423.951 188.614 423.58C189.25 423.209 189.955 423.024 190.729 423.024ZM193.973 427.508C193.973 426.851 193.841 426.278 193.576 425.791C193.311 425.303 192.95 424.932 192.494 424.677C192.049 424.412 191.556 424.28 191.015 424.28C190.474 424.28 189.981 424.407 189.536 424.662C189.091 424.916 188.736 425.287 188.471 425.775C188.206 426.263 188.073 426.835 188.073 427.492C188.073 428.16 188.206 428.744 188.471 429.242C188.736 429.73 189.091 430.106 189.536 430.371C189.981 430.625 190.474 430.753 191.015 430.753C191.556 430.753 192.049 430.625 192.494 430.371C192.95 430.106 193.311 429.73 193.576 429.242C193.841 428.744 193.973 428.166 193.973 427.508Z" fill="white"/>
<rect x="240.558" y="577.537" width="101.607" height="158.877" transform="rotate(90 240.558 577.537)" stroke="#EDDB0F" stroke-width="0.883536"/>
<path d="M112.427 604.661C112.12 604.014 111.675 603.516 111.091 603.166C110.508 602.805 109.83 602.625 109.056 602.625C108.282 602.625 107.582 602.805 106.957 603.166C106.342 603.516 105.854 604.025 105.493 604.692C105.143 605.35 104.969 606.113 104.969 606.983C104.969 607.852 105.143 608.615 105.493 609.273C105.854 609.93 106.342 610.439 106.957 610.799C107.582 611.149 108.282 611.324 109.056 611.324C110.137 611.324 111.028 611.001 111.728 610.354C112.427 609.707 112.836 608.833 112.952 607.73H108.531V606.553H114.495V607.666C114.41 608.578 114.124 609.416 113.636 610.179C113.148 610.932 112.507 611.531 111.712 611.976C110.917 612.411 110.031 612.628 109.056 612.628C108.027 612.628 107.089 612.39 106.241 611.913C105.393 611.425 104.719 610.752 104.221 609.893C103.733 609.034 103.49 608.064 103.49 606.983C103.49 605.901 103.733 604.931 104.221 604.072C104.719 603.203 105.393 602.53 106.241 602.052C107.089 601.565 108.027 601.321 109.056 601.321C110.233 601.321 111.272 601.612 112.173 602.196C113.085 602.779 113.747 603.6 114.161 604.661H112.427ZM120.527 612.676C119.711 612.676 118.969 612.491 118.301 612.119C117.644 611.748 117.124 611.224 116.742 610.545C116.371 609.856 116.186 609.061 116.186 608.159C116.186 607.269 116.377 606.484 116.758 605.806C117.151 605.117 117.681 604.592 118.349 604.231C119.017 603.86 119.764 603.675 120.591 603.675C121.418 603.675 122.165 603.86 122.833 604.231C123.501 604.592 124.026 605.111 124.408 605.79C124.8 606.468 124.996 607.258 124.996 608.159C124.996 609.061 124.795 609.856 124.392 610.545C124 611.224 123.464 611.748 122.786 612.119C122.107 612.491 121.354 612.676 120.527 612.676ZM120.527 611.404C121.047 611.404 121.535 611.282 121.991 611.038C122.446 610.794 122.812 610.428 123.088 609.941C123.374 609.453 123.517 608.859 123.517 608.159C123.517 607.46 123.379 606.866 123.104 606.378C122.828 605.891 122.468 605.53 122.022 605.297C121.577 605.053 121.095 604.931 120.575 604.931C120.045 604.931 119.557 605.053 119.112 605.297C118.677 605.53 118.327 605.891 118.062 606.378C117.797 606.866 117.665 607.46 117.665 608.159C117.665 608.87 117.792 609.469 118.046 609.957C118.312 610.444 118.661 610.81 119.096 611.054C119.531 611.287 120.008 611.404 120.527 611.404ZM130.462 611.197L133.165 603.818H134.708L131.289 612.533H129.603L126.184 603.818H127.742L130.462 611.197ZM144.402 607.841C144.402 608.117 144.386 608.409 144.354 608.716H137.388C137.441 609.575 137.733 610.248 138.263 610.736C138.804 611.213 139.456 611.452 140.219 611.452C140.845 611.452 141.364 611.308 141.778 611.022C142.202 610.725 142.499 610.333 142.668 609.845H144.227C143.994 610.683 143.527 611.367 142.827 611.897C142.128 612.416 141.258 612.676 140.219 612.676C139.392 612.676 138.65 612.491 137.993 612.119C137.346 611.748 136.837 611.224 136.466 610.545C136.095 609.856 135.909 609.061 135.909 608.159C135.909 607.258 136.09 606.468 136.45 605.79C136.811 605.111 137.314 604.592 137.961 604.231C138.618 603.86 139.371 603.675 140.219 603.675C141.046 603.675 141.778 603.855 142.414 604.215C143.05 604.576 143.538 605.074 143.877 605.71C144.227 606.336 144.402 607.046 144.402 607.841ZM142.907 607.539C142.907 606.988 142.785 606.516 142.541 606.124C142.297 605.721 141.963 605.419 141.539 605.217C141.126 605.005 140.665 604.899 140.156 604.899C139.424 604.899 138.799 605.132 138.279 605.599C137.77 606.065 137.479 606.712 137.404 607.539H142.907ZM148.078 605.233C148.332 604.735 148.692 604.348 149.159 604.072C149.636 603.797 150.214 603.659 150.892 603.659V605.154H150.511C148.889 605.154 148.078 606.034 148.078 607.794V612.533H146.63V603.818H148.078V605.233ZM157.127 603.659C158.188 603.659 159.046 603.982 159.704 604.629C160.361 605.265 160.69 606.187 160.69 607.396V612.533H159.259V607.603C159.259 606.733 159.041 606.071 158.606 605.615C158.172 605.148 157.578 604.915 156.825 604.915C156.062 604.915 155.452 605.154 154.996 605.631C154.551 606.108 154.328 606.802 154.328 607.714V612.533H152.881V603.818H154.328V605.058C154.615 604.613 155.002 604.268 155.489 604.025C155.988 603.781 156.534 603.659 157.127 603.659ZM162.831 608.144C162.831 607.253 163.011 606.474 163.372 605.806C163.732 605.127 164.225 604.602 164.851 604.231C165.487 603.86 166.192 603.675 166.966 603.675C167.73 603.675 168.392 603.839 168.954 604.168C169.516 604.496 169.935 604.91 170.211 605.408V603.818H171.674V612.533H170.211V610.911C169.924 611.42 169.495 611.844 168.922 612.183C168.36 612.512 167.703 612.676 166.95 612.676C166.176 612.676 165.477 612.485 164.851 612.104C164.225 611.722 163.732 611.186 163.372 610.497C163.011 609.808 162.831 609.024 162.831 608.144ZM170.211 608.159C170.211 607.502 170.078 606.93 169.813 606.442C169.548 605.954 169.187 605.583 168.731 605.329C168.286 605.064 167.793 604.931 167.252 604.931C166.712 604.931 166.219 605.058 165.773 605.313C165.328 605.567 164.973 605.938 164.708 606.426C164.443 606.914 164.31 607.486 164.31 608.144C164.31 608.812 164.443 609.395 164.708 609.893C164.973 610.381 165.328 610.757 165.773 611.022C166.219 611.277 166.712 611.404 167.252 611.404C167.793 611.404 168.286 611.277 168.731 611.022C169.187 610.757 169.548 610.381 169.813 609.893C170.078 609.395 170.211 608.817 170.211 608.159ZM178.684 603.659C179.744 603.659 180.603 603.982 181.26 604.629C181.917 605.265 182.246 606.187 182.246 607.396V612.533H180.815V607.603C180.815 606.733 180.597 606.071 180.163 605.615C179.728 605.148 179.134 604.915 178.382 604.915C177.618 604.915 177.009 605.154 176.553 605.631C176.107 606.108 175.885 606.802 175.885 607.714V612.533H174.437V603.818H175.885V605.058C176.171 604.613 176.558 604.268 177.046 604.025C177.544 603.781 178.09 603.659 178.684 603.659ZM184.388 608.159C184.388 607.258 184.568 606.474 184.928 605.806C185.289 605.127 185.787 604.602 186.423 604.231C187.07 603.86 187.807 603.675 188.634 603.675C189.705 603.675 190.585 603.934 191.274 604.454C191.974 604.973 192.435 605.694 192.657 606.617H191.099C190.95 606.087 190.659 605.668 190.224 605.36C189.8 605.053 189.27 604.899 188.634 604.899C187.807 604.899 187.139 605.185 186.63 605.758C186.121 606.32 185.867 607.12 185.867 608.159C185.867 609.209 186.121 610.02 186.63 610.593C187.139 611.165 187.807 611.452 188.634 611.452C189.27 611.452 189.8 611.303 190.224 611.006C190.648 610.709 190.94 610.285 191.099 609.734H192.657C192.424 610.625 191.958 611.34 191.258 611.881C190.558 612.411 189.683 612.676 188.634 612.676C187.807 612.676 187.07 612.491 186.423 612.119C185.787 611.748 185.289 611.224 184.928 610.545C184.568 609.866 184.388 609.071 184.388 608.159ZM202.858 607.841C202.858 608.117 202.842 608.409 202.811 608.716H195.845C195.898 609.575 196.189 610.248 196.72 610.736C197.26 611.213 197.912 611.452 198.676 611.452C199.301 611.452 199.821 611.308 200.234 611.022C200.658 610.725 200.955 610.333 201.125 609.845H202.683C202.45 610.683 201.984 611.367 201.284 611.897C200.584 612.416 199.715 612.676 198.676 612.676C197.849 612.676 197.107 612.491 196.449 612.119C195.802 611.748 195.294 611.224 194.922 610.545C194.551 609.856 194.366 609.061 194.366 608.159C194.366 607.258 194.546 606.468 194.907 605.79C195.267 605.111 195.771 604.592 196.417 604.231C197.075 603.86 197.827 603.675 198.676 603.675C199.503 603.675 200.234 603.855 200.87 604.215C201.507 604.576 201.994 605.074 202.334 605.71C202.683 606.336 202.858 607.046 202.858 607.841ZM201.363 607.539C201.363 606.988 201.241 606.516 200.998 606.124C200.754 605.721 200.42 605.419 199.996 605.217C199.582 605.005 199.121 604.899 198.612 604.899C197.881 604.899 197.255 605.132 196.735 605.599C196.227 606.065 195.935 606.712 195.861 607.539H201.363ZM109.867 633.533L107.227 629H105.477V633.533H104.03V622.448H107.609C108.446 622.448 109.151 622.591 109.724 622.878C110.307 623.164 110.742 623.551 111.028 624.038C111.314 624.526 111.457 625.083 111.457 625.708C111.457 626.472 111.235 627.145 110.789 627.728C110.355 628.311 109.697 628.698 108.817 628.889L111.6 633.533H109.867ZM105.477 627.839H107.609C108.393 627.839 108.982 627.649 109.374 627.267C109.766 626.875 109.962 626.355 109.962 625.708C109.962 625.051 109.766 624.542 109.374 624.182C108.992 623.821 108.404 623.641 107.609 623.641H105.477V627.839ZM121.976 628.841C121.976 629.117 121.96 629.409 121.928 629.716H114.962C115.015 630.575 115.307 631.248 115.837 631.736C116.378 632.213 117.03 632.452 117.793 632.452C118.419 632.452 118.938 632.308 119.352 632.022C119.776 631.725 120.073 631.333 120.242 630.845H121.801C121.568 631.683 121.101 632.367 120.401 632.897C119.702 633.416 118.832 633.676 117.793 633.676C116.966 633.676 116.224 633.491 115.567 633.119C114.92 632.748 114.411 632.224 114.04 631.545C113.669 630.856 113.483 630.061 113.483 629.159C113.483 628.258 113.664 627.468 114.024 626.79C114.385 626.111 114.888 625.592 115.535 625.231C116.192 624.86 116.945 624.675 117.793 624.675C118.62 624.675 119.352 624.855 119.988 625.215C120.624 625.576 121.112 626.074 121.451 626.71C121.801 627.336 121.976 628.046 121.976 628.841ZM120.481 628.539C120.481 627.988 120.359 627.516 120.115 627.124C119.871 626.721 119.537 626.419 119.113 626.217C118.7 626.005 118.239 625.899 117.73 625.899C116.998 625.899 116.373 626.132 115.853 626.599C115.344 627.065 115.053 627.712 114.978 628.539H120.481ZM135.814 624.818L133.094 633.533H131.599L129.5 626.615L127.401 633.533H125.906L123.171 624.818H124.65L126.653 632.133L128.816 624.818H130.295L132.411 632.149L134.383 624.818H135.814ZM137.028 629.144C137.028 628.253 137.208 627.474 137.568 626.806C137.929 626.127 138.422 625.602 139.047 625.231C139.683 624.86 140.389 624.675 141.163 624.675C141.926 624.675 142.589 624.839 143.15 625.168C143.712 625.496 144.131 625.91 144.407 626.408V624.818H145.87V633.533H144.407V631.911C144.121 632.42 143.691 632.844 143.119 633.183C142.557 633.512 141.899 633.676 141.147 633.676C140.373 633.676 139.673 633.485 139.047 633.104C138.422 632.722 137.929 632.186 137.568 631.497C137.208 630.808 137.028 630.024 137.028 629.144ZM144.407 629.159C144.407 628.502 144.274 627.93 144.009 627.442C143.744 626.954 143.384 626.583 142.928 626.329C142.483 626.064 141.99 625.931 141.449 625.931C140.908 625.931 140.415 626.058 139.97 626.313C139.524 626.567 139.169 626.938 138.904 627.426C138.639 627.914 138.507 628.486 138.507 629.144C138.507 629.812 138.639 630.395 138.904 630.893C139.169 631.381 139.524 631.757 139.97 632.022C140.415 632.277 140.908 632.404 141.449 632.404C141.99 632.404 142.483 632.277 142.928 632.022C143.384 631.757 143.744 631.381 144.009 630.893C144.274 630.395 144.407 629.817 144.407 629.159ZM150.081 626.233C150.335 625.735 150.696 625.348 151.162 625.072C151.64 624.797 152.217 624.659 152.896 624.659V626.154H152.514C150.892 626.154 150.081 627.034 150.081 628.794V633.533H148.634V624.818H150.081V626.233ZM154.344 629.144C154.344 628.253 154.524 627.474 154.885 626.806C155.245 626.127 155.738 625.602 156.364 625.231C157 624.86 157.71 624.675 158.495 624.675C159.173 624.675 159.804 624.834 160.387 625.152C160.97 625.459 161.416 625.867 161.723 626.376V621.764H163.186V633.533H161.723V631.895C161.437 632.414 161.013 632.844 160.451 633.183C159.889 633.512 159.232 633.676 158.479 633.676C157.705 633.676 157 633.485 156.364 633.104C155.738 632.722 155.245 632.186 154.885 631.497C154.524 630.808 154.344 630.024 154.344 629.144ZM161.723 629.159C161.723 628.502 161.591 627.93 161.326 627.442C161.061 626.954 160.7 626.583 160.244 626.329C159.799 626.064 159.306 625.931 158.765 625.931C158.224 625.931 157.731 626.058 157.286 626.313C156.841 626.567 156.486 626.938 156.221 627.426C155.955 627.914 155.823 628.486 155.823 629.144C155.823 629.812 155.955 630.395 156.221 630.893C156.486 631.381 156.841 631.757 157.286 632.022C157.731 632.277 158.224 632.404 158.765 632.404C159.306 632.404 159.799 632.277 160.244 632.022C160.7 631.757 161.061 631.381 161.326 630.893C161.591 630.395 161.723 629.817 161.723 629.159ZM107.481 643.448C108.69 643.448 109.734 643.676 110.614 644.132C111.505 644.577 112.184 645.219 112.65 646.056C113.127 646.894 113.366 647.88 113.366 649.014C113.366 650.149 113.127 651.135 112.65 651.972C112.184 652.799 111.505 653.436 110.614 653.881C109.734 654.316 108.69 654.533 107.481 654.533H104.03V643.448H107.481ZM107.481 653.34C108.913 653.34 110.005 652.964 110.757 652.211C111.51 651.448 111.887 650.382 111.887 649.014C111.887 647.636 111.505 646.56 110.742 645.786C109.989 645.012 108.902 644.625 107.481 644.625H105.477V653.34H107.481ZM116.34 644.402C116.064 644.402 115.831 644.307 115.64 644.116C115.45 643.925 115.354 643.692 115.354 643.416C115.354 643.141 115.45 642.907 115.64 642.717C115.831 642.526 116.064 642.43 116.34 642.43C116.605 642.43 116.828 642.526 117.008 642.717C117.199 642.907 117.294 643.141 117.294 643.416C117.294 643.692 117.199 643.925 117.008 644.116C116.828 644.307 116.605 644.402 116.34 644.402ZM117.04 645.818V654.533H115.593V645.818H117.04ZM122.91 654.676C122.242 654.676 121.643 654.565 121.113 654.342C120.583 654.109 120.164 653.791 119.856 653.388C119.549 652.974 119.379 652.503 119.347 651.972H120.842C120.885 652.407 121.086 652.762 121.447 653.038C121.818 653.314 122.3 653.452 122.894 653.452C123.445 653.452 123.88 653.33 124.198 653.086C124.516 652.842 124.675 652.534 124.675 652.163C124.675 651.782 124.506 651.501 124.166 651.32C123.827 651.13 123.302 650.944 122.592 650.764C121.945 650.594 121.415 650.425 121.001 650.255C120.599 650.075 120.249 649.815 119.952 649.476C119.666 649.126 119.522 648.67 119.522 648.108C119.522 647.663 119.655 647.254 119.92 646.883C120.185 646.512 120.561 646.221 121.049 646.009C121.537 645.786 122.093 645.675 122.719 645.675C123.684 645.675 124.463 645.918 125.057 646.406C125.651 646.894 125.969 647.562 126.011 648.41H124.564C124.532 647.954 124.346 647.588 124.007 647.313C123.679 647.037 123.233 646.899 122.671 646.899C122.152 646.899 121.738 647.011 121.431 647.233C121.123 647.456 120.97 647.747 120.97 648.108C120.97 648.394 121.06 648.633 121.24 648.824C121.431 649.004 121.664 649.152 121.94 649.269C122.226 649.375 122.618 649.497 123.117 649.635C123.742 649.804 124.251 649.974 124.643 650.144C125.036 650.303 125.37 650.546 125.645 650.875C125.932 651.204 126.08 651.633 126.091 652.163C126.091 652.64 125.958 653.07 125.693 653.452C125.428 653.833 125.052 654.135 124.564 654.358C124.087 654.57 123.535 654.676 122.91 654.676ZM130.217 647.011V652.147C130.217 652.572 130.307 652.874 130.487 653.054C130.668 653.224 130.98 653.308 131.426 653.308H132.491V654.533H131.187C130.381 654.533 129.777 654.347 129.374 653.976C128.971 653.605 128.77 652.996 128.77 652.147V647.011H127.641V645.818H128.77V643.623H130.217V645.818H132.491V647.011H130.217ZM136.01 647.233C136.264 646.735 136.625 646.348 137.091 646.072C137.569 645.797 138.146 645.659 138.825 645.659V647.154H138.443C136.821 647.154 136.01 648.034 136.01 649.794V654.533H134.563V645.818H136.01V647.233ZM141.561 644.402C141.285 644.402 141.052 644.307 140.861 644.116C140.671 643.925 140.575 643.692 140.575 643.416C140.575 643.141 140.671 642.907 140.861 642.717C141.052 642.526 141.285 642.43 141.561 642.43C141.826 642.43 142.049 642.526 142.229 642.717C142.42 642.907 142.515 643.141 142.515 643.416C142.515 643.692 142.42 643.925 142.229 644.116C142.049 644.307 141.826 644.402 141.561 644.402ZM142.261 645.818V654.533H140.814V645.818H142.261ZM146.493 647.44C146.79 646.92 147.224 646.496 147.797 646.168C148.369 645.839 149.021 645.675 149.753 645.675C150.538 645.675 151.243 645.86 151.868 646.231C152.494 646.602 152.987 647.127 153.347 647.806C153.708 648.474 153.888 649.253 153.888 650.144C153.888 651.024 153.708 651.808 153.347 652.497C152.987 653.186 152.488 653.722 151.852 654.104C151.227 654.485 150.527 654.676 149.753 654.676C149 654.676 148.338 654.512 147.765 654.183C147.203 653.854 146.779 653.436 146.493 652.927V654.533H145.045V642.764H146.493V647.44ZM152.409 650.144C152.409 649.486 152.276 648.914 152.011 648.426C151.746 647.938 151.386 647.567 150.93 647.313C150.485 647.058 149.992 646.931 149.451 646.931C148.921 646.931 148.428 647.064 147.972 647.329C147.526 647.583 147.166 647.959 146.89 648.458C146.625 648.945 146.493 649.513 146.493 650.159C146.493 650.817 146.625 651.395 146.89 651.893C147.166 652.381 147.526 652.757 147.972 653.022C148.428 653.277 148.921 653.404 149.451 653.404C149.992 653.404 150.485 653.277 150.93 653.022C151.386 652.757 151.746 652.381 152.011 651.893C152.276 651.395 152.409 650.812 152.409 650.144ZM163.84 645.818V654.533H162.393V653.245C162.117 653.69 161.73 654.04 161.232 654.294C160.744 654.538 160.203 654.66 159.61 654.66C158.931 654.66 158.322 654.522 157.781 654.247C157.24 653.96 156.811 653.536 156.493 652.974C156.185 652.412 156.031 651.729 156.031 650.923V645.818H157.463V650.732C157.463 651.591 157.68 652.253 158.115 652.72C158.55 653.176 159.143 653.404 159.896 653.404C160.67 653.404 161.28 653.165 161.725 652.688C162.17 652.211 162.393 651.517 162.393 650.605V645.818H163.84ZM168.367 647.011V652.147C168.367 652.572 168.457 652.874 168.637 653.054C168.818 653.224 169.13 653.308 169.576 653.308H170.641V654.533H169.337C168.531 654.533 167.927 654.347 167.524 653.976C167.121 653.605 166.92 652.996 166.92 652.147V647.011H165.791V645.818H166.92V643.623H168.367V645.818H170.641V647.011H168.367ZM173.46 644.402C173.185 644.402 172.951 644.307 172.761 644.116C172.57 643.925 172.474 643.692 172.474 643.416C172.474 643.141 172.57 642.907 172.761 642.717C172.951 642.526 173.185 642.43 173.46 642.43C173.725 642.43 173.948 642.526 174.128 642.717C174.319 642.907 174.415 643.141 174.415 643.416C174.415 643.692 174.319 643.925 174.128 644.116C173.948 644.307 173.725 644.402 173.46 644.402ZM174.16 645.818V654.533H172.713V645.818H174.16ZM180.746 654.676C179.929 654.676 179.187 654.491 178.519 654.119C177.862 653.748 177.342 653.224 176.961 652.545C176.59 651.856 176.404 651.061 176.404 650.159C176.404 649.269 176.595 648.484 176.977 647.806C177.369 647.117 177.899 646.592 178.567 646.231C179.235 645.86 179.982 645.675 180.809 645.675C181.636 645.675 182.384 645.86 183.052 646.231C183.72 646.592 184.245 647.111 184.626 647.79C185.018 648.468 185.215 649.258 185.215 650.159C185.215 651.061 185.013 651.856 184.61 652.545C184.218 653.224 183.683 653.748 183.004 654.119C182.325 654.491 181.573 654.676 180.746 654.676ZM180.746 653.404C181.265 653.404 181.753 653.282 182.209 653.038C182.665 652.794 183.031 652.428 183.306 651.941C183.592 651.453 183.736 650.859 183.736 650.159C183.736 649.46 183.598 648.866 183.322 648.378C183.046 647.891 182.686 647.53 182.241 647.297C181.795 647.053 181.313 646.931 180.793 646.931C180.263 646.931 179.776 647.053 179.33 647.297C178.896 647.53 178.546 647.891 178.281 648.378C178.016 648.866 177.883 649.46 177.883 650.159C177.883 650.87 178.01 651.469 178.265 651.957C178.53 652.444 178.88 652.81 179.314 653.054C179.749 653.287 180.226 653.404 180.746 653.404ZM191.682 645.659C192.742 645.659 193.601 645.982 194.258 646.629C194.916 647.265 195.244 648.187 195.244 649.396V654.533H193.813V649.603C193.813 648.733 193.596 648.071 193.161 647.615C192.726 647.148 192.132 646.915 191.38 646.915C190.616 646.915 190.007 647.154 189.551 647.631C189.105 648.108 188.883 648.802 188.883 649.714V654.533H187.436V645.818H188.883V647.058C189.169 646.613 189.556 646.268 190.044 646.025C190.542 645.781 191.088 645.659 191.682 645.659Z" fill="white"/>
<path d="M328.571 609.092L328.571 767.313L262.306 748.783L262.306 590.561L328.571 609.092Z" stroke="#FF005C" stroke-width="0.883536"/>
<path d="M289.93 634.216C289.93 633.485 290.057 632.827 290.311 632.244C290.576 631.672 290.937 631.221 291.393 630.892C291.859 630.564 292.395 630.394 292.999 630.384L292.999 631.926C292.48 631.979 292.04 632.191 291.679 632.562C291.329 632.944 291.154 633.495 291.154 634.216C291.154 634.905 291.324 635.446 291.663 635.839C292.013 636.241 292.458 636.443 292.999 636.443C293.423 636.443 293.768 636.326 294.033 636.093C294.298 635.86 294.499 635.568 294.637 635.218C294.775 634.868 294.923 634.397 295.082 633.803C295.273 633.071 295.464 632.483 295.655 632.038C295.846 631.603 296.143 631.226 296.546 630.908C296.959 630.601 297.51 630.447 298.2 630.447C298.804 630.447 299.339 630.601 299.806 630.908C300.272 631.216 300.633 631.645 300.887 632.197C301.142 632.759 301.269 633.4 301.269 634.121C301.269 635.16 301.009 636.008 300.49 636.665C299.97 637.333 299.281 637.71 298.422 637.795L298.422 636.204C298.846 636.151 299.217 635.929 299.535 635.536C299.864 635.144 300.029 634.625 300.029 633.978C300.029 633.373 299.869 632.88 299.551 632.499C299.244 632.117 298.809 631.926 298.247 631.926C297.844 631.926 297.516 632.038 297.261 632.26C297.007 632.493 296.811 632.774 296.673 633.103C296.546 633.442 296.397 633.914 296.228 634.519C296.026 635.25 295.825 635.839 295.623 636.284C295.432 636.729 295.13 637.111 294.717 637.429C294.314 637.747 293.762 637.906 293.063 637.906C292.522 637.906 292.013 637.763 291.536 637.477C291.059 637.19 290.672 636.766 290.375 636.204C290.078 635.642 289.93 634.98 289.93 634.216ZM297.563 642.119L292.427 642.119C292.002 642.119 291.7 642.209 291.52 642.389C291.35 642.57 291.266 642.882 291.266 643.328L291.266 644.393L290.041 644.393L290.041 643.089C290.041 642.283 290.227 641.679 290.598 641.276C290.969 640.873 291.578 640.672 292.427 640.672L297.563 640.672L297.563 639.543L298.756 639.543L298.756 640.672L300.951 640.672L300.951 642.119L298.756 642.119L298.756 644.393L297.563 644.393L297.563 642.119ZM294.43 645.924C295.321 645.924 296.1 646.104 296.768 646.465C297.447 646.825 297.972 647.318 298.343 647.944C298.714 648.58 298.899 649.285 298.899 650.059C298.899 650.822 298.735 651.485 298.406 652.047C298.078 652.609 297.664 653.028 297.166 653.303L298.756 653.303L298.756 654.767L290.041 654.767L290.041 653.303L291.663 653.303C291.154 653.017 290.73 652.588 290.391 652.015C290.062 651.453 289.898 650.796 289.898 650.043C289.898 649.269 290.089 648.569 290.47 647.944C290.852 647.318 291.388 646.825 292.077 646.465C292.766 646.104 293.55 645.924 294.43 645.924ZM294.415 653.303C295.072 653.303 295.644 653.171 296.132 652.906C296.62 652.641 296.991 652.28 297.245 651.824C297.51 651.379 297.643 650.886 297.643 650.345C297.643 649.805 297.516 649.312 297.261 648.866C297.007 648.421 296.636 648.066 296.148 647.801C295.66 647.536 295.088 647.403 294.43 647.403C293.762 647.403 293.179 647.536 292.681 647.801C292.193 648.066 291.817 648.421 291.552 648.866C291.297 649.312 291.17 649.805 291.17 650.345C291.17 650.886 291.297 651.379 291.552 651.824C291.817 652.28 292.193 652.641 292.681 652.906C293.179 653.171 293.757 653.303 294.415 653.303ZM290.041 662.397L293.89 658.978L290.041 658.978L290.041 657.53L301.81 657.53L301.81 658.978L294.892 658.978L298.756 662.333L298.756 664.353L294.415 660.25L290.041 664.369L290.041 662.397ZM300.172 666.781C300.172 666.505 300.267 666.272 300.458 666.081C300.649 665.89 300.882 665.795 301.158 665.795C301.433 665.795 301.667 665.89 301.857 666.081C302.048 666.272 302.144 666.505 302.144 666.781C302.144 667.046 302.048 667.268 301.857 667.449C301.667 667.639 301.433 667.735 301.158 667.735C300.882 667.735 300.649 667.639 300.458 667.449C300.267 667.268 300.172 667.046 300.172 666.781ZM298.756 667.48L290.041 667.48L290.041 666.033L298.756 666.033L298.756 667.48ZM298.915 674.511C298.915 675.572 298.592 676.43 297.945 677.088C297.309 677.745 296.387 678.074 295.178 678.074L290.041 678.074L290.041 676.642L294.971 676.642C295.841 676.642 296.503 676.425 296.959 675.99C297.426 675.556 297.659 674.962 297.659 674.209C297.659 673.446 297.42 672.836 296.943 672.38C296.466 671.935 295.772 671.712 294.86 671.712L290.041 671.712L290.041 670.265L298.756 670.265L298.756 671.712L297.516 671.712C297.961 671.999 298.306 672.386 298.549 672.873C298.793 673.372 298.915 673.918 298.915 674.511ZM298.899 684.35C298.899 685.103 298.735 685.76 298.406 686.322C298.078 686.895 297.664 687.319 297.166 687.594L298.756 687.594L298.756 689.058L289.85 689.058C289.055 689.058 288.35 688.888 287.735 688.549C287.109 688.209 286.622 687.722 286.272 687.086C285.922 686.46 285.747 685.728 285.747 684.891C285.747 683.746 286.017 682.792 286.558 682.028C287.099 681.265 287.836 680.814 288.769 680.676L288.769 682.108C288.239 682.267 287.815 682.595 287.496 683.094C287.168 683.592 287.003 684.191 287.003 684.891C287.003 685.686 287.253 686.333 287.751 686.831C288.249 687.34 288.949 687.594 289.85 687.594L291.679 687.594C291.17 687.308 290.746 686.884 290.407 686.322C290.068 685.76 289.898 685.103 289.898 684.35C289.898 683.576 290.089 682.871 290.47 682.235C290.852 681.609 291.388 681.116 292.077 680.756C292.766 680.395 293.55 680.215 294.43 680.215C295.321 680.215 296.1 680.395 296.768 680.756C297.447 681.116 297.972 681.609 298.343 682.235C298.714 682.871 298.899 683.576 298.899 684.35ZM294.415 687.594C295.072 687.594 295.644 687.462 296.132 687.197C296.62 686.932 296.991 686.571 297.245 686.115C297.51 685.67 297.643 685.177 297.643 684.636C297.643 684.096 297.516 683.603 297.261 683.157C297.007 682.712 296.636 682.357 296.148 682.092C295.66 681.827 295.088 681.694 294.43 681.694C293.762 681.694 293.179 681.827 292.681 682.092C292.193 682.357 291.817 682.712 291.552 683.157C291.297 683.603 291.17 684.096 291.17 684.636C291.17 685.177 291.297 685.67 291.552 686.115C291.817 686.571 292.193 686.932 292.681 687.197C293.179 687.462 293.757 687.594 294.415 687.594ZM297.882 703.79C296.959 703.79 296.19 703.472 295.575 702.836C294.971 702.211 294.669 701.251 294.669 699.958L294.669 697.827L290.041 697.827L290.041 696.379L301.126 696.379L301.126 699.958C301.126 701.209 300.824 702.158 300.219 702.804C299.615 703.462 298.836 703.79 297.882 703.79ZM295.862 699.958C295.862 700.763 296.037 701.357 296.387 701.739C296.736 702.121 297.235 702.311 297.882 702.311C299.249 702.311 299.933 701.527 299.933 699.958L299.933 697.827L295.862 697.827L295.862 699.958ZM289.898 709.708C289.898 708.892 290.083 708.15 290.455 707.482C290.826 706.824 291.35 706.305 292.029 705.923C292.718 705.552 293.513 705.367 294.415 705.367C295.305 705.367 296.09 705.557 296.768 705.939C297.457 706.331 297.982 706.861 298.343 707.529C298.714 708.197 298.899 708.945 298.899 709.772C298.899 710.599 298.714 711.346 298.343 712.014C297.982 712.682 297.463 713.207 296.784 713.589C296.106 713.981 295.316 714.177 294.415 714.177C293.513 714.177 292.718 713.976 292.029 713.573C291.35 713.181 290.826 712.645 290.455 711.967C290.083 711.288 289.898 710.535 289.898 709.708ZM291.17 709.708C291.17 710.228 291.292 710.715 291.536 711.171C291.78 711.627 292.146 711.993 292.633 712.269C293.121 712.555 293.715 712.698 294.415 712.698C295.114 712.698 295.708 712.56 296.196 712.285C296.683 712.009 297.044 711.648 297.277 711.203C297.521 710.758 297.643 710.275 297.643 709.756C297.643 709.226 297.521 708.738 297.277 708.293C297.044 707.858 296.683 707.508 296.196 707.243C295.708 706.978 295.114 706.846 294.415 706.846C293.704 706.846 293.105 706.973 292.617 707.227C292.13 707.492 291.764 707.842 291.52 708.277C291.287 708.712 291.17 709.189 291.17 709.708ZM289.898 720.199C289.898 719.383 290.083 718.64 290.455 717.973C290.826 717.315 291.35 716.796 292.029 716.414C292.718 716.043 293.513 715.857 294.415 715.857C295.305 715.857 296.09 716.048 296.768 716.43C297.457 716.822 297.982 717.352 298.343 718.02C298.714 718.688 298.899 719.436 298.899 720.263C298.899 721.09 298.714 721.837 298.343 722.505C297.982 723.173 297.463 723.698 296.784 724.08C296.106 724.472 295.316 724.668 294.415 724.668C293.513 724.668 292.718 724.466 292.029 724.064C291.35 723.671 290.826 723.136 290.455 722.457C290.083 721.779 289.898 721.026 289.898 720.199ZM291.17 720.199C291.17 720.719 291.292 721.206 291.536 721.662C291.78 722.118 292.146 722.484 292.633 722.76C293.121 723.046 293.715 723.189 294.415 723.189C295.114 723.189 295.708 723.051 296.196 722.775C296.683 722.5 297.044 722.139 297.277 721.694C297.521 721.249 297.643 720.766 297.643 720.247C297.643 719.717 297.521 719.229 297.277 718.784C297.044 718.349 296.683 717.999 296.196 717.734C295.708 717.469 295.114 717.336 294.415 717.336C293.704 717.336 293.105 717.464 292.617 717.718C292.13 717.983 291.764 718.333 291.52 718.768C291.287 719.202 291.17 719.68 291.17 720.199ZM301.81 728.336L290.041 728.336L290.041 726.889L301.81 726.889L301.81 728.336Z" fill="white"/>
<path d="M67.0446 609.092L67.0446 767.313L0.779382 748.783L0.779396 590.561L67.0446 609.092Z" stroke="#FF005C" stroke-width="0.883536"/>
<path d="M36.3547 648.976C35.4322 648.976 34.6636 648.658 34.0486 648.022C33.4443 647.397 33.1421 646.437 33.1421 645.144L33.1421 643.013L28.5142 643.013L28.5142 641.565L39.599 641.565L39.599 645.144C39.599 646.395 39.2968 647.344 38.6925 647.99C38.0882 648.648 37.3089 648.976 36.3547 648.976ZM34.3349 645.144C34.3349 645.95 34.5098 646.543 34.8597 646.925C35.2096 647.307 35.7079 647.497 36.3547 647.497C37.7224 647.497 38.4062 646.713 38.4062 645.144L38.4062 643.013L34.3349 643.013L34.3349 645.144ZM35.8139 652.541C36.3122 652.795 36.6992 653.155 36.9749 653.622C37.2506 654.099 37.3884 654.677 37.3884 655.355L35.8935 655.355L35.8935 654.974C35.8935 653.352 35.0134 652.541 33.2534 652.541L28.5142 652.541L28.5142 651.093L37.2294 651.093L37.2294 652.541L35.8139 652.541ZM38.6448 658.092C38.6448 657.816 38.7402 657.583 38.931 657.392C39.1219 657.201 39.3551 657.106 39.6308 657.106C39.9065 657.106 40.1397 657.201 40.3306 657.392C40.5214 657.583 40.6168 657.816 40.6168 658.092C40.6168 658.357 40.5214 658.579 40.3306 658.76C40.1397 658.95 39.9065 659.046 39.6308 659.046C39.3551 659.046 39.1219 658.95 38.931 658.76C38.7402 658.579 38.6448 658.357 38.6448 658.092ZM37.2294 658.791L28.5142 658.791L28.5142 657.344L37.2294 657.344L37.2294 658.791ZM29.7069 662.657L29.7069 666.936L28.5142 666.936L28.5142 661.004L29.7069 661.004L36.0525 665.234L36.0525 661.035L37.2294 661.035L37.2294 666.904L36.0525 666.904L29.7069 662.657ZM33.2057 677.083C32.9301 677.083 32.6385 677.067 32.331 677.036L32.331 670.07C31.4722 670.123 30.799 670.414 30.3113 670.945C29.8342 671.485 29.5956 672.137 29.5956 672.901C29.5956 673.526 29.7387 674.046 30.025 674.459C30.3219 674.883 30.7142 675.18 31.2019 675.35L31.2019 676.908C30.3643 676.675 29.6804 676.209 29.1503 675.509C28.6308 674.809 28.371 673.94 28.371 672.901C28.371 672.074 28.5566 671.332 28.9277 670.674C29.2987 670.027 29.8236 669.518 30.5021 669.147C31.1913 668.776 31.9865 668.591 32.8877 668.591C33.7889 668.591 34.5787 668.771 35.2573 669.132C35.9359 669.492 36.4554 669.996 36.8159 670.642C37.1869 671.3 37.3725 672.052 37.3725 672.901C37.3725 673.728 37.1922 674.459 36.8318 675.095C36.4713 675.732 35.973 676.219 35.3368 676.559C34.7113 676.908 34.0009 677.083 33.2057 677.083ZM33.5079 675.588C34.0592 675.588 34.531 675.466 34.9233 675.223C35.3262 674.979 35.6284 674.645 35.8298 674.221C36.0419 673.807 36.1479 673.346 36.1479 672.837C36.1479 672.105 35.9147 671.48 35.4481 670.96C34.9816 670.452 34.3349 670.16 33.5079 670.086L33.5079 675.588ZM36.3547 691.281C35.4322 691.281 34.6636 690.963 34.0486 690.327C33.4443 689.701 33.1421 688.742 33.1421 687.448L33.1421 685.317L28.5142 685.317L28.5142 683.87L39.599 683.87L39.599 687.448C39.599 688.699 39.2968 689.648 38.6925 690.295C38.0882 690.952 37.3089 691.281 36.3547 691.281ZM34.3349 687.448C34.3349 688.254 34.5098 688.848 34.8597 689.229C35.2096 689.611 35.7079 689.802 36.3547 689.802C37.7224 689.802 38.4062 689.017 38.4062 687.448L38.4062 685.317L34.3349 685.317L34.3349 687.448ZM28.371 697.199C28.371 696.382 28.5566 695.64 28.9277 694.972C29.2987 694.315 29.8236 693.795 30.5021 693.414C31.1913 693.042 31.9865 692.857 32.8877 692.857C33.7783 692.857 34.5628 693.048 35.2414 693.429C35.9306 693.822 36.4554 694.352 36.8159 695.02C37.1869 695.688 37.3725 696.435 37.3725 697.262C37.3725 698.089 37.1869 698.837 36.8159 699.505C36.4554 700.173 35.9359 700.697 35.2573 701.079C34.5787 701.471 33.7889 701.668 32.8877 701.668C31.9865 701.668 31.1913 701.466 30.5021 701.063C29.8236 700.671 29.2987 700.135 28.9277 699.457C28.5566 698.778 28.371 698.026 28.371 697.199ZM29.6433 697.199C29.6433 697.718 29.7652 698.206 30.0091 698.662C30.253 699.118 30.6187 699.483 31.1065 699.759C31.5942 700.045 32.1879 700.188 32.8877 700.188C33.5874 700.188 34.1812 700.051 34.6689 699.775C35.1566 699.499 35.5171 699.139 35.7503 698.694C35.9942 698.248 36.1161 697.766 36.1161 697.246C36.1161 696.716 35.9942 696.228 35.7503 695.783C35.5171 695.348 35.1566 694.999 34.6689 694.734C34.1812 694.468 33.5874 694.336 32.8877 694.336C32.1773 694.336 31.5783 694.463 31.0905 694.718C30.6028 694.983 30.2371 695.333 29.9932 695.767C29.7599 696.202 29.6433 696.679 29.6433 697.199ZM28.371 707.689C28.371 706.873 28.5566 706.131 28.9277 705.463C29.2987 704.806 29.8236 704.286 30.5021 703.904C31.1913 703.533 31.9865 703.348 32.8877 703.348C33.7783 703.348 34.5628 703.539 35.2414 703.92C35.9306 704.313 36.4554 704.843 36.8159 705.511C37.1869 706.179 37.3725 706.926 37.3725 707.753C37.3725 708.58 37.1869 709.327 36.8159 709.995C36.4554 710.663 35.9359 711.188 35.2573 711.57C34.5787 711.962 33.7889 712.158 32.8877 712.158C31.9865 712.158 31.1913 711.957 30.5021 711.554C29.8236 711.162 29.2987 710.626 28.9277 709.948C28.5566 709.269 28.371 708.516 28.371 707.689ZM29.6433 707.689C29.6433 708.209 29.7652 708.697 30.0091 709.153C30.253 709.608 30.6187 709.974 31.1065 710.25C31.5942 710.536 32.1879 710.679 32.8877 710.679C33.5874 710.679 34.1812 710.541 34.6689 710.266C35.1566 709.99 35.5171 709.63 35.7503 709.184C35.9942 708.739 36.1161 708.257 36.1161 707.737C36.1161 707.207 35.9942 706.719 35.7503 706.274C35.5171 705.839 35.1566 705.489 34.6689 705.224C34.1812 704.959 33.5874 704.827 32.8877 704.827C32.1773 704.827 31.5783 704.954 31.0905 705.208C30.6028 705.473 30.2371 705.823 29.9932 706.258C29.7599 706.693 29.6433 707.17 29.6433 707.689ZM40.2829 715.826L28.5142 715.826L28.5142 714.379L40.2829 714.379L40.2829 715.826Z" fill="white"/>
</svg>
