<svg width="902" height="376" viewBox="0 0 902 376" fill="none" xmlns="http://www.w3.org/2000/svg">
<path d="M811.496 170.549H901.04V43.0895H856.672" stroke="white"/>
<path d="M811.496 211.63H901.04V339.089H856.672" stroke="white"/>
<path d="M69.8833 33.9174H101.586C108.213 33.9174 113.586 39.2899 113.586 45.9174V327.602C113.586 334.229 108.213 339.602 101.586 339.602H69.8833" stroke="white"/>
<path d="M67.8079 237.431H112.905" stroke="white"/>
<path d="M67.8079 135.674H112.905" stroke="white"/>
<path d="M113.483 193.491H148.751" stroke="white"/>
<path d="M312.138 193.491H365.95" stroke="white"/>
<path d="M553.979 193.491H607.792" stroke="white"/>
<path d="M679.053 334.439H158.952C154.601 334.439 151.074 330.912 151.074 326.561V326.561V288.647C151.074 283.124 146.596 278.647 141.074 278.647H115.843" stroke="#00F2F8"/>
<path d="M677.342 36.8058H241.892C235.817 36.8058 230.892 41.7307 230.892 47.8058V114.635" stroke="#00F2F8"/>
<path d="M137.991 193.631L129.405 198.588L129.405 188.675L137.991 193.631Z" fill="white"/>
<path d="M345.14 193.631L336.555 198.588L336.555 188.675L345.14 193.631Z" fill="white"/>
<path d="M587.452 193.631L578.866 198.588L578.866 188.675L587.452 193.631Z" fill="white"/>
<path d="M860.339 170.7L851.753 175.657L851.753 165.743L860.339 170.7Z" fill="white"/>
<path d="M860.339 211.212L851.753 216.169L851.753 206.256L860.339 211.212Z" fill="white"/>
<path d="M394.844 334.279L403.43 329.322L403.43 339.236L394.844 334.279Z" fill="#00F2F8"/>
<path d="M486.571 36.9316L495.156 31.9748L495.156 41.8885L486.571 36.9316Z" fill="#00F2F8"/>
<circle cx="34.9595" cy="34.2037" r="33.5" stroke="#EDDB0F"/>
<path d="M45.5016 42.9621C46.9101 41.2674 47.8897 39.2584 48.3576 37.1051C48.8255 34.9518 48.7678 32.7174 48.1895 30.5911C47.6113 28.4647 46.5294 26.5089 45.0354 24.8891C43.5414 23.2693 41.6792 22.0332 39.6064 21.2853C37.5337 20.5374 35.3112 20.2997 33.1272 20.5924C30.9431 20.885 28.8617 21.6994 27.0589 22.9666C25.2562 24.2339 23.7851 25.9166 22.7703 27.8726C21.7554 29.8286 21.2266 32.0002 21.2285 34.2038C21.2293 37.4072 22.3581 40.508 24.417 42.9621L24.3974 42.9787C24.466 43.0611 24.5445 43.1318 24.6151 43.2132C24.7034 43.3142 24.7985 43.4093 24.8897 43.5074C25.1643 43.8055 25.4468 44.0919 25.743 44.3607C25.8332 44.443 25.9264 44.5195 26.0176 44.598C26.3315 44.8687 26.6541 45.1257 26.9886 45.365C27.0317 45.3944 27.071 45.4326 27.1141 45.463V45.4513C29.4112 47.0677 32.1514 47.9353 34.9603 47.9353C37.7691 47.9353 40.5094 47.0677 42.8064 45.4513V45.463C42.8496 45.4326 42.8878 45.3944 42.932 45.365C43.2654 45.1247 43.5891 44.8687 43.9029 44.598C43.9941 44.5195 44.0873 44.4421 44.1775 44.3607C44.4737 44.0909 44.7562 43.8055 45.0308 43.5074C45.122 43.4093 45.2162 43.3142 45.3054 43.2132C45.3751 43.1318 45.4545 43.0611 45.5232 42.9778L45.5016 42.9621ZM34.9593 26.3577C35.8322 26.3577 36.6855 26.6165 37.4113 27.1015C38.1371 27.5864 38.7028 28.2757 39.0368 29.0822C39.3708 29.8886 39.4582 30.776 39.2879 31.6321C39.1177 32.4883 38.6973 33.2747 38.0801 33.8919C37.4628 34.5091 36.6764 34.9295 35.8203 35.0998C34.9642 35.2701 34.0768 35.1827 33.2703 34.8486C32.4639 34.5146 31.7746 33.9489 31.2896 33.2231C30.8047 32.4973 30.5458 31.644 30.5458 30.7711C30.5458 29.6006 31.0108 28.478 31.8385 27.6503C32.6662 26.8226 33.7888 26.3577 34.9593 26.3577V26.3577ZM27.12 42.9621C27.137 41.6743 27.6604 40.445 28.5768 39.5401C29.4932 38.6352 30.7291 38.1275 32.017 38.1269H37.9016C39.1895 38.1275 40.4253 38.6352 41.3418 39.5401C42.2582 40.445 42.7816 41.6743 42.7986 42.9621C40.6476 44.9004 37.8548 45.9731 34.9593 45.9731C32.0638 45.9731 29.271 44.9004 27.12 42.9621V42.9621Z" fill="#FF005C"/>
<circle cx="34.9595" cy="135.204" r="33.5" stroke="#EDDB0F"/>
<path d="M45.5016 143.962C46.9101 142.267 47.8897 140.258 48.3576 138.105C48.8255 135.952 48.7678 133.717 48.1895 131.591C47.6113 129.465 46.5294 127.509 45.0354 125.889C43.5414 124.269 41.6792 123.033 39.6064 122.285C37.5337 121.537 35.3112 121.3 33.1272 121.592C30.9431 121.885 28.8617 122.699 27.0589 123.967C25.2562 125.234 23.7851 126.917 22.7703 128.873C21.7554 130.829 21.2266 133 21.2285 135.204C21.2293 138.407 22.3581 141.508 24.417 143.962L24.3974 143.979C24.466 144.061 24.5445 144.132 24.6151 144.213C24.7034 144.314 24.7985 144.409 24.8897 144.507C25.1643 144.806 25.4468 145.092 25.743 145.361C25.8332 145.443 25.9264 145.52 26.0176 145.598C26.3315 145.869 26.6541 146.126 26.9886 146.365C27.0317 146.394 27.071 146.433 27.1141 146.463V146.451C29.4112 148.068 32.1514 148.935 34.9603 148.935C37.7691 148.935 40.5094 148.068 42.8064 146.451V146.463C42.8496 146.433 42.8878 146.394 42.932 146.365C43.2654 146.125 43.5891 145.869 43.9029 145.598C43.9941 145.52 44.0873 145.442 44.1775 145.361C44.4737 145.091 44.7562 144.806 45.0308 144.507C45.122 144.409 45.2162 144.314 45.3054 144.213C45.3751 144.132 45.4545 144.061 45.5232 143.978L45.5016 143.962ZM34.9593 127.358C35.8322 127.358 36.6855 127.616 37.4113 128.101C38.1371 128.586 38.7028 129.276 39.0368 130.082C39.3708 130.889 39.4582 131.776 39.2879 132.632C39.1177 133.488 38.6973 134.275 38.0801 134.892C37.4628 135.509 36.6764 135.929 35.8203 136.1C34.9642 136.27 34.0768 136.183 33.2703 135.849C32.4639 135.515 31.7746 134.949 31.2896 134.223C30.8047 133.497 30.5458 132.644 30.5458 131.771C30.5458 130.601 31.0108 129.478 31.8385 128.65C32.6662 127.823 33.7888 127.358 34.9593 127.358ZM27.12 143.962C27.137 142.674 27.6604 141.445 28.5768 140.54C29.4932 139.635 30.7291 139.128 32.017 139.127H37.9016C39.1895 139.128 40.4253 139.635 41.3418 140.54C42.2582 141.445 42.7816 142.674 42.7986 143.962C40.6476 145.9 37.8548 146.973 34.9593 146.973C32.0638 146.973 29.271 145.9 27.12 143.962Z" fill="#FF005C"/>
<circle cx="34.9595" cy="236.204" r="33.5" stroke="#EDDB0F"/>
<path d="M45.5016 244.962C46.9101 243.267 47.8897 241.258 48.3576 239.105C48.8255 236.952 48.7678 234.717 48.1895 232.591C47.6113 230.465 46.5294 228.509 45.0354 226.889C43.5414 225.269 41.6792 224.033 39.6064 223.285C37.5337 222.537 35.3112 222.3 33.1272 222.592C30.9431 222.885 28.8617 223.699 27.0589 224.967C25.2562 226.234 23.7851 227.917 22.7703 229.872C21.7554 231.828 21.2266 234 21.2285 236.204C21.2293 239.407 22.3581 242.508 24.417 244.962L24.3974 244.979C24.466 245.061 24.5445 245.132 24.6151 245.213C24.7034 245.314 24.7985 245.409 24.8897 245.507C25.1643 245.805 25.4468 246.092 25.743 246.361C25.8332 246.443 25.9264 246.519 26.0176 246.598C26.3315 246.869 26.6541 247.126 26.9886 247.365C27.0317 247.394 27.071 247.433 27.1141 247.463V247.451C29.4112 249.068 32.1514 249.935 34.9603 249.935C37.7691 249.935 40.5094 249.068 42.8064 247.451V247.463C42.8496 247.433 42.8878 247.394 42.932 247.365C43.2654 247.125 43.5891 246.869 43.9029 246.598C43.9941 246.519 44.0873 246.442 44.1775 246.361C44.4737 246.091 44.7562 245.805 45.0308 245.507C45.122 245.409 45.2162 245.314 45.3054 245.213C45.3751 245.132 45.4545 245.061 45.5232 244.978L45.5016 244.962ZM34.9593 228.358C35.8322 228.358 36.6855 228.616 37.4113 229.101C38.1371 229.586 38.7028 230.276 39.0368 231.082C39.3708 231.888 39.4582 232.776 39.2879 233.632C39.1177 234.488 38.6973 235.275 38.0801 235.892C37.4628 236.509 36.6764 236.929 35.8203 237.1C34.9642 237.27 34.0768 237.183 33.2703 236.848C32.4639 236.514 31.7746 235.949 31.2896 235.223C30.8047 234.497 30.5458 233.644 30.5458 232.771C30.5458 231.6 31.0108 230.478 31.8385 229.65C32.6662 228.823 33.7888 228.358 34.9593 228.358ZM27.12 244.962C27.137 243.674 27.6604 242.445 28.5768 241.54C29.4932 240.635 30.7291 240.127 32.017 240.127H37.9016C39.1895 240.127 40.4253 240.635 41.3418 241.54C42.2582 242.445 42.7816 243.674 42.7986 244.962C40.6476 246.9 37.8548 247.973 34.9593 247.973C32.0638 247.973 29.271 246.9 27.12 244.962Z" fill="#FF005C"/>
<circle cx="34.9595" cy="337.204" r="33.5" stroke="#EDDB0F"/>
<path d="M45.5016 345.962C46.9101 344.267 47.8897 342.258 48.3576 340.105C48.8255 337.952 48.7678 335.717 48.1895 333.591C47.6113 331.465 46.5294 329.509 45.0354 327.889C43.5414 326.269 41.6792 325.033 39.6064 324.285C37.5337 323.537 35.3112 323.3 33.1272 323.592C30.9431 323.885 28.8617 324.699 27.0589 325.967C25.2562 327.234 23.7851 328.917 22.7703 330.872C21.7554 332.828 21.2266 335 21.2285 337.204C21.2293 340.407 22.3581 343.508 24.417 345.962L24.3974 345.979C24.466 346.061 24.5445 346.132 24.6151 346.213C24.7034 346.314 24.7985 346.409 24.8897 346.507C25.1643 346.805 25.4468 347.092 25.743 347.361C25.8332 347.443 25.9264 347.519 26.0176 347.598C26.3315 347.869 26.6541 348.126 26.9886 348.365C27.0317 348.394 27.071 348.433 27.1141 348.463V348.451C29.4112 350.068 32.1514 350.935 34.9603 350.935C37.7691 350.935 40.5094 350.068 42.8064 348.451V348.463C42.8496 348.433 42.8878 348.394 42.932 348.365C43.2654 348.125 43.5891 347.869 43.9029 347.598C43.9941 347.519 44.0873 347.442 44.1775 347.361C44.4737 347.091 44.7562 346.805 45.0308 346.507C45.122 346.409 45.2162 346.314 45.3054 346.213C45.3751 346.132 45.4545 346.061 45.5232 345.978L45.5016 345.962ZM34.9593 329.358C35.8322 329.358 36.6855 329.616 37.4113 330.101C38.1371 330.586 38.7028 331.276 39.0368 332.082C39.3708 332.888 39.4582 333.776 39.2879 334.632C39.1177 335.488 38.6973 336.275 38.0801 336.892C37.4628 337.509 36.6764 337.929 35.8203 338.1C34.9642 338.27 34.0768 338.183 33.2703 337.848C32.4639 337.514 31.7746 336.949 31.2896 336.223C30.8047 335.497 30.5458 334.644 30.5458 333.771C30.5458 332.6 31.0108 331.478 31.8385 330.65C32.6662 329.823 33.7888 329.358 34.9593 329.358ZM27.12 345.962C27.137 344.674 27.6604 343.445 28.5768 342.54C29.4932 341.635 30.7291 341.127 32.017 341.127H37.9016C39.1895 341.127 40.4253 341.635 41.3418 342.54C42.2582 343.445 42.7816 344.674 42.7986 345.962C40.6476 347.9 37.8548 348.973 34.9593 348.973C32.0638 348.973 29.271 347.9 27.12 345.962Z" fill="#FF005C"/>
<rect x="230.984" y="111.911" width="115" height="115" transform="rotate(45 230.984 111.911)" stroke="#EDDB0F"/>
<path d="M193.59 183.945C192.426 183.945 191.364 183.675 190.404 183.135C189.444 182.583 188.682 181.821 188.118 180.849C187.566 179.865 187.29 178.761 187.29 177.537C187.29 176.313 187.566 175.215 188.118 174.243C188.682 173.259 189.444 172.497 190.404 171.957C191.364 171.405 192.426 171.129 193.59 171.129C194.766 171.129 195.834 171.405 196.794 171.957C197.754 172.497 198.51 173.253 199.062 174.225C199.614 175.197 199.89 176.301 199.89 177.537C199.89 178.773 199.614 179.877 199.062 180.849C198.51 181.821 197.754 182.583 196.794 183.135C195.834 183.675 194.766 183.945 193.59 183.945ZM193.59 182.523C194.466 182.523 195.252 182.319 195.948 181.911C196.656 181.503 197.208 180.921 197.604 180.165C198.012 179.409 198.216 178.533 198.216 177.537C198.216 176.529 198.012 175.653 197.604 174.909C197.208 174.153 196.662 173.571 195.966 173.163C195.27 172.755 194.478 172.551 193.59 172.551C192.702 172.551 191.91 172.755 191.214 173.163C190.518 173.571 189.966 174.153 189.558 174.909C189.162 175.653 188.964 176.529 188.964 177.537C188.964 178.533 189.162 179.409 189.558 180.165C189.966 180.921 190.518 181.503 191.214 181.911C191.922 182.319 192.714 182.523 193.59 182.523ZM204.05 175.773C204.374 175.209 204.854 174.741 205.49 174.369C206.138 173.985 206.888 173.793 207.74 173.793C208.616 173.793 209.408 174.003 210.116 174.423C210.836 174.843 211.4 175.437 211.808 176.205C212.216 176.961 212.42 177.843 212.42 178.851C212.42 179.847 212.216 180.735 211.808 181.515C211.4 182.295 210.836 182.901 210.116 183.333C209.408 183.765 208.616 183.981 207.74 183.981C206.9 183.981 206.156 183.795 205.508 183.423C204.872 183.039 204.386 182.565 204.05 182.001V188.499H202.412V173.955H204.05V175.773ZM210.746 178.851C210.746 178.107 210.596 177.459 210.296 176.907C209.996 176.355 209.588 175.935 209.072 175.647C208.568 175.359 208.01 175.215 207.398 175.215C206.798 175.215 206.24 175.365 205.724 175.665C205.22 175.953 204.812 176.379 204.5 176.943C204.2 177.495 204.05 178.137 204.05 178.869C204.05 179.613 204.2 180.267 204.5 180.831C204.812 181.383 205.22 181.809 205.724 182.109C206.24 182.397 206.798 182.541 207.398 182.541C208.01 182.541 208.568 182.397 209.072 182.109C209.588 181.809 209.996 181.383 210.296 180.831C210.596 180.267 210.746 179.607 210.746 178.851ZM216.934 175.305V181.119C216.934 181.599 217.036 181.941 217.24 182.145C217.444 182.337 217.798 182.433 218.302 182.433H219.508V183.819H218.032C217.12 183.819 216.436 183.609 215.98 183.189C215.524 182.769 215.296 182.079 215.296 181.119V175.305H214.018V173.955H215.296V171.471H216.934V173.955H219.508V175.305H216.934ZM222.699 172.353C222.387 172.353 222.123 172.245 221.907 172.029C221.691 171.813 221.583 171.549 221.583 171.237C221.583 170.925 221.691 170.661 221.907 170.445C222.123 170.229 222.387 170.121 222.699 170.121C222.999 170.121 223.251 170.229 223.455 170.445C223.671 170.661 223.779 170.925 223.779 171.237C223.779 171.549 223.671 171.813 223.455 172.029C223.251 172.245 222.999 172.353 222.699 172.353ZM223.491 173.955V183.819H221.853V173.955H223.491ZM238.505 173.775C239.273 173.775 239.957 173.937 240.557 174.261C241.157 174.573 241.631 175.047 241.979 175.683C242.327 176.319 242.501 177.093 242.501 178.005V183.819H240.881V178.239C240.881 177.255 240.635 176.505 240.143 175.989C239.663 175.461 239.009 175.197 238.181 175.197C237.329 175.197 236.651 175.473 236.147 176.025C235.643 176.565 235.391 177.351 235.391 178.383V183.819H233.771V178.239C233.771 177.255 233.525 176.505 233.033 175.989C232.553 175.461 231.899 175.197 231.071 175.197C230.219 175.197 229.541 175.473 229.037 176.025C228.533 176.565 228.281 177.351 228.281 178.383V183.819H226.643V173.955H228.281V175.377C228.605 174.861 229.037 174.465 229.577 174.189C230.129 173.913 230.735 173.775 231.395 173.775C232.223 173.775 232.955 173.961 233.591 174.333C234.227 174.705 234.701 175.251 235.013 175.971C235.289 175.275 235.745 174.735 236.381 174.351C237.017 173.967 237.725 173.775 238.505 173.775ZM254.296 173.955V183.819H252.658V182.361C252.346 182.865 251.908 183.261 251.344 183.549C250.792 183.825 250.18 183.963 249.508 183.963C248.74 183.963 248.05 183.807 247.438 183.495C246.826 183.171 246.34 182.691 245.98 182.055C245.632 181.419 245.458 180.645 245.458 179.733V173.955H247.078V179.517C247.078 180.489 247.324 181.239 247.816 181.767C248.308 182.283 248.98 182.541 249.832 182.541C250.708 182.541 251.398 182.271 251.902 181.731C252.406 181.191 252.658 180.405 252.658 179.373V173.955H254.296ZM269.283 173.775C270.051 173.775 270.735 173.937 271.335 174.261C271.935 174.573 272.409 175.047 272.757 175.683C273.105 176.319 273.279 177.093 273.279 178.005V183.819H271.659V178.239C271.659 177.255 271.413 176.505 270.921 175.989C270.441 175.461 269.787 175.197 268.959 175.197C268.107 175.197 267.429 175.473 266.925 176.025C266.421 176.565 266.169 177.351 266.169 178.383V183.819H264.549V178.239C264.549 177.255 264.303 176.505 263.811 175.989C263.331 175.461 262.677 175.197 261.849 175.197C260.997 175.197 260.319 175.473 259.815 176.025C259.311 176.565 259.059 177.351 259.059 178.383V183.819H257.421V173.955H259.059V175.377C259.383 174.861 259.815 174.465 260.355 174.189C260.907 173.913 261.513 173.775 262.173 173.775C263.001 173.775 263.733 173.961 264.369 174.333C265.005 174.705 265.479 175.251 265.791 175.971C266.067 175.275 266.523 174.735 267.159 174.351C267.795 173.967 268.503 173.775 269.283 173.775ZM199.464 207.945C198.54 207.945 197.712 207.795 196.98 207.495C196.248 207.195 195.66 206.751 195.216 206.163C194.784 205.575 194.556 204.867 194.532 204.039H197.808C197.856 204.507 198.018 204.867 198.294 205.119C198.57 205.359 198.93 205.479 199.374 205.479C199.83 205.479 200.19 205.377 200.454 205.173C200.718 204.957 200.85 204.663 200.85 204.291C200.85 203.979 200.742 203.721 200.526 203.517C200.322 203.313 200.064 203.145 199.752 203.013C199.452 202.881 199.02 202.731 198.456 202.563C197.64 202.311 196.974 202.059 196.458 201.807C195.942 201.555 195.498 201.183 195.126 200.691C194.754 200.199 194.568 199.557 194.568 198.765C194.568 197.589 194.994 196.671 195.846 196.011C196.698 195.339 197.808 195.003 199.176 195.003C200.568 195.003 201.69 195.339 202.542 196.011C203.394 196.671 203.85 197.595 203.91 198.783H200.58C200.556 198.375 200.406 198.057 200.13 197.829C199.854 197.589 199.5 197.469 199.068 197.469C198.696 197.469 198.396 197.571 198.168 197.775C197.94 197.967 197.826 198.249 197.826 198.621C197.826 199.029 198.018 199.347 198.402 199.575C198.786 199.803 199.386 200.049 200.202 200.313C201.018 200.589 201.678 200.853 202.182 201.105C202.698 201.357 203.142 201.723 203.514 202.203C203.886 202.683 204.072 203.301 204.072 204.057C204.072 204.777 203.886 205.431 203.514 206.019C203.154 206.607 202.626 207.075 201.93 207.423C201.234 207.771 200.412 207.945 199.464 207.945ZM211.924 205.209V207.819H210.358C209.242 207.819 208.372 207.549 207.748 207.009C207.124 206.457 206.812 205.563 206.812 204.327V200.331H205.588V197.775H206.812V195.327H209.89V197.775H211.906V200.331H209.89V204.363C209.89 204.663 209.962 204.879 210.106 205.011C210.25 205.143 210.49 205.209 210.826 205.209H211.924ZM213.386 202.779C213.386 201.747 213.578 200.841 213.962 200.061C214.358 199.281 214.892 198.681 215.564 198.261C216.236 197.841 216.986 197.631 217.814 197.631C218.522 197.631 219.14 197.775 219.668 198.063C220.208 198.351 220.622 198.729 220.91 199.197V197.775H223.988V207.819H220.91V206.397C220.61 206.865 220.19 207.243 219.65 207.531C219.122 207.819 218.504 207.963 217.796 207.963C216.98 207.963 216.236 207.753 215.564 207.333C214.892 206.901 214.358 206.295 213.962 205.515C213.578 204.723 213.386 203.811 213.386 202.779ZM220.91 202.797C220.91 202.029 220.694 201.423 220.262 200.979C219.842 200.535 219.326 200.313 218.714 200.313C218.102 200.313 217.58 200.535 217.148 200.979C216.728 201.411 216.518 202.011 216.518 202.779C216.518 203.547 216.728 204.159 217.148 204.615C217.58 205.059 218.102 205.281 218.714 205.281C219.326 205.281 219.842 205.059 220.262 204.615C220.694 204.171 220.91 203.565 220.91 202.797ZM232.713 207.819L229.653 203.607V207.819H226.575V194.499H229.653V201.861L232.695 197.775H236.493L232.317 202.815L236.529 207.819H232.713ZM239.61 196.731C239.07 196.731 238.626 196.575 238.278 196.263C237.942 195.939 237.774 195.543 237.774 195.075C237.774 194.595 237.942 194.199 238.278 193.887C238.626 193.563 239.07 193.401 239.61 193.401C240.138 193.401 240.57 193.563 240.906 193.887C241.254 194.199 241.428 194.595 241.428 195.075C241.428 195.543 241.254 195.939 240.906 196.263C240.57 196.575 240.138 196.731 239.61 196.731ZM241.14 197.775V207.819H238.062V197.775H241.14ZM249.851 197.667C251.027 197.667 251.963 198.051 252.659 198.819C253.367 199.575 253.721 200.619 253.721 201.951V207.819H250.661V202.365C250.661 201.693 250.487 201.171 250.139 200.799C249.791 200.427 249.323 200.241 248.735 200.241C248.147 200.241 247.679 200.427 247.331 200.799C246.983 201.171 246.809 201.693 246.809 202.365V207.819H243.731V197.775H246.809V199.107C247.121 198.663 247.541 198.315 248.069 198.063C248.597 197.799 249.191 197.667 249.851 197.667ZM260.036 197.631C260.744 197.631 261.362 197.775 261.89 198.063C262.43 198.351 262.844 198.729 263.132 199.197V197.775H266.21V207.801C266.21 208.725 266.024 209.559 265.652 210.303C265.292 211.059 264.734 211.659 263.978 212.103C263.234 212.547 262.304 212.769 261.188 212.769C259.7 212.769 258.494 212.415 257.57 211.707C256.646 211.011 256.118 210.063 255.986 208.863H259.028C259.124 209.247 259.352 209.547 259.712 209.763C260.072 209.991 260.516 210.105 261.044 210.105C261.68 210.105 262.184 209.919 262.556 209.547C262.94 209.187 263.132 208.605 263.132 207.801V206.379C262.832 206.847 262.418 207.231 261.89 207.531C261.362 207.819 260.744 207.963 260.036 207.963C259.208 207.963 258.458 207.753 257.786 207.333C257.114 206.901 256.58 206.295 256.184 205.515C255.8 204.723 255.608 203.811 255.608 202.779C255.608 201.747 255.8 200.841 256.184 200.061C256.58 199.281 257.114 198.681 257.786 198.261C258.458 197.841 259.208 197.631 260.036 197.631ZM263.132 202.797C263.132 202.029 262.916 201.423 262.484 200.979C262.064 200.535 261.548 200.313 260.936 200.313C260.324 200.313 259.802 200.535 259.37 200.979C258.95 201.411 258.74 202.011 258.74 202.779C258.74 203.547 258.95 204.159 259.37 204.615C259.802 205.059 260.324 205.281 260.936 205.281C261.548 205.281 262.064 205.059 262.484 204.615C262.916 204.171 263.132 203.565 263.132 202.797ZM221.203 223.251C221.203 223.983 221.035 224.655 220.699 225.267C220.363 225.867 219.847 226.353 219.151 226.725C218.455 227.097 217.591 227.283 216.559 227.283H214.651V231.819H211.573V219.183H216.559C217.567 219.183 218.419 219.357 219.115 219.705C219.811 220.053 220.333 220.533 220.681 221.145C221.029 221.757 221.203 222.459 221.203 223.251ZM216.325 224.835C216.913 224.835 217.351 224.697 217.639 224.421C217.927 224.145 218.071 223.755 218.071 223.251C218.071 222.747 217.927 222.357 217.639 222.081C217.351 221.805 216.913 221.667 216.325 221.667H214.651V224.835H216.325ZM227.737 231.963C226.753 231.963 225.865 231.753 225.073 231.333C224.293 230.913 223.675 230.313 223.219 229.533C222.775 228.753 222.553 227.841 222.553 226.797C222.553 225.765 222.781 224.859 223.237 224.079C223.693 223.287 224.317 222.681 225.109 222.261C225.901 221.841 226.789 221.631 227.773 221.631C228.757 221.631 229.645 221.841 230.437 222.261C231.229 222.681 231.853 223.287 232.309 224.079C232.765 224.859 232.993 225.765 232.993 226.797C232.993 227.829 232.759 228.741 232.291 229.533C231.835 230.313 231.205 230.913 230.401 231.333C229.609 231.753 228.721 231.963 227.737 231.963ZM227.737 229.299C228.325 229.299 228.823 229.083 229.231 228.651C229.651 228.219 229.861 227.601 229.861 226.797C229.861 225.993 229.657 225.375 229.249 224.943C228.853 224.511 228.361 224.295 227.773 224.295C227.173 224.295 226.675 224.511 226.279 224.943C225.883 225.363 225.685 225.981 225.685 226.797C225.685 227.601 225.877 228.219 226.261 228.651C226.657 229.083 227.149 229.299 227.737 229.299ZM239.558 231.963C238.574 231.963 237.686 231.753 236.894 231.333C236.114 230.913 235.496 230.313 235.04 229.533C234.596 228.753 234.374 227.841 234.374 226.797C234.374 225.765 234.602 224.859 235.058 224.079C235.514 223.287 236.138 222.681 236.93 222.261C237.722 221.841 238.61 221.631 239.594 221.631C240.578 221.631 241.466 221.841 242.258 222.261C243.05 222.681 243.674 223.287 244.13 224.079C244.586 224.859 244.814 225.765 244.814 226.797C244.814 227.829 244.58 228.741 244.112 229.533C243.656 230.313 243.026 230.913 242.222 231.333C241.43 231.753 240.542 231.963 239.558 231.963ZM239.558 229.299C240.146 229.299 240.644 229.083 241.052 228.651C241.472 228.219 241.682 227.601 241.682 226.797C241.682 225.993 241.478 225.375 241.07 224.943C240.674 224.511 240.182 224.295 239.594 224.295C238.994 224.295 238.496 224.511 238.1 224.943C237.704 225.363 237.506 225.981 237.506 226.797C237.506 227.601 237.698 228.219 238.082 228.651C238.478 229.083 238.97 229.299 239.558 229.299ZM249.885 218.499V231.819H246.807V218.499H249.885Z" fill="white"/>
<rect x="554.508" y="135.728" width="115" height="187" transform="rotate(90 554.508 135.728)" stroke="#EDDB0F"/>
<path d="M409.898 164.318C409.55 163.586 409.046 163.022 408.386 162.626C407.726 162.218 406.958 162.014 406.082 162.014C405.206 162.014 404.414 162.218 403.706 162.626C403.01 163.022 402.458 163.598 402.05 164.354C401.654 165.098 401.456 165.962 401.456 166.946C401.456 167.93 401.654 168.794 402.05 169.538C402.458 170.282 403.01 170.858 403.706 171.266C404.414 171.662 405.206 171.86 406.082 171.86C407.306 171.86 408.314 171.494 409.106 170.762C409.898 170.03 410.36 169.04 410.492 167.792H405.488V166.46H412.238V167.72C412.142 168.752 411.818 169.7 411.266 170.564C410.714 171.416 409.988 172.094 409.088 172.598C408.188 173.09 407.186 173.336 406.082 173.336C404.918 173.336 403.856 173.066 402.896 172.526C401.936 171.974 401.174 171.212 400.61 170.24C400.058 169.268 399.782 168.17 399.782 166.946C399.782 165.722 400.058 164.624 400.61 163.652C401.174 162.668 401.936 161.906 402.896 161.366C403.856 160.814 404.918 160.538 406.082 160.538C407.414 160.538 408.59 160.868 409.61 161.528C410.642 162.188 411.392 163.118 411.86 164.318H409.898ZM419.066 173.39C418.142 173.39 417.302 173.18 416.546 172.76C415.802 172.34 415.214 171.746 414.782 170.978C414.362 170.198 414.152 169.298 414.152 168.278C414.152 167.27 414.368 166.382 414.8 165.614C415.244 164.834 415.844 164.24 416.6 163.832C417.356 163.412 418.202 163.202 419.138 163.202C420.074 163.202 420.92 163.412 421.676 163.832C422.432 164.24 423.026 164.828 423.458 165.596C423.902 166.364 424.124 167.258 424.124 168.278C424.124 169.298 423.896 170.198 423.44 170.978C422.996 171.746 422.39 172.34 421.622 172.76C420.854 173.18 420.002 173.39 419.066 173.39ZM419.066 171.95C419.654 171.95 420.206 171.812 420.722 171.536C421.238 171.26 421.652 170.846 421.964 170.294C422.288 169.742 422.45 169.07 422.45 168.278C422.45 167.486 422.294 166.814 421.982 166.262C421.67 165.71 421.262 165.302 420.758 165.038C420.254 164.762 419.708 164.624 419.12 164.624C418.52 164.624 417.968 164.762 417.464 165.038C416.972 165.302 416.576 165.71 416.276 166.262C415.976 166.814 415.826 167.486 415.826 168.278C415.826 169.082 415.97 169.76 416.258 170.312C416.558 170.864 416.954 171.278 417.446 171.554C417.938 171.818 418.478 171.95 419.066 171.95ZM430.31 171.716L433.37 163.364H435.116L431.246 173.228H429.338L425.468 163.364H427.232L430.31 171.716ZM446.088 167.918C446.088 168.23 446.07 168.56 446.034 168.908H438.15C438.21 169.88 438.54 170.642 439.14 171.194C439.752 171.734 440.49 172.004 441.354 172.004C442.062 172.004 442.65 171.842 443.118 171.518C443.598 171.182 443.934 170.738 444.126 170.186H445.89C445.626 171.134 445.098 171.908 444.306 172.508C443.514 173.096 442.53 173.39 441.354 173.39C440.418 173.39 439.578 173.18 438.834 172.76C438.102 172.34 437.526 171.746 437.106 170.978C436.686 170.198 436.476 169.298 436.476 168.278C436.476 167.258 436.68 166.364 437.088 165.596C437.496 164.828 438.066 164.24 438.798 163.832C439.542 163.412 440.394 163.202 441.354 163.202C442.29 163.202 443.118 163.406 443.838 163.814C444.558 164.222 445.11 164.786 445.494 165.506C445.89 166.214 446.088 167.018 446.088 167.918ZM444.396 167.576C444.396 166.952 444.258 166.418 443.982 165.974C443.706 165.518 443.328 165.176 442.848 164.948C442.38 164.708 441.858 164.588 441.282 164.588C440.454 164.588 439.746 164.852 439.158 165.38C438.582 165.908 438.252 166.64 438.168 167.576H444.396ZM450.248 164.966C450.536 164.402 450.944 163.964 451.472 163.652C452.012 163.34 452.666 163.184 453.434 163.184V164.876H453.002C451.166 164.876 450.248 165.872 450.248 167.864V173.228H448.61V163.364H450.248V164.966ZM460.491 163.184C461.691 163.184 462.663 163.55 463.407 164.282C464.151 165.002 464.523 166.046 464.523 167.414V173.228H462.903V167.648C462.903 166.664 462.657 165.914 462.165 165.398C461.673 164.87 461.001 164.606 460.149 164.606C459.285 164.606 458.595 164.876 458.079 165.416C457.575 165.956 457.323 166.742 457.323 167.774V173.228H455.685V163.364H457.323V164.768C457.647 164.264 458.085 163.874 458.637 163.598C459.201 163.322 459.819 163.184 460.491 163.184ZM466.946 168.26C466.946 167.252 467.15 166.37 467.558 165.614C467.966 164.846 468.524 164.252 469.232 163.832C469.952 163.412 470.75 163.202 471.626 163.202C472.49 163.202 473.24 163.388 473.876 163.76C474.512 164.132 474.986 164.6 475.298 165.164V163.364H476.954V173.228H475.298V171.392C474.974 171.968 474.488 172.448 473.84 172.832C473.204 173.204 472.46 173.39 471.608 173.39C470.732 173.39 469.94 173.174 469.232 172.742C468.524 172.31 467.966 171.704 467.558 170.924C467.15 170.144 466.946 169.256 466.946 168.26ZM475.298 168.278C475.298 167.534 475.148 166.886 474.848 166.334C474.548 165.782 474.14 165.362 473.624 165.074C473.12 164.774 472.562 164.624 471.95 164.624C471.338 164.624 470.78 164.768 470.276 165.056C469.772 165.344 469.37 165.764 469.07 166.316C468.77 166.868 468.62 167.516 468.62 168.26C468.62 169.016 468.77 169.676 469.07 170.24C469.37 170.792 469.772 171.218 470.276 171.518C470.78 171.806 471.338 171.95 471.95 171.95C472.562 171.95 473.12 171.806 473.624 171.518C474.14 171.218 474.548 170.792 474.848 170.24C475.148 169.676 475.298 169.022 475.298 168.278ZM484.888 163.184C486.088 163.184 487.06 163.55 487.804 164.282C488.548 165.002 488.92 166.046 488.92 167.414V173.228H487.3V167.648C487.3 166.664 487.054 165.914 486.562 165.398C486.07 164.87 485.398 164.606 484.546 164.606C483.682 164.606 482.992 164.876 482.476 165.416C481.972 165.956 481.72 166.742 481.72 167.774V173.228H480.082V163.364H481.72V164.768C482.044 164.264 482.482 163.874 483.034 163.598C483.598 163.322 484.216 163.184 484.888 163.184ZM491.344 168.278C491.344 167.258 491.548 166.37 491.956 165.614C492.364 164.846 492.928 164.252 493.648 163.832C494.38 163.412 495.214 163.202 496.15 163.202C497.362 163.202 498.358 163.496 499.138 164.084C499.93 164.672 500.452 165.488 500.704 166.532H498.94C498.772 165.932 498.442 165.458 497.95 165.11C497.47 164.762 496.87 164.588 496.15 164.588C495.214 164.588 494.458 164.912 493.882 165.56C493.306 166.196 493.018 167.102 493.018 168.278C493.018 169.466 493.306 170.384 493.882 171.032C494.458 171.68 495.214 172.004 496.15 172.004C496.87 172.004 497.47 171.836 497.95 171.5C498.43 171.164 498.76 170.684 498.94 170.06H500.704C500.44 171.068 499.912 171.878 499.12 172.49C498.328 173.09 497.338 173.39 496.15 173.39C495.214 173.39 494.38 173.18 493.648 172.76C492.928 172.34 492.364 171.746 491.956 170.978C491.548 170.21 491.344 169.31 491.344 168.278ZM512.25 167.918C512.25 168.23 512.232 168.56 512.196 168.908H504.312C504.372 169.88 504.702 170.642 505.302 171.194C505.914 171.734 506.652 172.004 507.516 172.004C508.224 172.004 508.812 171.842 509.28 171.518C509.76 171.182 510.096 170.738 510.288 170.186H512.052C511.788 171.134 511.26 171.908 510.468 172.508C509.676 173.096 508.692 173.39 507.516 173.39C506.58 173.39 505.74 173.18 504.996 172.76C504.264 172.34 503.688 171.746 503.268 170.978C502.848 170.198 502.638 169.298 502.638 168.278C502.638 167.258 502.842 166.364 503.25 165.596C503.658 164.828 504.228 164.24 504.96 163.832C505.704 163.412 506.556 163.202 507.516 163.202C508.452 163.202 509.28 163.406 510 163.814C510.72 164.222 511.272 164.786 511.656 165.506C512.052 166.214 512.25 167.018 512.25 167.918ZM510.558 167.576C510.558 166.952 510.42 166.418 510.144 165.974C509.868 165.518 509.49 165.176 509.01 164.948C508.542 164.708 508.02 164.588 507.444 164.588C506.616 164.588 505.908 164.852 505.32 165.38C504.744 165.908 504.414 166.64 504.33 167.576H510.558ZM407 197.228L404.012 192.098H402.032V197.228H400.394V184.682H404.444C405.392 184.682 406.19 184.844 406.838 185.168C407.498 185.492 407.99 185.93 408.314 186.482C408.638 187.034 408.8 187.664 408.8 188.372C408.8 189.236 408.548 189.998 408.044 190.658C407.552 191.318 406.808 191.756 405.812 191.972L408.962 197.228H407ZM402.032 190.784H404.444C405.332 190.784 405.998 190.568 406.442 190.136C406.886 189.692 407.108 189.104 407.108 188.372C407.108 187.628 406.886 187.052 406.442 186.644C406.01 186.236 405.344 186.032 404.444 186.032H402.032V190.784ZM420.705 191.918C420.705 192.23 420.687 192.56 420.651 192.908H412.767C412.827 193.88 413.157 194.642 413.757 195.194C414.369 195.734 415.107 196.004 415.971 196.004C416.679 196.004 417.267 195.842 417.735 195.518C418.215 195.182 418.551 194.738 418.743 194.186H420.507C420.243 195.134 419.715 195.908 418.923 196.508C418.131 197.096 417.147 197.39 415.971 197.39C415.035 197.39 414.195 197.18 413.451 196.76C412.719 196.34 412.143 195.746 411.723 194.978C411.303 194.198 411.093 193.298 411.093 192.278C411.093 191.258 411.297 190.364 411.705 189.596C412.113 188.828 412.683 188.24 413.415 187.832C414.159 187.412 415.011 187.202 415.971 187.202C416.907 187.202 417.735 187.406 418.455 187.814C419.175 188.222 419.727 188.786 420.111 189.506C420.507 190.214 420.705 191.018 420.705 191.918ZM419.013 191.576C419.013 190.952 418.875 190.418 418.599 189.974C418.323 189.518 417.945 189.176 417.465 188.948C416.997 188.708 416.475 188.588 415.899 188.588C415.071 188.588 414.363 188.852 413.775 189.38C413.199 189.908 412.869 190.64 412.785 191.576H419.013ZM427.296 187.202C428.148 187.202 428.892 187.388 429.528 187.76C430.176 188.132 430.656 188.6 430.968 189.164V187.364H432.624V197.444C432.624 198.344 432.432 199.142 432.048 199.838C431.664 200.546 431.112 201.098 430.392 201.494C429.684 201.89 428.856 202.088 427.908 202.088C426.612 202.088 425.532 201.782 424.668 201.17C423.804 200.558 423.294 199.724 423.138 198.668H424.758C424.938 199.268 425.31 199.748 425.874 200.108C426.438 200.48 427.116 200.666 427.908 200.666C428.808 200.666 429.54 200.384 430.104 199.82C430.68 199.256 430.968 198.464 430.968 197.444V195.374C430.644 195.95 430.164 196.43 429.528 196.814C428.892 197.198 428.148 197.39 427.296 197.39C426.42 197.39 425.622 197.174 424.902 196.742C424.194 196.31 423.636 195.704 423.228 194.924C422.82 194.144 422.616 193.256 422.616 192.26C422.616 191.252 422.82 190.37 423.228 189.614C423.636 188.846 424.194 188.252 424.902 187.832C425.622 187.412 426.42 187.202 427.296 187.202ZM430.968 192.278C430.968 191.534 430.818 190.886 430.518 190.334C430.218 189.782 429.81 189.362 429.294 189.074C428.79 188.774 428.232 188.624 427.62 188.624C427.008 188.624 426.45 188.768 425.946 189.056C425.442 189.344 425.04 189.764 424.74 190.316C424.44 190.868 424.29 191.516 424.29 192.26C424.29 193.016 424.44 193.676 424.74 194.24C425.04 194.792 425.442 195.218 425.946 195.518C426.45 195.806 427.008 195.95 427.62 195.95C428.232 195.95 428.79 195.806 429.294 195.518C429.81 195.218 430.218 194.792 430.518 194.24C430.818 193.676 430.968 193.022 430.968 192.278ZM436.598 185.762C436.286 185.762 436.022 185.654 435.806 185.438C435.59 185.222 435.482 184.958 435.482 184.646C435.482 184.334 435.59 184.07 435.806 183.854C436.022 183.638 436.286 183.53 436.598 183.53C436.898 183.53 437.15 183.638 437.354 183.854C437.57 184.07 437.678 184.334 437.678 184.646C437.678 184.958 437.57 185.222 437.354 185.438C437.15 185.654 436.898 185.762 436.598 185.762ZM437.39 187.364V197.228H435.752V187.364H437.39ZM444.033 197.39C443.277 197.39 442.599 197.264 441.999 197.012C441.399 196.748 440.925 196.388 440.577 195.932C440.229 195.464 440.037 194.93 440.001 194.33H441.693C441.741 194.822 441.969 195.224 442.377 195.536C442.797 195.848 443.343 196.004 444.015 196.004C444.639 196.004 445.131 195.866 445.491 195.59C445.851 195.314 446.031 194.966 446.031 194.546C446.031 194.114 445.839 193.796 445.455 193.592C445.071 193.376 444.477 193.166 443.673 192.962C442.941 192.77 442.341 192.578 441.873 192.386C441.417 192.182 441.021 191.888 440.685 191.504C440.361 191.108 440.199 190.592 440.199 189.956C440.199 189.452 440.349 188.99 440.649 188.57C440.949 188.15 441.375 187.82 441.927 187.58C442.479 187.328 443.109 187.202 443.817 187.202C444.909 187.202 445.791 187.478 446.463 188.03C447.135 188.582 447.495 189.338 447.543 190.298H445.905C445.869 189.782 445.659 189.368 445.275 189.056C444.903 188.744 444.399 188.588 443.763 188.588C443.175 188.588 442.707 188.714 442.359 188.966C442.011 189.218 441.837 189.548 441.837 189.956C441.837 190.28 441.939 190.55 442.143 190.766C442.359 190.97 442.623 191.138 442.935 191.27C443.259 191.39 443.703 191.528 444.267 191.684C444.975 191.876 445.551 192.068 445.995 192.26C446.439 192.44 446.817 192.716 447.129 193.088C447.453 193.46 447.621 193.946 447.633 194.546C447.633 195.086 447.483 195.572 447.183 196.004C446.883 196.436 446.457 196.778 445.905 197.03C445.365 197.27 444.741 197.39 444.033 197.39ZM452.304 188.714V194.528C452.304 195.008 452.406 195.35 452.61 195.554C452.814 195.746 453.168 195.842 453.672 195.842H454.878V197.228H453.402C452.49 197.228 451.806 197.018 451.35 196.598C450.894 196.178 450.666 195.488 450.666 194.528V188.714H449.388V187.364H450.666V184.88H452.304V187.364H454.878V188.714H452.304ZM458.86 188.966C459.148 188.402 459.556 187.964 460.084 187.652C460.624 187.34 461.278 187.184 462.046 187.184V188.876H461.614C459.778 188.876 458.86 189.872 458.86 191.864V197.228H457.222V187.364H458.86V188.966ZM463.685 192.26C463.685 191.252 463.889 190.37 464.297 189.614C464.705 188.846 465.263 188.252 465.971 187.832C466.691 187.412 467.489 187.202 468.365 187.202C469.229 187.202 469.979 187.388 470.615 187.76C471.251 188.132 471.725 188.6 472.037 189.164V187.364H473.693V197.228H472.037V195.392C471.713 195.968 471.227 196.448 470.579 196.832C469.943 197.204 469.199 197.39 468.347 197.39C467.471 197.39 466.679 197.174 465.971 196.742C465.263 196.31 464.705 195.704 464.297 194.924C463.889 194.144 463.685 193.256 463.685 192.26ZM472.037 192.278C472.037 191.534 471.887 190.886 471.587 190.334C471.287 189.782 470.879 189.362 470.363 189.074C469.859 188.774 469.301 188.624 468.689 188.624C468.077 188.624 467.519 188.768 467.015 189.056C466.511 189.344 466.109 189.764 465.809 190.316C465.509 190.868 465.359 191.516 465.359 192.26C465.359 193.016 465.509 193.676 465.809 194.24C466.109 194.792 466.511 195.218 467.015 195.518C467.519 195.806 468.077 195.95 468.689 195.95C469.301 195.95 469.859 195.806 470.363 195.518C470.879 195.218 471.287 194.792 471.587 194.24C471.887 193.676 472.037 193.022 472.037 192.278ZM478.819 188.714V194.528C478.819 195.008 478.921 195.35 479.125 195.554C479.329 195.746 479.683 195.842 480.187 195.842H481.393V197.228H479.917C479.005 197.228 478.321 197.018 477.865 196.598C477.409 196.178 477.181 195.488 477.181 194.528V188.714H475.903V187.364H477.181V184.88H478.819V187.364H481.393V188.714H478.819ZM484.584 185.762C484.272 185.762 484.008 185.654 483.792 185.438C483.576 185.222 483.468 184.958 483.468 184.646C483.468 184.334 483.576 184.07 483.792 183.854C484.008 183.638 484.272 183.53 484.584 183.53C484.884 183.53 485.136 183.638 485.34 183.854C485.556 184.07 485.664 184.334 485.664 184.646C485.664 184.958 485.556 185.222 485.34 185.438C485.136 185.654 484.884 185.762 484.584 185.762ZM485.376 187.364V197.228H483.738V187.364H485.376ZM492.83 197.39C491.906 197.39 491.066 197.18 490.31 196.76C489.566 196.34 488.978 195.746 488.546 194.978C488.126 194.198 487.916 193.298 487.916 192.278C487.916 191.27 488.132 190.382 488.564 189.614C489.008 188.834 489.608 188.24 490.364 187.832C491.12 187.412 491.966 187.202 492.902 187.202C493.838 187.202 494.684 187.412 495.44 187.832C496.196 188.24 496.79 188.828 497.222 189.596C497.666 190.364 497.888 191.258 497.888 192.278C497.888 193.298 497.66 194.198 497.204 194.978C496.76 195.746 496.154 196.34 495.386 196.76C494.618 197.18 493.766 197.39 492.83 197.39ZM492.83 195.95C493.418 195.95 493.97 195.812 494.486 195.536C495.002 195.26 495.416 194.846 495.728 194.294C496.052 193.742 496.214 193.07 496.214 192.278C496.214 191.486 496.058 190.814 495.746 190.262C495.434 189.71 495.026 189.302 494.522 189.038C494.018 188.762 493.472 188.624 492.884 188.624C492.284 188.624 491.732 188.762 491.228 189.038C490.736 189.302 490.34 189.71 490.04 190.262C489.74 190.814 489.59 191.486 489.59 192.278C489.59 193.082 489.734 193.76 490.022 194.312C490.322 194.864 490.718 195.278 491.21 195.554C491.702 195.818 492.242 195.95 492.83 195.95ZM505.207 187.184C506.407 187.184 507.379 187.55 508.123 188.282C508.867 189.002 509.239 190.046 509.239 191.414V197.228H507.619V191.648C507.619 190.664 507.373 189.914 506.881 189.398C506.389 188.87 505.717 188.606 504.865 188.606C504.001 188.606 503.311 188.876 502.795 189.416C502.291 189.956 502.039 190.742 502.039 191.774V197.228H500.401V187.364H502.039V188.768C502.363 188.264 502.801 187.874 503.353 187.598C503.917 187.322 504.535 187.184 505.207 187.184ZM399.782 216.26C399.782 215.252 399.986 214.37 400.394 213.614C400.802 212.846 401.36 212.252 402.068 211.832C402.788 211.412 403.586 211.202 404.462 211.202C405.326 211.202 406.076 211.388 406.712 211.76C407.348 212.132 407.822 212.6 408.134 213.164V211.364H409.79V221.228H408.134V219.392C407.81 219.968 407.324 220.448 406.676 220.832C406.04 221.204 405.296 221.39 404.444 221.39C403.568 221.39 402.776 221.174 402.068 220.742C401.36 220.31 400.802 219.704 400.394 218.924C399.986 218.144 399.782 217.256 399.782 216.26ZM408.134 216.278C408.134 215.534 407.984 214.886 407.684 214.334C407.384 213.782 406.976 213.362 406.46 213.074C405.956 212.774 405.398 212.624 404.786 212.624C404.174 212.624 403.616 212.768 403.112 213.056C402.608 213.344 402.206 213.764 401.906 214.316C401.606 214.868 401.456 215.516 401.456 216.26C401.456 217.016 401.606 217.676 401.906 218.24C402.206 218.792 402.608 219.218 403.112 219.518C403.616 219.806 404.174 219.95 404.786 219.95C405.398 219.95 405.956 219.806 406.46 219.518C406.976 219.218 407.384 218.792 407.684 218.24C407.984 217.676 408.134 217.022 408.134 216.278ZM417.724 211.184C418.924 211.184 419.896 211.55 420.64 212.282C421.384 213.002 421.756 214.046 421.756 215.414V221.228H420.136V215.648C420.136 214.664 419.89 213.914 419.398 213.398C418.906 212.87 418.234 212.606 417.382 212.606C416.518 212.606 415.828 212.876 415.312 213.416C414.808 213.956 414.556 214.742 414.556 215.774V221.228H412.918V211.364H414.556V212.768C414.88 212.264 415.318 211.874 415.87 211.598C416.434 211.322 417.052 211.184 417.724 211.184ZM424.18 216.26C424.18 215.252 424.384 214.37 424.792 213.614C425.2 212.846 425.758 212.252 426.466 211.832C427.186 211.412 427.99 211.202 428.878 211.202C429.646 211.202 430.36 211.382 431.02 211.742C431.68 212.09 432.184 212.552 432.532 213.128V207.908H434.188V221.228H432.532V219.374C432.208 219.962 431.728 220.448 431.092 220.832C430.456 221.204 429.712 221.39 428.86 221.39C427.984 221.39 427.186 221.174 426.466 220.742C425.758 220.31 425.2 219.704 424.792 218.924C424.384 218.144 424.18 217.256 424.18 216.26ZM432.532 216.278C432.532 215.534 432.382 214.886 432.082 214.334C431.782 213.782 431.374 213.362 430.858 213.074C430.354 212.774 429.796 212.624 429.184 212.624C428.572 212.624 428.014 212.768 427.51 213.056C427.006 213.344 426.604 213.764 426.304 214.316C426.004 214.868 425.854 215.516 425.854 216.26C425.854 217.016 426.004 217.676 426.304 218.24C426.604 218.792 427.006 219.218 427.51 219.518C428.014 219.806 428.572 219.95 429.184 219.95C429.796 219.95 430.354 219.806 430.858 219.518C431.374 219.218 431.782 218.792 432.082 218.24C432.382 217.676 432.532 217.022 432.532 216.278ZM452.843 208.682L448.109 221.228H446.219L441.485 208.682H443.231L447.173 219.5L451.115 208.682H452.843ZM459.301 221.39C458.377 221.39 457.537 221.18 456.781 220.76C456.037 220.34 455.449 219.746 455.017 218.978C454.597 218.198 454.387 217.298 454.387 216.278C454.387 215.27 454.603 214.382 455.035 213.614C455.479 212.834 456.079 212.24 456.835 211.832C457.591 211.412 458.437 211.202 459.373 211.202C460.309 211.202 461.155 211.412 461.911 211.832C462.667 212.24 463.261 212.828 463.693 213.596C464.137 214.364 464.359 215.258 464.359 216.278C464.359 217.298 464.131 218.198 463.675 218.978C463.231 219.746 462.625 220.34 461.857 220.76C461.089 221.18 460.237 221.39 459.301 221.39ZM459.301 219.95C459.889 219.95 460.441 219.812 460.957 219.536C461.473 219.26 461.887 218.846 462.199 218.294C462.523 217.742 462.685 217.07 462.685 216.278C462.685 215.486 462.529 214.814 462.217 214.262C461.905 213.71 461.497 213.302 460.993 213.038C460.489 212.762 459.943 212.624 459.355 212.624C458.755 212.624 458.203 212.762 457.699 213.038C457.207 213.302 456.811 213.71 456.511 214.262C456.211 214.814 456.061 215.486 456.061 216.278C456.061 217.082 456.205 217.76 456.493 218.312C456.793 218.864 457.189 219.278 457.681 219.554C458.173 219.818 458.713 219.95 459.301 219.95ZM468.871 212.714V218.528C468.871 219.008 468.973 219.35 469.177 219.554C469.381 219.746 469.735 219.842 470.239 219.842H471.445V221.228H469.969C469.057 221.228 468.373 221.018 467.917 220.598C467.461 220.178 467.233 219.488 467.233 218.528V212.714H465.955V211.364H467.233V208.88H468.871V211.364H471.445V212.714H468.871ZM474.635 209.762C474.323 209.762 474.059 209.654 473.843 209.438C473.627 209.222 473.519 208.958 473.519 208.646C473.519 208.334 473.627 208.07 473.843 207.854C474.059 207.638 474.323 207.53 474.635 207.53C474.935 207.53 475.187 207.638 475.391 207.854C475.607 208.07 475.715 208.334 475.715 208.646C475.715 208.958 475.607 209.222 475.391 209.438C475.187 209.654 474.935 209.762 474.635 209.762ZM475.427 211.364V221.228H473.789V211.364H475.427ZM483.385 211.184C484.585 211.184 485.557 211.55 486.301 212.282C487.045 213.002 487.417 214.046 487.417 215.414V221.228H485.797V215.648C485.797 214.664 485.551 213.914 485.059 213.398C484.567 212.87 483.895 212.606 483.043 212.606C482.179 212.606 481.489 212.876 480.973 213.416C480.469 213.956 480.217 214.742 480.217 215.774V221.228H478.579V211.364H480.217V212.768C480.541 212.264 480.979 211.874 481.531 211.598C482.095 211.322 482.713 211.184 483.385 211.184ZM494.521 211.202C495.373 211.202 496.117 211.388 496.753 211.76C497.401 212.132 497.881 212.6 498.193 213.164V211.364H499.849V221.444C499.849 222.344 499.657 223.142 499.273 223.838C498.889 224.546 498.337 225.098 497.617 225.494C496.909 225.89 496.081 226.088 495.133 226.088C493.837 226.088 492.757 225.782 491.893 225.17C491.029 224.558 490.519 223.724 490.363 222.668H491.983C492.163 223.268 492.535 223.748 493.099 224.108C493.663 224.48 494.341 224.666 495.133 224.666C496.033 224.666 496.765 224.384 497.329 223.82C497.905 223.256 498.193 222.464 498.193 221.444V219.374C497.869 219.95 497.389 220.43 496.753 220.814C496.117 221.198 495.373 221.39 494.521 221.39C493.645 221.39 492.847 221.174 492.127 220.742C491.419 220.31 490.861 219.704 490.453 218.924C490.045 218.144 489.841 217.256 489.841 216.26C489.841 215.252 490.045 214.37 490.453 213.614C490.861 212.846 491.419 212.252 492.127 211.832C492.847 211.412 493.645 211.202 494.521 211.202ZM498.193 216.278C498.193 215.534 498.043 214.886 497.743 214.334C497.443 213.782 497.035 213.362 496.519 213.074C496.015 212.774 495.457 212.624 494.845 212.624C494.233 212.624 493.675 212.768 493.171 213.056C492.667 213.344 492.265 213.764 491.965 214.316C491.665 214.868 491.515 215.516 491.515 216.26C491.515 217.016 491.665 217.676 491.965 218.24C492.265 218.792 492.667 219.218 493.171 219.518C493.675 219.806 494.233 219.95 494.845 219.95C495.457 219.95 496.015 219.806 496.519 219.518C497.035 219.218 497.443 218.792 497.743 218.24C498.043 217.676 498.193 217.022 498.193 216.278Z" fill="white"/>
<rect x="812.508" y="135.728" width="115" height="203" transform="rotate(90 812.508 135.728)" stroke="#EDDB0F"/>
<path d="M655.898 166.318C655.55 165.586 655.046 165.022 654.386 164.626C653.726 164.218 652.958 164.014 652.082 164.014C651.206 164.014 650.414 164.218 649.706 164.626C649.01 165.022 648.458 165.598 648.05 166.354C647.654 167.098 647.456 167.962 647.456 168.946C647.456 169.93 647.654 170.794 648.05 171.538C648.458 172.282 649.01 172.858 649.706 173.266C650.414 173.662 651.206 173.86 652.082 173.86C653.306 173.86 654.314 173.494 655.106 172.762C655.898 172.03 656.36 171.04 656.492 169.792H651.488V168.46H658.238V169.72C658.142 170.752 657.818 171.7 657.266 172.564C656.714 173.416 655.988 174.094 655.088 174.598C654.188 175.09 653.186 175.336 652.082 175.336C650.918 175.336 649.856 175.066 648.896 174.526C647.936 173.974 647.174 173.212 646.61 172.24C646.058 171.268 645.782 170.17 645.782 168.946C645.782 167.722 646.058 166.624 646.61 165.652C647.174 164.668 647.936 163.906 648.896 163.366C649.856 162.814 650.918 162.538 652.082 162.538C653.414 162.538 654.59 162.868 655.61 163.528C656.642 164.188 657.392 165.118 657.86 166.318H655.898ZM665.066 175.39C664.142 175.39 663.302 175.18 662.546 174.76C661.802 174.34 661.214 173.746 660.782 172.978C660.362 172.198 660.152 171.298 660.152 170.278C660.152 169.27 660.368 168.382 660.8 167.614C661.244 166.834 661.844 166.24 662.6 165.832C663.356 165.412 664.202 165.202 665.138 165.202C666.074 165.202 666.92 165.412 667.676 165.832C668.432 166.24 669.026 166.828 669.458 167.596C669.902 168.364 670.124 169.258 670.124 170.278C670.124 171.298 669.896 172.198 669.44 172.978C668.996 173.746 668.39 174.34 667.622 174.76C666.854 175.18 666.002 175.39 665.066 175.39ZM665.066 173.95C665.654 173.95 666.206 173.812 666.722 173.536C667.238 173.26 667.652 172.846 667.964 172.294C668.288 171.742 668.45 171.07 668.45 170.278C668.45 169.486 668.294 168.814 667.982 168.262C667.67 167.71 667.262 167.302 666.758 167.038C666.254 166.762 665.708 166.624 665.12 166.624C664.52 166.624 663.968 166.762 663.464 167.038C662.972 167.302 662.576 167.71 662.276 168.262C661.976 168.814 661.826 169.486 661.826 170.278C661.826 171.082 661.97 171.76 662.258 172.312C662.558 172.864 662.954 173.278 663.446 173.554C663.938 173.818 664.478 173.95 665.066 173.95ZM676.309 173.716L679.369 165.364H681.115L677.245 175.228H675.337L671.467 165.364H673.231L676.309 173.716ZM692.087 169.918C692.087 170.23 692.069 170.56 692.033 170.908H684.149C684.209 171.88 684.539 172.642 685.139 173.194C685.751 173.734 686.489 174.004 687.353 174.004C688.061 174.004 688.649 173.842 689.117 173.518C689.597 173.182 689.933 172.738 690.125 172.186H691.889C691.625 173.134 691.097 173.908 690.305 174.508C689.513 175.096 688.529 175.39 687.353 175.39C686.417 175.39 685.577 175.18 684.833 174.76C684.101 174.34 683.525 173.746 683.105 172.978C682.685 172.198 682.475 171.298 682.475 170.278C682.475 169.258 682.679 168.364 683.087 167.596C683.495 166.828 684.065 166.24 684.797 165.832C685.541 165.412 686.393 165.202 687.353 165.202C688.289 165.202 689.117 165.406 689.837 165.814C690.557 166.222 691.109 166.786 691.493 167.506C691.889 168.214 692.087 169.018 692.087 169.918ZM690.395 169.576C690.395 168.952 690.257 168.418 689.981 167.974C689.705 167.518 689.327 167.176 688.847 166.948C688.379 166.708 687.857 166.588 687.281 166.588C686.453 166.588 685.745 166.852 685.157 167.38C684.581 167.908 684.251 168.64 684.167 169.576H690.395ZM696.247 166.966C696.535 166.402 696.943 165.964 697.471 165.652C698.011 165.34 698.665 165.184 699.433 165.184V166.876H699.001C697.165 166.876 696.247 167.872 696.247 169.864V175.228H694.609V165.364H696.247V166.966ZM706.49 165.184C707.69 165.184 708.662 165.55 709.406 166.282C710.15 167.002 710.522 168.046 710.522 169.414V175.228H708.902V169.648C708.902 168.664 708.656 167.914 708.164 167.398C707.672 166.87 707 166.606 706.148 166.606C705.284 166.606 704.594 166.876 704.078 167.416C703.574 167.956 703.322 168.742 703.322 169.774V175.228H701.684V165.364H703.322V166.768C703.646 166.264 704.084 165.874 704.636 165.598C705.2 165.322 705.818 165.184 706.49 165.184ZM712.946 170.26C712.946 169.252 713.15 168.37 713.558 167.614C713.966 166.846 714.524 166.252 715.232 165.832C715.952 165.412 716.75 165.202 717.626 165.202C718.49 165.202 719.24 165.388 719.876 165.76C720.512 166.132 720.986 166.6 721.298 167.164V165.364H722.954V175.228H721.298V173.392C720.974 173.968 720.488 174.448 719.84 174.832C719.204 175.204 718.46 175.39 717.608 175.39C716.732 175.39 715.94 175.174 715.232 174.742C714.524 174.31 713.966 173.704 713.558 172.924C713.15 172.144 712.946 171.256 712.946 170.26ZM721.298 170.278C721.298 169.534 721.148 168.886 720.848 168.334C720.548 167.782 720.14 167.362 719.624 167.074C719.12 166.774 718.562 166.624 717.95 166.624C717.338 166.624 716.78 166.768 716.276 167.056C715.772 167.344 715.37 167.764 715.07 168.316C714.77 168.868 714.62 169.516 714.62 170.26C714.62 171.016 714.77 171.676 715.07 172.24C715.37 172.792 715.772 173.218 716.276 173.518C716.78 173.806 717.338 173.95 717.95 173.95C718.562 173.95 719.12 173.806 719.624 173.518C720.14 173.218 720.548 172.792 720.848 172.24C721.148 171.676 721.298 171.022 721.298 170.278ZM730.888 165.184C732.088 165.184 733.06 165.55 733.804 166.282C734.548 167.002 734.92 168.046 734.92 169.414V175.228H733.3V169.648C733.3 168.664 733.054 167.914 732.562 167.398C732.07 166.87 731.398 166.606 730.546 166.606C729.682 166.606 728.992 166.876 728.476 167.416C727.972 167.956 727.72 168.742 727.72 169.774V175.228H726.082V165.364H727.72V166.768C728.044 166.264 728.482 165.874 729.034 165.598C729.598 165.322 730.216 165.184 730.888 165.184ZM737.344 170.278C737.344 169.258 737.548 168.37 737.956 167.614C738.364 166.846 738.928 166.252 739.648 165.832C740.38 165.412 741.214 165.202 742.15 165.202C743.362 165.202 744.358 165.496 745.138 166.084C745.93 166.672 746.452 167.488 746.704 168.532H744.94C744.772 167.932 744.442 167.458 743.95 167.11C743.47 166.762 742.87 166.588 742.15 166.588C741.214 166.588 740.458 166.912 739.882 167.56C739.306 168.196 739.018 169.102 739.018 170.278C739.018 171.466 739.306 172.384 739.882 173.032C740.458 173.68 741.214 174.004 742.15 174.004C742.87 174.004 743.47 173.836 743.95 173.5C744.43 173.164 744.76 172.684 744.94 172.06H746.704C746.44 173.068 745.912 173.878 745.12 174.49C744.328 175.09 743.338 175.39 742.15 175.39C741.214 175.39 740.38 175.18 739.648 174.76C738.928 174.34 738.364 173.746 737.956 172.978C737.548 172.21 737.344 171.31 737.344 170.278ZM758.249 169.918C758.249 170.23 758.231 170.56 758.195 170.908H750.311C750.371 171.88 750.701 172.642 751.301 173.194C751.913 173.734 752.651 174.004 753.515 174.004C754.223 174.004 754.811 173.842 755.279 173.518C755.759 173.182 756.095 172.738 756.287 172.186H758.051C757.787 173.134 757.259 173.908 756.467 174.508C755.675 175.096 754.691 175.39 753.515 175.39C752.579 175.39 751.739 175.18 750.995 174.76C750.263 174.34 749.687 173.746 749.267 172.978C748.847 172.198 748.637 171.298 748.637 170.278C748.637 169.258 748.841 168.364 749.249 167.596C749.657 166.828 750.227 166.24 750.959 165.832C751.703 165.412 752.555 165.202 753.515 165.202C754.451 165.202 755.279 165.406 755.999 165.814C756.719 166.222 757.271 166.786 757.655 167.506C758.051 168.214 758.249 169.018 758.249 169.918ZM756.557 169.576C756.557 168.952 756.419 168.418 756.143 167.974C755.867 167.518 755.489 167.176 755.009 166.948C754.541 166.708 754.019 166.588 753.443 166.588C752.615 166.588 751.907 166.852 751.319 167.38C750.743 167.908 750.413 168.64 750.329 169.576H756.557ZM653 199.228L650.012 194.098H648.032V199.228H646.394V186.682H650.444C651.392 186.682 652.19 186.844 652.838 187.168C653.498 187.492 653.99 187.93 654.314 188.482C654.638 189.034 654.8 189.664 654.8 190.372C654.8 191.236 654.548 191.998 654.044 192.658C653.552 193.318 652.808 193.756 651.812 193.972L654.962 199.228H653ZM648.032 192.784H650.444C651.332 192.784 651.998 192.568 652.442 192.136C652.886 191.692 653.108 191.104 653.108 190.372C653.108 189.628 652.886 189.052 652.442 188.644C652.01 188.236 651.344 188.032 650.444 188.032H648.032V192.784ZM666.705 193.918C666.705 194.23 666.687 194.56 666.651 194.908H658.767C658.827 195.88 659.157 196.642 659.757 197.194C660.369 197.734 661.107 198.004 661.971 198.004C662.679 198.004 663.267 197.842 663.735 197.518C664.215 197.182 664.551 196.738 664.743 196.186H666.507C666.243 197.134 665.715 197.908 664.923 198.508C664.131 199.096 663.147 199.39 661.971 199.39C661.035 199.39 660.195 199.18 659.451 198.76C658.719 198.34 658.143 197.746 657.723 196.978C657.303 196.198 657.093 195.298 657.093 194.278C657.093 193.258 657.297 192.364 657.705 191.596C658.113 190.828 658.683 190.24 659.415 189.832C660.159 189.412 661.011 189.202 661.971 189.202C662.907 189.202 663.735 189.406 664.455 189.814C665.175 190.222 665.727 190.786 666.111 191.506C666.507 192.214 666.705 193.018 666.705 193.918ZM665.013 193.576C665.013 192.952 664.875 192.418 664.599 191.974C664.323 191.518 663.945 191.176 663.465 190.948C662.997 190.708 662.475 190.588 661.899 190.588C661.071 190.588 660.363 190.852 659.775 191.38C659.199 191.908 658.869 192.64 658.785 193.576H665.013ZM682.367 189.364L679.289 199.228H677.597L675.221 191.398L672.845 199.228H671.153L668.057 189.364H669.731L671.999 197.644L674.447 189.364H676.121L678.515 197.662L680.747 189.364H682.367ZM683.741 194.26C683.741 193.252 683.945 192.37 684.353 191.614C684.761 190.846 685.319 190.252 686.027 189.832C686.747 189.412 687.545 189.202 688.421 189.202C689.285 189.202 690.035 189.388 690.671 189.76C691.307 190.132 691.781 190.6 692.093 191.164V189.364H693.749V199.228H692.093V197.392C691.769 197.968 691.283 198.448 690.635 198.832C689.999 199.204 689.255 199.39 688.403 199.39C687.527 199.39 686.735 199.174 686.027 198.742C685.319 198.31 684.761 197.704 684.353 196.924C683.945 196.144 683.741 195.256 683.741 194.26ZM692.093 194.278C692.093 193.534 691.943 192.886 691.643 192.334C691.343 191.782 690.935 191.362 690.419 191.074C689.915 190.774 689.357 190.624 688.745 190.624C688.133 190.624 687.575 190.768 687.071 191.056C686.567 191.344 686.165 191.764 685.865 192.316C685.565 192.868 685.415 193.516 685.415 194.26C685.415 195.016 685.565 195.676 685.865 196.24C686.165 196.792 686.567 197.218 687.071 197.518C687.575 197.806 688.133 197.95 688.745 197.95C689.357 197.95 689.915 197.806 690.419 197.518C690.935 197.218 691.343 196.792 691.643 196.24C691.943 195.676 692.093 195.022 692.093 194.278ZM698.515 190.966C698.803 190.402 699.211 189.964 699.739 189.652C700.279 189.34 700.933 189.184 701.701 189.184V190.876H701.269C699.433 190.876 698.515 191.872 698.515 193.864V199.228H696.877V189.364H698.515V190.966ZM703.34 194.26C703.34 193.252 703.544 192.37 703.952 191.614C704.36 190.846 704.918 190.252 705.626 189.832C706.346 189.412 707.15 189.202 708.038 189.202C708.806 189.202 709.52 189.382 710.18 189.742C710.84 190.09 711.344 190.552 711.692 191.128V185.908H713.348V199.228H711.692V197.374C711.368 197.962 710.888 198.448 710.252 198.832C709.616 199.204 708.872 199.39 708.02 199.39C707.144 199.39 706.346 199.174 705.626 198.742C704.918 198.31 704.36 197.704 703.952 196.924C703.544 196.144 703.34 195.256 703.34 194.26ZM711.692 194.278C711.692 193.534 711.542 192.886 711.242 192.334C710.942 191.782 710.534 191.362 710.018 191.074C709.514 190.774 708.956 190.624 708.344 190.624C707.732 190.624 707.174 190.768 706.67 191.056C706.166 191.344 705.764 191.764 705.464 192.316C705.164 192.868 705.014 193.516 705.014 194.26C705.014 195.016 705.164 195.676 705.464 196.24C705.764 196.792 706.166 197.218 706.67 197.518C707.174 197.806 707.732 197.95 708.344 197.95C708.956 197.95 709.514 197.806 710.018 197.518C710.534 197.218 710.942 196.792 711.242 196.24C711.542 195.676 711.692 195.022 711.692 194.278ZM650.3 210.682C651.668 210.682 652.85 210.94 653.846 211.456C654.854 211.96 655.622 212.686 656.15 213.634C656.69 214.582 656.96 215.698 656.96 216.982C656.96 218.266 656.69 219.382 656.15 220.33C655.622 221.266 654.854 221.986 653.846 222.49C652.85 222.982 651.668 223.228 650.3 223.228H646.394V210.682H650.3ZM650.3 221.878C651.92 221.878 653.156 221.452 654.008 220.6C654.86 219.736 655.286 218.53 655.286 216.982C655.286 215.422 654.854 214.204 653.99 213.328C653.138 212.452 651.908 212.014 650.3 212.014H648.032V221.878H650.3ZM660.327 211.762C660.015 211.762 659.751 211.654 659.535 211.438C659.319 211.222 659.211 210.958 659.211 210.646C659.211 210.334 659.319 210.07 659.535 209.854C659.751 209.638 660.015 209.53 660.327 209.53C660.627 209.53 660.879 209.638 661.083 209.854C661.299 210.07 661.407 210.334 661.407 210.646C661.407 210.958 661.299 211.222 661.083 211.438C660.879 211.654 660.627 211.762 660.327 211.762ZM661.119 213.364V223.228H659.481V213.364H661.119ZM667.762 223.39C667.006 223.39 666.328 223.264 665.728 223.012C665.128 222.748 664.654 222.388 664.306 221.932C663.958 221.464 663.766 220.93 663.73 220.33H665.422C665.47 220.822 665.698 221.224 666.106 221.536C666.526 221.848 667.072 222.004 667.744 222.004C668.368 222.004 668.86 221.866 669.22 221.59C669.58 221.314 669.76 220.966 669.76 220.546C669.76 220.114 669.568 219.796 669.184 219.592C668.8 219.376 668.206 219.166 667.402 218.962C666.67 218.77 666.07 218.578 665.602 218.386C665.146 218.182 664.75 217.888 664.414 217.504C664.09 217.108 663.928 216.592 663.928 215.956C663.928 215.452 664.078 214.99 664.378 214.57C664.678 214.15 665.104 213.82 665.656 213.58C666.208 213.328 666.838 213.202 667.546 213.202C668.638 213.202 669.52 213.478 670.192 214.03C670.864 214.582 671.224 215.338 671.272 216.298H669.634C669.598 215.782 669.388 215.368 669.004 215.056C668.632 214.744 668.128 214.588 667.492 214.588C666.904 214.588 666.436 214.714 666.088 214.966C665.74 215.218 665.566 215.548 665.566 215.956C665.566 216.28 665.668 216.55 665.872 216.766C666.088 216.97 666.352 217.138 666.664 217.27C666.988 217.39 667.432 217.528 667.996 217.684C668.704 217.876 669.28 218.068 669.724 218.26C670.168 218.44 670.546 218.716 670.858 219.088C671.182 219.46 671.35 219.946 671.362 220.546C671.362 221.086 671.212 221.572 670.912 222.004C670.612 222.436 670.186 222.778 669.634 223.03C669.094 223.27 668.47 223.39 667.762 223.39ZM676.033 214.714V220.528C676.033 221.008 676.135 221.35 676.339 221.554C676.543 221.746 676.897 221.842 677.401 221.842H678.607V223.228H677.131C676.219 223.228 675.535 223.018 675.079 222.598C674.623 222.178 674.395 221.488 674.395 220.528V214.714H673.117V213.364H674.395V210.88H676.033V213.364H678.607V214.714H676.033ZM682.589 214.966C682.877 214.402 683.285 213.964 683.813 213.652C684.353 213.34 685.007 213.184 685.775 213.184V214.876H685.343C683.507 214.876 682.589 215.872 682.589 217.864V223.228H680.951V213.364H682.589V214.966ZM688.872 211.762C688.56 211.762 688.296 211.654 688.08 211.438C687.864 211.222 687.756 210.958 687.756 210.646C687.756 210.334 687.864 210.07 688.08 209.854C688.296 209.638 688.56 209.53 688.872 209.53C689.172 209.53 689.424 209.638 689.628 209.854C689.844 210.07 689.952 210.334 689.952 210.646C689.952 210.958 689.844 211.222 689.628 211.438C689.424 211.654 689.172 211.762 688.872 211.762ZM689.664 213.364V223.228H688.026V213.364H689.664ZM694.454 215.2C694.79 214.612 695.282 214.132 695.93 213.76C696.578 213.388 697.316 213.202 698.144 213.202C699.032 213.202 699.83 213.412 700.538 213.832C701.246 214.252 701.804 214.846 702.212 215.614C702.62 216.37 702.824 217.252 702.824 218.26C702.824 219.256 702.62 220.144 702.212 220.924C701.804 221.704 701.24 222.31 700.52 222.742C699.812 223.174 699.02 223.39 698.144 223.39C697.292 223.39 696.542 223.204 695.894 222.832C695.258 222.46 694.778 221.986 694.454 221.41V223.228H692.816V209.908H694.454V215.2ZM701.15 218.26C701.15 217.516 701 216.868 700.7 216.316C700.4 215.764 699.992 215.344 699.476 215.056C698.972 214.768 698.414 214.624 697.802 214.624C697.202 214.624 696.644 214.774 696.128 215.074C695.624 215.362 695.216 215.788 694.904 216.352C694.604 216.904 694.454 217.546 694.454 218.278C694.454 219.022 694.604 219.676 694.904 220.24C695.216 220.792 695.624 221.218 696.128 221.518C696.644 221.806 697.202 221.95 697.802 221.95C698.414 221.95 698.972 221.806 699.476 221.518C699.992 221.218 700.4 220.792 700.7 220.24C701 219.676 701.15 219.016 701.15 218.26ZM714.088 213.364V223.228H712.45V221.77C712.138 222.274 711.7 222.67 711.136 222.958C710.584 223.234 709.972 223.372 709.3 223.372C708.532 223.372 707.842 223.216 707.23 222.904C706.618 222.58 706.132 222.1 705.772 221.464C705.424 220.828 705.25 220.054 705.25 219.142V213.364H706.87V218.926C706.87 219.898 707.116 220.648 707.608 221.176C708.1 221.692 708.772 221.95 709.624 221.95C710.5 221.95 711.19 221.68 711.694 221.14C712.198 220.6 712.45 219.814 712.45 218.782V213.364H714.088ZM719.212 214.714V220.528C719.212 221.008 719.314 221.35 719.518 221.554C719.722 221.746 720.076 221.842 720.58 221.842H721.786V223.228H720.31C719.398 223.228 718.714 223.018 718.258 222.598C717.802 222.178 717.574 221.488 717.574 220.528V214.714H716.296V213.364H717.574V210.88H719.212V213.364H721.786V214.714H719.212ZM724.976 211.762C724.664 211.762 724.4 211.654 724.184 211.438C723.968 211.222 723.86 210.958 723.86 210.646C723.86 210.334 723.968 210.07 724.184 209.854C724.4 209.638 724.664 209.53 724.976 209.53C725.276 209.53 725.528 209.638 725.732 209.854C725.948 210.07 726.056 210.334 726.056 210.646C726.056 210.958 725.948 211.222 725.732 211.438C725.528 211.654 725.276 211.762 724.976 211.762ZM725.768 213.364V223.228H724.13V213.364H725.768ZM733.222 223.39C732.298 223.39 731.458 223.18 730.702 222.76C729.958 222.34 729.37 221.746 728.938 220.978C728.518 220.198 728.308 219.298 728.308 218.278C728.308 217.27 728.524 216.382 728.956 215.614C729.4 214.834 730 214.24 730.756 213.832C731.512 213.412 732.358 213.202 733.294 213.202C734.23 213.202 735.076 213.412 735.832 213.832C736.588 214.24 737.182 214.828 737.614 215.596C738.058 216.364 738.28 217.258 738.28 218.278C738.28 219.298 738.052 220.198 737.596 220.978C737.152 221.746 736.546 222.34 735.778 222.76C735.01 223.18 734.158 223.39 733.222 223.39ZM733.222 221.95C733.81 221.95 734.362 221.812 734.878 221.536C735.394 221.26 735.808 220.846 736.12 220.294C736.444 219.742 736.606 219.07 736.606 218.278C736.606 217.486 736.45 216.814 736.138 216.262C735.826 215.71 735.418 215.302 734.914 215.038C734.41 214.762 733.864 214.624 733.276 214.624C732.676 214.624 732.124 214.762 731.62 215.038C731.128 215.302 730.732 215.71 730.432 216.262C730.132 216.814 729.982 217.486 729.982 218.278C729.982 219.082 730.126 219.76 730.414 220.312C730.714 220.864 731.11 221.278 731.602 221.554C732.094 221.818 732.634 221.95 733.222 221.95ZM745.6 213.184C746.8 213.184 747.772 213.55 748.516 214.282C749.26 215.002 749.632 216.046 749.632 217.414V223.228H748.012V217.648C748.012 216.664 747.766 215.914 747.274 215.398C746.782 214.87 746.11 214.606 745.258 214.606C744.394 214.606 743.704 214.876 743.188 215.416C742.684 215.956 742.432 216.742 742.432 217.774V223.228H740.794V213.364H742.432V214.768C742.756 214.264 743.194 213.874 743.746 213.598C744.31 213.322 744.928 213.184 745.6 213.184Z" fill="white"/>
<path d="M689.223 3.70373L868.3 3.70374L847.328 78.7037L668.25 78.7037L689.223 3.70373Z" stroke="#FF005C"/>
<path d="M717.659 47.3297C716.831 47.3297 716.087 47.1857 715.427 46.8977C714.779 46.5977 714.269 46.1897 713.897 45.6737C713.525 45.1457 713.333 44.5397 713.321 43.8557H715.067C715.127 44.4437 715.367 44.9417 715.787 45.3497C716.219 45.7457 716.843 45.9437 717.659 45.9437C718.439 45.9437 719.051 45.7517 719.495 45.3677C719.951 44.9717 720.179 44.4677 720.179 43.8557C720.179 43.3757 720.047 42.9857 719.783 42.6857C719.519 42.3857 719.189 42.1577 718.793 42.0017C718.397 41.8457 717.863 41.6777 717.191 41.4977C716.363 41.2817 715.697 41.0657 715.193 40.8497C714.701 40.6337 714.275 40.2977 713.915 39.8417C713.567 39.3737 713.393 38.7497 713.393 37.9697C713.393 37.2857 713.567 36.6797 713.915 36.1517C714.263 35.6237 714.749 35.2157 715.373 34.9277C716.009 34.6397 716.735 34.4957 717.551 34.4957C718.727 34.4957 719.687 34.7897 720.431 35.3777C721.187 35.9657 721.613 36.7457 721.709 37.7177H719.909C719.849 37.2377 719.597 36.8177 719.153 36.4577C718.709 36.0857 718.121 35.8997 717.389 35.8997C716.705 35.8997 716.147 36.0797 715.715 36.4397C715.283 36.7877 715.067 37.2797 715.067 37.9157C715.067 38.3717 715.193 38.7437 715.445 39.0317C715.709 39.3197 716.027 39.5417 716.399 39.6977C716.783 39.8417 717.317 40.0097 718.001 40.2017C718.829 40.4297 719.495 40.6577 719.999 40.8857C720.503 41.1017 720.935 41.4437 721.295 41.9117C721.655 42.3677 721.835 42.9917 721.835 43.7837C721.835 44.3957 721.673 44.9717 721.349 45.5117C721.025 46.0517 720.545 46.4897 719.909 46.8257C719.273 47.1617 718.523 47.3297 717.659 47.3297ZM726.603 38.6897V44.5037C726.603 44.9837 726.705 45.3257 726.909 45.5297C727.113 45.7217 727.467 45.8177 727.971 45.8177H729.177V47.2037H727.701C726.789 47.2037 726.105 46.9937 725.649 46.5737C725.193 46.1537 724.965 45.4637 724.965 44.5037V38.6897H723.687V37.3397H724.965V34.8557H726.603V37.3397H729.177V38.6897H726.603ZM730.91 42.2357C730.91 41.2277 731.114 40.3457 731.522 39.5897C731.93 38.8217 732.488 38.2277 733.196 37.8077C733.916 37.3877 734.714 37.1777 735.59 37.1777C736.454 37.1777 737.204 37.3637 737.84 37.7357C738.476 38.1077 738.95 38.5757 739.262 39.1397V37.3397H740.918V47.2037H739.262V45.3677C738.938 45.9437 738.452 46.4237 737.804 46.8077C737.168 47.1797 736.424 47.3657 735.572 47.3657C734.696 47.3657 733.904 47.1497 733.196 46.7177C732.488 46.2857 731.93 45.6797 731.522 44.8997C731.114 44.1197 730.91 43.2317 730.91 42.2357ZM739.262 42.2537C739.262 41.5097 739.112 40.8617 738.812 40.3097C738.512 39.7577 738.104 39.3377 737.588 39.0497C737.084 38.7497 736.526 38.5997 735.914 38.5997C735.302 38.5997 734.744 38.7437 734.24 39.0317C733.736 39.3197 733.334 39.7397 733.034 40.2917C732.734 40.8437 732.584 41.4917 732.584 42.2357C732.584 42.9917 732.734 43.6517 733.034 44.2157C733.334 44.7677 733.736 45.1937 734.24 45.4937C734.744 45.7817 735.302 45.9257 735.914 45.9257C736.526 45.9257 737.084 45.7817 737.588 45.4937C738.104 45.1937 738.512 44.7677 738.812 44.2157C739.112 43.6517 739.262 42.9977 739.262 42.2537ZM749.554 47.2037L745.684 42.8477V47.2037H744.046V33.8837H745.684V41.7137L749.482 37.3397H751.768L747.124 42.2537L751.786 47.2037H749.554ZM754.516 35.7377C754.204 35.7377 753.94 35.6297 753.724 35.4137C753.508 35.1977 753.4 34.9337 753.4 34.6217C753.4 34.3097 753.508 34.0457 753.724 33.8297C753.94 33.6137 754.204 33.5057 754.516 33.5057C754.816 33.5057 755.068 33.6137 755.272 33.8297C755.488 34.0457 755.596 34.3097 755.596 34.6217C755.596 34.9337 755.488 35.1977 755.272 35.4137C755.068 35.6297 754.816 35.7377 754.516 35.7377ZM755.308 37.3397V47.2037H753.67V37.3397H755.308ZM763.265 37.1597C764.465 37.1597 765.437 37.5257 766.181 38.2577C766.925 38.9777 767.297 40.0217 767.297 41.3897V47.2037H765.677V41.6237C765.677 40.6397 765.431 39.8897 764.939 39.3737C764.447 38.8457 763.775 38.5817 762.923 38.5817C762.059 38.5817 761.369 38.8517 760.853 39.3917C760.349 39.9317 760.097 40.7177 760.097 41.7497V47.2037H758.459V37.3397H760.097V38.7437C760.421 38.2397 760.859 37.8497 761.411 37.5737C761.975 37.2977 762.593 37.1597 763.265 37.1597ZM774.401 37.1777C775.253 37.1777 775.997 37.3637 776.633 37.7357C777.281 38.1077 777.761 38.5757 778.073 39.1397V37.3397H779.729V47.4197C779.729 48.3197 779.537 49.1177 779.153 49.8137C778.769 50.5217 778.217 51.0737 777.497 51.4697C776.789 51.8657 775.961 52.0637 775.013 52.0637C773.717 52.0637 772.637 51.7577 771.773 51.1457C770.909 50.5337 770.399 49.6997 770.243 48.6437H771.863C772.043 49.2437 772.415 49.7237 772.979 50.0837C773.543 50.4557 774.221 50.6417 775.013 50.6417C775.913 50.6417 776.645 50.3597 777.209 49.7957C777.785 49.2317 778.073 48.4397 778.073 47.4197V45.3497C777.749 45.9257 777.269 46.4057 776.633 46.7897C775.997 47.1737 775.253 47.3657 774.401 47.3657C773.525 47.3657 772.727 47.1497 772.007 46.7177C771.299 46.2857 770.741 45.6797 770.333 44.8997C769.925 44.1197 769.721 43.2317 769.721 42.2357C769.721 41.2277 769.925 40.3457 770.333 39.5897C770.741 38.8217 771.299 38.2277 772.007 37.8077C772.727 37.3877 773.525 37.1777 774.401 37.1777ZM778.073 42.2537C778.073 41.5097 777.923 40.8617 777.623 40.3097C777.323 39.7577 776.915 39.3377 776.399 39.0497C775.895 38.7497 775.337 38.5997 774.725 38.5997C774.113 38.5997 773.555 38.7437 773.051 39.0317C772.547 39.3197 772.145 39.7397 771.845 40.2917C771.545 40.8437 771.395 41.4917 771.395 42.2357C771.395 42.9917 771.545 43.6517 771.845 44.2157C772.145 44.7677 772.547 45.1937 773.051 45.4937C773.555 45.7817 774.113 45.9257 774.725 45.9257C775.337 45.9257 775.895 45.7817 776.399 45.4937C776.915 45.1937 777.323 44.7677 777.623 44.2157C777.923 43.6517 778.073 42.9977 778.073 42.2537ZM796.404 38.3297C796.404 39.3737 796.044 40.2437 795.324 40.9397C794.616 41.6237 793.53 41.9657 792.066 41.9657H789.654V47.2037H788.016V34.6577H792.066C793.482 34.6577 794.556 34.9997 795.288 35.6837C796.032 36.3677 796.404 37.2497 796.404 38.3297ZM792.066 40.6157C792.978 40.6157 793.65 40.4177 794.082 40.0217C794.514 39.6257 794.73 39.0617 794.73 38.3297C794.73 36.7817 793.842 36.0077 792.066 36.0077H789.654V40.6157H792.066ZM803.102 47.3657C802.178 47.3657 801.338 47.1557 800.582 46.7357C799.838 46.3157 799.25 45.7217 798.818 44.9537C798.398 44.1737 798.188 43.2737 798.188 42.2537C798.188 41.2457 798.404 40.3577 798.836 39.5897C799.28 38.8097 799.88 38.2157 800.636 37.8077C801.392 37.3877 802.238 37.1777 803.174 37.1777C804.11 37.1777 804.956 37.3877 805.712 37.8077C806.468 38.2157 807.062 38.8037 807.494 39.5717C807.938 40.3397 808.16 41.2337 808.16 42.2537C808.16 43.2737 807.932 44.1737 807.476 44.9537C807.032 45.7217 806.426 46.3157 805.658 46.7357C804.89 47.1557 804.038 47.3657 803.102 47.3657ZM803.102 45.9257C803.69 45.9257 804.242 45.7877 804.758 45.5117C805.274 45.2357 805.688 44.8217 806 44.2697C806.324 43.7177 806.486 43.0457 806.486 42.2537C806.486 41.4617 806.33 40.7897 806.018 40.2377C805.706 39.6857 805.298 39.2777 804.794 39.0137C804.29 38.7377 803.744 38.5997 803.156 38.5997C802.556 38.5997 802.004 38.7377 801.5 39.0137C801.008 39.2777 800.612 39.6857 800.312 40.2377C800.012 40.7897 799.862 41.4617 799.862 42.2537C799.862 43.0577 800.006 43.7357 800.294 44.2877C800.594 44.8397 800.99 45.2537 801.482 45.5297C801.974 45.7937 802.514 45.9257 803.102 45.9257ZM814.975 47.3657C814.051 47.3657 813.211 47.1557 812.455 46.7357C811.711 46.3157 811.123 45.7217 810.691 44.9537C810.271 44.1737 810.061 43.2737 810.061 42.2537C810.061 41.2457 810.277 40.3577 810.709 39.5897C811.153 38.8097 811.753 38.2157 812.509 37.8077C813.265 37.3877 814.111 37.1777 815.047 37.1777C815.983 37.1777 816.829 37.3877 817.585 37.8077C818.341 38.2157 818.935 38.8037 819.367 39.5717C819.811 40.3397 820.033 41.2337 820.033 42.2537C820.033 43.2737 819.805 44.1737 819.349 44.9537C818.905 45.7217 818.299 46.3157 817.531 46.7357C816.763 47.1557 815.911 47.3657 814.975 47.3657ZM814.975 45.9257C815.563 45.9257 816.115 45.7877 816.631 45.5117C817.147 45.2357 817.561 44.8217 817.873 44.2697C818.197 43.7177 818.359 43.0457 818.359 42.2537C818.359 41.4617 818.203 40.7897 817.891 40.2377C817.579 39.6857 817.171 39.2777 816.667 39.0137C816.163 38.7377 815.617 38.5997 815.029 38.5997C814.429 38.5997 813.877 38.7377 813.373 39.0137C812.881 39.2777 812.485 39.6857 812.185 40.2377C811.885 40.7897 811.735 41.4617 811.735 42.2537C811.735 43.0577 811.879 43.7357 812.167 44.2877C812.467 44.8397 812.863 45.2537 813.355 45.5297C813.847 45.7937 814.387 45.9257 814.975 45.9257ZM824.185 33.8837V47.2037H822.547V33.8837H824.185Z" fill="white"/>
<path d="M689.223 299.704L868.3 299.704L847.328 374.704L668.25 374.704L689.223 299.704Z" stroke="#FF005C"/>
<path d="M734.365 334.33C734.365 335.374 734.005 336.244 733.285 336.94C732.577 337.624 731.491 337.966 730.027 337.966H727.615V343.204H725.977V330.658H730.027C731.443 330.658 732.517 331 733.249 331.684C733.993 332.368 734.365 333.25 734.365 334.33ZM730.027 336.616C730.939 336.616 731.611 336.418 732.043 336.022C732.475 335.626 732.691 335.062 732.691 334.33C732.691 332.782 731.803 332.008 730.027 332.008H727.615V336.616H730.027ZM738.399 334.942C738.687 334.378 739.095 333.94 739.623 333.628C740.163 333.316 740.817 333.16 741.585 333.16V334.852H741.153C739.317 334.852 738.399 335.848 738.399 337.84V343.204H736.761V333.34H738.399V334.942ZM744.681 331.738C744.369 331.738 744.105 331.63 743.889 331.414C743.673 331.198 743.565 330.934 743.565 330.622C743.565 330.31 743.673 330.046 743.889 329.83C744.105 329.614 744.369 329.506 744.681 329.506C744.981 329.506 745.233 329.614 745.437 329.83C745.653 330.046 745.761 330.31 745.761 330.622C745.761 330.934 745.653 331.198 745.437 331.414C745.233 331.63 744.981 331.738 744.681 331.738ZM745.473 333.34V343.204H743.835V333.34H745.473ZM749.849 341.854H754.691V343.204H747.977V341.854L752.765 334.672H748.013V333.34H754.655V334.672L749.849 341.854ZM766.177 337.894C766.177 338.206 766.159 338.536 766.123 338.884H758.239C758.299 339.856 758.629 340.618 759.229 341.17C759.841 341.71 760.579 341.98 761.443 341.98C762.151 341.98 762.739 341.818 763.207 341.494C763.687 341.158 764.023 340.714 764.215 340.162H765.979C765.715 341.11 765.187 341.884 764.395 342.484C763.603 343.072 762.619 343.366 761.443 343.366C760.507 343.366 759.667 343.156 758.923 342.736C758.191 342.316 757.615 341.722 757.195 340.954C756.775 340.174 756.565 339.274 756.565 338.254C756.565 337.234 756.769 336.34 757.177 335.572C757.585 334.804 758.155 334.216 758.887 333.808C759.631 333.388 760.483 333.178 761.443 333.178C762.379 333.178 763.207 333.382 763.927 333.79C764.647 334.198 765.199 334.762 765.583 335.482C765.979 336.19 766.177 336.994 766.177 337.894ZM764.485 337.552C764.485 336.928 764.347 336.394 764.071 335.95C763.795 335.494 763.417 335.152 762.937 334.924C762.469 334.684 761.947 334.564 761.371 334.564C760.543 334.564 759.835 334.828 759.247 335.356C758.671 335.884 758.341 336.616 758.257 337.552H764.485ZM782.246 334.33C782.246 335.374 781.886 336.244 781.166 336.94C780.458 337.624 779.372 337.966 777.908 337.966H775.496V343.204H773.858V330.658H777.908C779.324 330.658 780.398 331 781.13 331.684C781.874 332.368 782.246 333.25 782.246 334.33ZM777.908 336.616C778.82 336.616 779.492 336.418 779.924 336.022C780.356 335.626 780.572 335.062 780.572 334.33C780.572 332.782 779.684 332.008 777.908 332.008H775.496V336.616H777.908ZM788.943 343.366C788.019 343.366 787.179 343.156 786.423 342.736C785.679 342.316 785.091 341.722 784.659 340.954C784.239 340.174 784.029 339.274 784.029 338.254C784.029 337.246 784.245 336.358 784.677 335.59C785.121 334.81 785.721 334.216 786.477 333.808C787.233 333.388 788.079 333.178 789.015 333.178C789.951 333.178 790.797 333.388 791.553 333.808C792.309 334.216 792.903 334.804 793.335 335.572C793.779 336.34 794.001 337.234 794.001 338.254C794.001 339.274 793.773 340.174 793.317 340.954C792.873 341.722 792.267 342.316 791.499 342.736C790.731 343.156 789.879 343.366 788.943 343.366ZM788.943 341.926C789.531 341.926 790.083 341.788 790.599 341.512C791.115 341.236 791.529 340.822 791.841 340.27C792.165 339.718 792.327 339.046 792.327 338.254C792.327 337.462 792.171 336.79 791.859 336.238C791.547 335.686 791.139 335.278 790.635 335.014C790.131 334.738 789.585 334.6 788.997 334.6C788.397 334.6 787.845 334.738 787.341 335.014C786.849 335.278 786.453 335.686 786.153 336.238C785.853 336.79 785.703 337.462 785.703 338.254C785.703 339.058 785.847 339.736 786.135 340.288C786.435 340.84 786.831 341.254 787.323 341.53C787.815 341.794 788.355 341.926 788.943 341.926ZM800.817 343.366C799.893 343.366 799.053 343.156 798.297 342.736C797.553 342.316 796.965 341.722 796.533 340.954C796.113 340.174 795.903 339.274 795.903 338.254C795.903 337.246 796.119 336.358 796.551 335.59C796.995 334.81 797.595 334.216 798.351 333.808C799.107 333.388 799.953 333.178 800.889 333.178C801.825 333.178 802.671 333.388 803.427 333.808C804.183 334.216 804.777 334.804 805.209 335.572C805.653 336.34 805.875 337.234 805.875 338.254C805.875 339.274 805.647 340.174 805.191 340.954C804.747 341.722 804.141 342.316 803.373 342.736C802.605 343.156 801.753 343.366 800.817 343.366ZM800.817 341.926C801.405 341.926 801.957 341.788 802.473 341.512C802.989 341.236 803.403 340.822 803.715 340.27C804.039 339.718 804.201 339.046 804.201 338.254C804.201 337.462 804.045 336.79 803.733 336.238C803.421 335.686 803.013 335.278 802.509 335.014C802.005 334.738 801.459 334.6 800.871 334.6C800.271 334.6 799.719 334.738 799.215 335.014C798.723 335.278 798.327 335.686 798.027 336.238C797.727 336.79 797.577 337.462 797.577 338.254C797.577 339.058 797.721 339.736 798.009 340.288C798.309 340.84 798.705 341.254 799.197 341.53C799.689 341.794 800.229 341.926 800.817 341.926ZM810.027 329.884V343.204H808.389V329.884H810.027Z" fill="white"/>
</svg>
