<svg width="76" height="77" viewBox="0 0 76 77" fill="none" xmlns="http://www.w3.org/2000/svg">
<g clip-path="url(#clip0_152_430)">
<path d="M51.726 70.9572C51.6419 70.9572 51.5603 70.9068 51.5242 70.8253C51.4762 70.715 51.5266 70.5855 51.6395 70.5375C54.9446 69.1204 57.4642 67.6817 59.5683 66.0104C60.4762 65.3918 61.2905 64.6413 62.0783 63.9171C62.4025 63.6174 62.7292 63.3177 63.0607 63.0275C63.3945 62.6918 63.7284 62.3202 64.0527 61.9629C64.2376 61.7591 64.4226 61.5529 64.6075 61.3514L65.3809 60.5002C65.5323 60.3156 65.6812 60.1166 65.8301 59.9151L67.4466 57.7571L68.8469 55.4576C68.9742 55.249 69.1015 55.0404 69.2216 54.8293L69.7164 53.8031C69.8317 53.5609 69.9494 53.3163 70.0695 53.0717C70.2857 52.6281 70.5042 52.1821 70.7036 51.729L71.4914 49.5805C71.5347 49.4558 71.5827 49.3263 71.6307 49.1968C71.7148 48.9714 71.8013 48.7437 71.8637 48.5135L72.1496 47.4009C72.2144 47.1371 72.2841 46.871 72.3537 46.6048C72.4786 46.13 72.6035 45.6553 72.7068 45.1757L73.0527 42.9121C73.0719 42.7922 73.1776 42.7131 73.3025 42.7299C73.4226 42.7491 73.5042 42.8594 73.485 42.9793L73.1367 45.2548C73.0311 45.7512 72.9038 46.2331 72.7765 46.7127C72.7068 46.9765 72.6395 47.2402 72.5723 47.504L72.2841 48.6214C72.2168 48.8707 72.1255 49.1105 72.0367 49.3479C71.9886 49.4726 71.943 49.5973 71.8998 49.7244L71.1047 51.8896C70.8982 52.3596 70.6796 52.8104 70.461 53.2612C70.3433 53.5033 70.2256 53.7431 70.1103 53.9877L69.6107 55.026C69.4834 55.2562 69.3513 55.4696 69.2216 55.683L67.8117 57.9993L66.1832 60.1741C66.0294 60.3803 65.8781 60.5865 65.7148 60.7856L64.9342 61.6464C64.7468 61.8478 64.5643 62.0516 64.3793 62.2554C64.0527 62.6175 63.714 62.9916 63.3633 63.3464C63.0246 63.6462 62.7004 63.9435 62.3785 64.2384C61.5811 64.9746 60.7524 65.7347 59.8325 66.3629C57.7116 68.0486 55.1608 69.5065 51.8173 70.9404C51.7885 70.9524 51.7596 70.9572 51.7308 70.9572H51.726Z" fill="#718787"/>
<path d="M74.645 51.7001C74.9909 50.7937 75.2215 49.9017 75.0654 49.0721C74.9429 48.252 74.6138 47.5543 74.0902 47.0771C73.8452 46.8517 73.4177 46.5496 72.7427 46.3961C72.7019 46.5256 72.553 47.01 72.5386 47.6646C72.5314 47.9931 72.5554 48.3647 72.6418 48.7604C72.7235 49.1536 72.8196 49.5589 73.0334 49.9761C73.5233 50.964 74.2944 51.4939 74.645 51.6977V51.7001Z" fill="#718787"/>
<path d="M71.1528 48.9499C72.5819 48.1658 72.6155 46.5425 72.6372 46.4154C72.2312 46.3554 71.734 46.3411 71.1936 46.449C70.168 46.6528 69.4282 47.1899 68.931 47.703C68.3785 48.2018 68.0543 48.6837 67.9702 48.8228C68.0519 48.8516 69.5723 49.7747 71.1552 48.9499H71.1528Z" fill="#718787"/>
<path d="M73.0645 55.1291C73.4873 54.2874 73.7875 53.4458 73.7251 52.6353C73.6842 51.832 73.4344 51.1247 72.9733 50.6092C72.7595 50.367 72.3728 50.0313 71.7363 49.8179C71.6834 49.9378 71.4937 50.3933 71.4168 51.0264C71.3784 51.3429 71.3664 51.705 71.412 52.0958C71.4408 52.4795 71.5033 52.8847 71.6666 53.3091C72.0485 54.3114 72.7403 54.8989 73.0621 55.1291H73.0645Z" fill="#718787"/>
<path d="M69.9493 52.1318C70.7132 51.8416 71.0806 51.2685 71.3256 50.789C71.561 50.3046 71.6259 49.8946 71.6355 49.825C71.2488 49.7267 70.7708 49.6644 70.2352 49.7147C69.224 49.8131 68.4553 50.2591 67.9245 50.7098C67.3312 51.1367 66.9782 51.5755 66.8821 51.7025C66.9565 51.7385 68.34 52.7792 69.9517 52.1318H69.9493Z" fill="#718787"/>
<path d="M71.2848 58.1695C72.3489 56.6661 72.3993 54.8653 71.6067 53.7959C71.4217 53.5417 71.0807 53.1821 70.485 52.9159C70.4225 53.0262 70.1968 53.4506 70.0599 54.0549C69.9278 54.6615 69.8893 55.4528 70.0983 56.2872C70.3745 57.2895 70.9918 57.9178 71.2824 58.1695H71.2848Z" fill="#718787"/>
<path d="M68.5443 54.9948C70.0047 54.5224 70.3433 53.0309 70.3842 52.9159C70.0191 52.784 69.5627 52.6785 69.0391 52.6785C68.0495 52.6785 67.2617 53.0429 66.7044 53.4314C66.1087 53.8007 65.71 54.1867 65.6091 54.3042C65.6788 54.3474 66.923 55.4743 68.5443 54.9948V54.9948Z" fill="#718787"/>
<path d="M69.2385 61.0277C70.4034 59.6777 70.6028 57.9369 69.9446 56.8363C69.7885 56.5749 69.4931 56.1961 68.9431 55.882C68.8734 55.9827 68.614 56.3711 68.4266 56.9418C68.2345 57.5101 68.1408 58.2822 68.2657 59.1046C68.441 60.0949 68.9815 60.7591 69.2409 61.0277H69.2385Z" fill="#718787"/>
<path d="M66.875 57.7163C68.3161 57.383 68.7941 55.9826 68.8421 55.8723C68.5035 55.7117 68.0687 55.5678 67.5643 55.5199C66.6084 55.4287 65.8109 55.7093 65.2321 56.033C64.6364 56.3471 64.2016 56.678 64.0959 56.7835C64.1584 56.8315 65.2609 58.0304 66.875 57.7163V57.7163Z" fill="#718787"/>
<path d="M66.9446 63.6772C68.1936 62.4879 68.5274 60.8166 67.999 59.6992C67.8741 59.4331 67.6219 59.0398 67.1175 58.6849C66.9397 58.8624 66.0246 60.0949 66.1735 61.735C66.2528 62.7061 66.7164 63.3919 66.9421 63.6748L66.9446 63.6772Z" fill="#718787"/>
<path d="M64.9607 60.2723C66.3706 60.0685 66.9735 58.7737 67.0263 58.6682C66.7141 58.4812 66.3081 58.3037 65.8253 58.2102C64.9102 58.0352 64.1128 58.2318 63.5219 58.4955C62.931 58.7593 62.4675 59.0303 62.3594 59.1262C62.4146 59.1789 63.3706 60.433 64.9631 60.2747L64.9607 60.2723Z" fill="#718787"/>
<path d="M64.425 66.0991C65.0639 65.5716 65.5395 64.9434 65.7509 64.26C65.979 63.5934 66.0055 62.934 65.7965 62.3609C65.7004 62.0924 65.4939 61.6895 65.0399 61.3035C64.8573 61.4593 63.8485 62.5575 63.8557 64.1617C63.8437 65.104 64.2328 65.8066 64.425 66.0991V66.0991Z" fill="#718787"/>
<path d="M62.818 62.6413C64.1871 62.5598 64.8957 61.3753 64.9533 61.277C64.6675 61.0684 64.2928 60.8574 63.8364 60.7255C62.9693 60.4713 62.1791 60.5912 61.5834 60.7926C60.9998 61.006 60.517 61.217 60.4065 61.3034C60.4569 61.3585 61.2664 62.6533 62.818 62.6461V62.6413Z" fill="#718787"/>
<path d="M61.7013 68.2788C62.0304 68.051 62.3234 67.7992 62.5732 67.5306C62.8134 67.2477 62.9935 66.9336 63.1376 66.6267C63.4187 66.0056 63.5027 65.375 63.3538 64.8043C63.2842 64.5358 63.1232 64.1305 62.7221 63.7157C62.5324 63.8524 61.4515 64.8067 61.3266 66.3677C61.2305 67.2717 61.5428 67.9838 61.7013 68.2812V68.2788Z" fill="#718787"/>
<path d="M60.4596 64.8043C61.7806 64.8403 62.5781 63.7732 62.6405 63.6797C62.3859 63.4519 62.0424 63.2169 61.6125 63.0443C59.984 62.4041 58.538 63.2193 58.2522 63.2961C58.293 63.3536 58.9632 64.6748 60.4596 64.8043V64.8043Z" fill="#718787"/>
<path d="M58.9992 70.0698C59.6885 69.715 60.1857 69.1563 60.51 68.588C60.8342 68.0173 60.9711 67.4202 60.8775 66.8592C60.8342 66.5954 60.7141 66.1926 60.3635 65.7585C60.1761 65.8832 59.0232 66.6721 58.7974 68.1995C58.6317 69.0652 58.8695 69.7677 58.9992 70.0698V70.0698Z" fill="#718787"/>
<path d="M58.0791 66.6027C59.3521 66.7538 60.2168 65.8019 60.2865 65.7179C60.0583 65.4781 59.7509 65.2192 59.3497 65.0178C57.8197 64.2385 56.3762 64.941 56.0903 64.989C56.1168 65.0345 56.6764 66.4013 58.0791 66.6051V66.6027Z" fill="#718787"/>
<path d="M56.3762 71.5229C57.6949 70.8323 58.5187 69.6526 58.4275 68.5736C58.4082 68.3194 58.3266 67.9213 58.0215 67.4753C57.8294 67.5784 56.6476 68.2283 56.3041 69.6694C56.1 70.5302 56.2777 71.2279 56.3762 71.5229Z" fill="#718787"/>
<path d="M55.7396 68.0821C56.9622 68.3387 57.8773 67.5043 57.9518 67.4299C57.7524 67.1805 57.4738 66.9072 57.1039 66.677C55.6939 65.8138 54.2048 66.3077 53.9622 66.3965C53.991 66.4564 54.4113 67.7896 55.7396 68.0797V68.0821Z" fill="#718787"/>
<path d="M53.6356 72.7291C54.9494 72.1584 55.8502 71.1322 55.8478 70.0795C55.8454 69.8254 55.7901 69.4273 55.5355 68.9741C55.3698 69.1036 54.152 69.5832 53.71 70.9379C53.441 71.734 53.5611 72.4294 53.638 72.7291H53.6356Z" fill="#718787"/>
<path d="M53.2897 69.3722C54.4474 69.7175 55.4154 69.0341 55.473 68.9262C55.3025 68.672 55.0623 68.3939 54.7284 68.1541C53.4386 67.2022 51.9494 67.5403 51.7068 67.6026C51.7308 67.6626 52.031 68.9742 53.2897 69.3698V69.3722Z" fill="#718787"/>
<path d="M53.1984 70.0842C52.9318 69.559 51.9518 69.6286 51.8029 69.6358C50.4386 69.6022 49.4946 70.734 49.2136 71.0673C50.2224 71.9401 51.5099 72.1895 52.3794 71.6979C52.9366 71.3742 53.4386 70.5541 53.1984 70.0842Z" fill="#718787"/>
<path d="M38.4315 73.4939C34.3122 73.4939 30.3178 72.7985 26.6381 71.427C24.0656 70.571 21.4523 69.2306 18.4211 67.2068L16.5644 65.8209C16.1489 65.5355 15.7766 65.1854 15.4139 64.8473C15.2169 64.6627 15.0175 64.4781 14.8134 64.303C13.8838 63.5261 13.0624 62.6174 12.2697 61.7374C12.0416 61.4856 11.8158 61.2338 11.5852 60.9868C11.5035 60.8981 11.5083 60.759 11.5972 60.6775C11.6885 60.596 11.8278 60.6032 11.9071 60.6895C12.1376 60.9413 12.3658 61.193 12.594 61.4472C13.377 62.3152 14.1865 63.212 15.0944 63.9697C15.3058 64.1496 15.5099 64.339 15.7117 64.5284C16.0624 64.8545 16.4227 65.1926 16.8166 65.466L18.6709 66.8495C21.6613 68.8445 24.2409 70.1681 26.7822 71.0146C32.3018 73.0743 38.542 73.585 44.8398 72.4988C44.9647 72.4748 45.0728 72.5588 45.0944 72.6763C45.116 72.7961 45.0344 72.9088 44.9167 72.9304C42.7381 73.3069 40.5668 73.4939 38.4315 73.4939V73.4939Z" fill="#718787"/>
<path d="M36.9663 76.7094C37.4515 76.7502 37.9223 76.743 38.3666 76.6854C38.8086 76.6231 39.2241 76.4576 39.594 76.285C40.3362 75.9229 40.8983 75.4026 41.1961 74.76C41.3354 74.4602 41.4915 73.9615 41.4291 73.2733C41.1481 73.2517 39.4259 73.3308 38.1072 74.6592C37.3194 75.4194 37.0528 76.3113 36.9663 76.7094V76.7094Z" fill="#718787"/>
<path d="M38.506 72.5636C39.6949 73.609 41.2514 73.2182 41.3811 73.1822C41.3138 72.7794 41.1745 72.2998 40.9055 71.8155C40.3939 70.8995 39.6541 70.3528 39.008 70.0315C38.3618 69.739 37.8022 69.5064 37.6437 69.4872C37.6413 69.5735 37.2329 71.2975 38.5084 72.5636H38.506Z" fill="#718787"/>
<path d="M33.217 76.2755C33.6806 76.3618 34.1369 76.4002 34.5717 76.3882C35.0088 76.3522 35.422 76.2443 35.7967 76.11C36.5485 75.8319 37.1417 75.3835 37.49 74.7912C37.6533 74.5155 37.8551 74.0479 37.8599 73.3765C37.5909 73.3333 35.9168 73.2278 34.5116 74.4028C33.6782 75.0622 33.3347 75.899 33.2146 76.2755H33.217Z" fill="#718787"/>
<path d="M35.1002 72.4079C36.1499 73.5253 37.6943 73.3071 37.8216 73.2807C37.7952 72.8827 37.7063 72.4079 37.4949 71.9115C36.6783 70.0412 34.8504 69.5257 34.5574 69.3483C34.5478 69.4274 33.9857 71.0651 35.1002 72.4055V72.4079Z" fill="#718787"/>
<path d="M29.7654 75.537C30.2049 75.6569 30.6373 75.7648 31.0648 75.7576C31.4924 75.7504 31.8983 75.6976 32.2754 75.5993C33.0272 75.4027 33.6421 75.0262 34.0312 74.4867C34.2137 74.2349 34.4515 73.8033 34.5188 73.1535C34.2594 73.096 32.6597 72.7914 31.1849 73.8465C30.3202 74.4052 29.9143 75.1821 29.7654 75.5346V75.537Z" fill="#718787"/>
<path d="M31.9392 71.9473C32.8543 73.1318 34.3651 73.0695 34.49 73.0599C34.502 72.6738 34.4612 72.2039 34.2979 71.7051C33.683 69.794 31.9512 69.1658 31.6822 68.9596C31.6654 69.0243 30.9712 70.5925 31.9368 71.9473H31.9392Z" fill="#718787"/>
<path d="M26.405 74.4866C27.2169 74.851 28.084 74.8726 28.8214 74.7671C29.5636 74.6496 30.1905 74.3451 30.618 73.8607C30.8174 73.6353 31.0864 73.2397 31.2137 72.6187C30.9687 72.5419 29.4531 72.0839 27.9327 72.9711C27.0391 73.4603 26.5828 74.1533 26.405 74.4866V74.4866Z" fill="#718787"/>
<path d="M28.8333 71.1993C29.6067 72.4342 31.0695 72.5205 31.1944 72.5229C31.2425 72.1489 31.2449 71.6933 31.1344 71.1921C30.7188 69.2834 29.0999 68.5018 28.8525 68.3027C28.8333 68.3387 28.6364 68.7128 28.5307 69.2547C28.4298 69.7942 28.4106 70.5375 28.8333 71.1993Z" fill="#718787"/>
<path d="M23.1648 73.132C23.5395 73.343 23.9358 73.4749 24.3321 73.5372C24.7236 73.6091 25.108 73.6355 25.4706 73.6139C26.196 73.5708 26.8277 73.3358 27.2841 72.909C27.4979 72.71 27.7933 72.3551 27.9734 71.7652C27.7453 71.6669 26.3233 71.0794 24.7789 71.794C23.859 72.216 23.369 72.8203 23.1648 73.1344V73.132Z" fill="#718787"/>
<path d="M25.8093 70.1658C26.4435 71.4342 27.8438 71.6572 27.9639 71.6692C28.0431 71.3144 28.0912 70.8708 28.0311 70.3792C27.8029 68.5017 26.3186 67.5641 26.0832 67.3795C26.0615 67.4107 25.8358 67.7536 25.6868 68.2715C25.5355 68.7942 25.4659 69.4776 25.8093 70.1658Z" fill="#718787"/>
<path d="M20.0737 71.4894C21.5029 72.3358 23.1194 72.367 24.0633 71.6405C24.2891 71.4678 24.6062 71.1537 24.8343 70.6022C24.623 70.4847 23.3091 69.7846 21.7575 70.3289C20.8279 70.6598 20.2971 71.2089 20.0761 71.487L20.0737 71.4894Z" fill="#718787"/>
<path d="M22.8961 68.8541C23.3909 70.1394 24.7191 70.4871 24.832 70.511C24.9425 70.1754 25.029 69.7533 25.017 69.2714C24.9689 67.4442 23.6287 66.3748 23.4053 66.2021C23.3717 66.2573 22.3701 67.4586 22.8961 68.8565V68.8541Z" fill="#718787"/>
<path d="M17.1528 69.5736C18.4619 70.4943 20.0015 70.6909 20.9791 70.0747C21.2121 69.9308 21.5459 69.6551 21.8174 69.1467C21.6252 69.0149 20.4218 68.2164 18.8822 68.6C17.9599 68.8326 17.3858 69.3362 17.1528 69.576V69.5736Z" fill="#718787"/>
<path d="M20.1144 67.2789C20.4723 68.5666 21.7189 69.0221 21.8269 69.0581C21.9639 68.744 22.0864 68.3459 22.12 67.8808C22.2425 66.1136 21.0463 64.9506 20.8422 64.766C20.7989 64.8259 19.7349 65.8786 20.1144 67.2813V67.2789Z" fill="#718787"/>
<path d="M14.614 67.5545C15.8126 68.5281 17.2489 68.8757 18.2481 68.3602C18.4883 68.2331 18.8438 67.9838 19.1488 67.5186C18.9495 67.4155 17.8854 66.5043 16.3674 66.7465C15.4715 66.8807 14.8614 67.3363 14.614 67.5545Z" fill="#718787"/>
<path d="M17.6644 65.5788C17.9022 66.8472 19.0407 67.4275 19.1632 67.4347C19.3241 67.1446 19.4634 66.7849 19.5355 66.3413C19.8069 64.646 18.7572 63.4087 18.5795 63.2097C18.5339 63.2625 17.4242 64.188 17.6644 65.5788V65.5788Z" fill="#718787"/>
<path d="M12.4524 65.4803C13.5261 66.5066 14.8279 67.0149 15.8799 66.5354C16.1225 66.4323 16.4804 66.2237 16.8119 65.7992C16.7398 65.7225 16.4084 65.5019 15.9712 65.2549C15.5293 65.0104 14.9264 64.7993 14.1938 64.8473C13.3267 64.9025 12.707 65.2933 12.4524 65.4827V65.4803Z" fill="#718787"/>
<path d="M15.527 63.8234C15.5822 64.4493 15.8776 64.9264 16.1683 65.2501C16.4709 65.5594 16.7832 65.6913 16.8336 65.7177C17.009 65.4539 17.1819 65.1087 17.278 64.6962C17.6335 63.1352 16.764 61.7973 16.6006 61.603C16.5526 61.651 15.4165 62.4543 15.5294 63.8234H15.527Z" fill="#718787"/>
<path d="M10.4587 63.2527C10.9199 63.797 11.4627 64.2142 12.0104 64.4492C12.5604 64.6842 13.1657 64.689 13.6701 64.526C13.9103 64.4468 14.2706 64.2766 14.6237 63.8929C14.554 63.821 14.2826 63.5524 13.8503 63.3103C13.4179 63.0657 12.8823 62.7899 12.1737 62.7803C11.3426 62.7612 10.7205 63.0897 10.4611 63.2527H10.4587Z" fill="#718787"/>
<path d="M13.5308 61.9077C13.5043 63.1665 14.5612 63.766 14.6501 63.8187C14.8398 63.579 15.0344 63.26 15.1593 62.8692C15.594 61.4257 14.8782 60.0518 14.7389 59.8431C14.6885 59.8839 13.538 60.5697 13.5308 61.9053V61.9077Z" fill="#718787"/>
<path d="M12.8342 62.0323C13.2522 61.6175 12.9015 60.6919 12.851 60.5504C12.7357 60.2339 12.5484 59.9798 12.3586 59.7448C12.1761 59.505 11.9623 59.306 11.7462 59.1405C11.3138 58.812 10.8719 58.6226 10.6773 58.5435C10.4131 59.1645 10.3122 59.7999 10.3723 60.3682C10.4275 60.9389 10.6413 61.4448 11.0496 61.747C11.5588 62.1522 12.4499 62.4136 12.8342 62.0323Z" fill="#718787"/>
<path d="M7.72305 55.1865C7.64139 55.1865 7.56212 55.1409 7.52609 55.0618L6.52449 52.9877C6.46685 52.8654 6.4092 52.7455 6.35155 52.628C6.24107 52.4002 6.12817 52.1724 6.0297 51.9398L5.62857 50.8488C5.5349 50.5851 5.43642 50.3237 5.34034 50.0623C5.16981 49.602 4.99927 49.1416 4.84555 48.6764L4.26668 46.4344C4.23306 46.3001 4.19943 46.1707 4.1634 46.0388C4.09855 45.7942 4.0337 45.5496 3.98566 45.3026L3.46925 41.8785L3.2915 38.4089C3.2915 38.1427 3.30832 37.8886 3.32273 37.6368L3.45964 34.9392C3.51008 34.4309 3.58934 33.9297 3.6662 33.4478C3.70944 33.1792 3.75267 32.9131 3.7887 32.6445C3.9064 31.5487 4.19222 30.4697 4.47085 29.429C4.58374 28.9998 4.69903 28.5682 4.80231 28.1366C5.63098 25.6668 6.81032 22.4993 8.655 19.7202C8.72225 19.6171 8.85916 19.5931 8.95764 19.6579C9.05852 19.725 9.08734 19.8617 9.02009 19.96C7.20424 22.6959 6.0369 25.8299 5.22265 28.2565C5.12417 28.6737 5.00888 29.1077 4.89118 29.5417C4.61737 30.568 4.33634 31.6302 4.22105 32.6973C4.18262 32.9754 4.13938 33.2464 4.09615 33.5173C4.02169 33.9945 3.94242 34.4884 3.89439 34.9728L3.75748 37.6608C3.74307 37.9077 3.73106 38.1547 3.72865 38.4017L3.90399 41.8378L4.4156 45.2307C4.46124 45.4585 4.52369 45.6935 4.58374 45.9285C4.61977 46.0628 4.6558 46.1946 4.68702 46.3289L5.25868 48.5541C5.4076 49.0001 5.57573 49.4557 5.74387 49.9113C5.84235 50.175 5.93842 50.4388 6.0321 50.7026L6.42842 51.7816C6.51969 51.9974 6.62777 52.218 6.73826 52.4386C6.79831 52.5609 6.85596 52.6808 6.9136 52.8031L7.9128 54.8748C7.96565 54.9827 7.91761 55.1146 7.80952 55.1673C7.7783 55.1817 7.74707 55.1889 7.71344 55.1889L7.72305 55.1865Z" fill="#718787"/>
<path d="M1.48047 48.6765C1.65821 49.6356 2.141 50.4461 2.71025 51.0407C3.27711 51.6378 3.94004 52.0143 4.6366 52.0982C4.96326 52.139 5.48447 52.1342 6.11858 51.8608C6.03692 51.5922 5.51089 49.9545 3.7743 49.1321C2.81354 48.6165 1.88399 48.6357 1.48047 48.6765V48.6765Z" fill="#718787"/>
<path d="M5.92635 48.8539C5.29224 50.307 6.12091 51.6761 6.19537 51.7864C6.55806 51.597 6.97359 51.3164 7.35309 50.9088C8.81586 49.3526 8.51322 47.4464 8.56847 47.0939C8.50121 47.1131 6.68536 47.2713 5.92875 48.8539H5.92635Z" fill="#718787"/>
<path d="M0.743164 44.9767C0.822428 45.919 1.20914 46.7487 1.70153 47.3769C2.19152 48.0075 2.79681 48.4368 3.46454 48.5854C3.77679 48.6574 4.2812 48.7029 4.92491 48.5039C4.87207 48.2353 4.52139 46.6 2.91931 45.6361C2.0402 45.0462 1.13948 44.9767 0.745566 44.9767H0.743164Z" fill="#718787"/>
<path d="M5.0282 45.5735C4.27399 46.9163 4.94173 48.3214 5.00418 48.4365C5.37408 48.2903 5.80162 48.0577 6.20994 47.7028C7.776 46.3432 7.66551 44.4609 7.75198 44.1252C7.68472 44.1372 5.91211 44.1157 5.0258 45.5759L5.0282 45.5735Z" fill="#718787"/>
<path d="M0.387668 41.471C0.366051 42.387 0.716732 43.2166 1.10825 43.8713C1.51897 44.5259 2.06181 44.9934 2.69351 45.1997C2.98895 45.298 3.47174 45.3891 4.11065 45.2548C4.08423 44.991 3.90649 43.3725 2.45092 42.2959C1.60785 41.6509 0.781584 41.4998 0.387668 41.4686V41.471Z" fill="#718787"/>
<path d="M4.4949 42.43C3.63501 43.6625 4.14662 45.082 4.19466 45.1995C4.56695 45.0916 5.0017 44.907 5.43165 44.6001C7.06976 43.4275 7.17064 41.586 7.2451 41.2719C7.20426 41.2695 6.76952 41.2335 6.20987 41.3558C5.64782 41.4781 4.95607 41.761 4.4949 42.43Z" fill="#718787"/>
<path d="M0.346744 37.9606C0.293902 39.7302 1.08173 41.26 2.24426 41.7635C2.52048 41.8858 2.97445 42.0177 3.61096 41.9482C3.60375 41.6916 3.59655 40.109 2.2947 38.9413C1.51168 38.2435 0.71664 38.0277 0.349146 37.9606H0.346744Z" fill="#718787"/>
<path d="M4.25477 39.2506C3.30361 40.3679 3.65669 41.7827 3.69272 41.9026C4.06261 41.833 4.50217 41.6963 4.94652 41.4374C6.63027 40.4543 6.95213 38.6703 6.99536 38.3729C6.9161 38.3729 5.2996 38.0492 4.25477 39.2506V39.2506Z" fill="#718787"/>
<path d="M0.625317 34.4692C0.469192 36.1741 1.03124 37.7135 2.11931 38.3058C2.38352 38.4472 2.83028 38.6175 3.44517 38.6079C3.41395 38.3609 3.5965 36.8311 2.44357 35.589C1.76863 34.8481 0.9784 34.5652 0.625317 34.4692Z" fill="#718787"/>
<path d="M4.30753 36.0613C3.29152 37.054 3.45725 38.4544 3.52931 38.5719C3.8944 38.5383 4.30753 38.4448 4.75909 38.2362C6.48127 37.4401 6.96886 35.74 7.03852 35.4571C6.96166 35.4475 5.43163 34.9943 4.30513 36.0637L4.30753 36.0613Z" fill="#718787"/>
<path d="M1.24757 31.0261C0.942527 32.6542 1.30282 34.1817 2.34045 34.8579C2.58544 35.0185 2.99857 35.2223 3.59185 35.2703C3.56783 35.0257 3.88008 33.5678 2.89289 32.2682C2.31402 31.4937 1.57663 31.1508 1.24757 31.0285V31.0261Z" fill="#718787"/>
<path d="M4.64876 32.8891C3.55588 33.7547 3.61353 35.119 3.67838 35.2413C4.02906 35.2413 4.4518 35.191 4.88895 35.0303C6.59431 34.4165 7.25724 32.8195 7.34852 32.551C7.27646 32.5342 5.84251 31.9611 4.65116 32.8915L4.64876 32.8891Z" fill="#718787"/>
<path d="M2.17941 27.6642C1.73745 29.2036 1.91039 30.6974 2.88557 31.4504C3.10655 31.6278 3.48365 31.8628 4.05291 31.9611C4.09134 31.8556 4.12256 31.4288 4.15139 30.8941C4.161 30.3545 4.06011 29.6784 3.64939 29.0046C3.1642 28.2085 2.48685 27.8129 2.17941 27.6642V27.6642Z" fill="#718787"/>
<path d="M5.28018 29.7599C4.71332 30.1244 4.41068 30.6423 4.24975 31.0763C4.09603 31.5127 4.13926 31.8772 4.13446 31.9371C4.47313 31.9707 4.88386 31.9611 5.32341 31.8436C6.99035 31.4 7.81421 29.9254 7.91749 29.6736C7.84783 29.652 6.51957 28.971 5.28018 29.7575V29.7599Z" fill="#718787"/>
<path d="M3.32986 24.6333C2.74139 26.0648 2.80624 27.5203 3.69015 28.3332C3.8847 28.5226 4.22818 28.7815 4.76621 28.9254C4.79983 28.8223 4.91753 28.4315 4.93194 27.8991C4.98959 27.3788 4.95836 26.7242 4.62449 26.0432C4.23058 25.2376 3.61329 24.8035 3.32986 24.6333V24.6333Z" fill="#718787"/>
<path d="M6.13061 26.9065C5.55655 27.2087 5.18905 27.6738 5.02812 28.0887C4.8744 28.5059 4.85519 28.8536 4.85278 28.9111C5.17704 28.9711 5.57336 28.9974 6.00811 28.9255C6.41884 28.856 6.77192 28.7121 7.07456 28.5371C7.40122 28.3692 7.67985 28.1654 7.90563 27.964C8.35959 27.5635 8.619 27.1631 8.68865 27.048C8.6238 27.0216 7.40363 26.2567 6.13061 26.9065V26.9065Z" fill="#718787"/>
<path d="M4.62694 21.931C4.28347 22.588 4.08171 23.2666 4.08651 23.89C4.12254 24.5278 4.3219 25.0937 4.68939 25.5133C4.85993 25.71 5.16738 25.9857 5.67418 26.168C5.77506 25.9761 6.22662 24.7053 5.75344 23.3793C5.446 22.5784 4.88635 22.1132 4.62934 21.9286L4.62694 21.931Z" fill="#718787"/>
<path d="M7.12732 24.3289C6.83428 24.4488 6.58689 24.6143 6.39713 24.7989C6.22419 24.9907 6.09449 25.1969 6.00082 25.3912C5.81106 25.7796 5.76062 26.1081 5.75342 26.1656C6.06086 26.2496 6.44277 26.3071 6.87031 26.2736C7.68937 26.2112 8.27063 25.8324 8.74621 25.4847C9.2242 25.137 9.51243 24.7725 9.59169 24.6694C9.53164 24.6382 8.41955 23.8086 7.12732 24.3289V24.3289Z" fill="#718787"/>
<path d="M6.11853 19.3461C5.28266 20.5186 5.28987 21.9477 5.90476 22.7941C6.05128 22.9956 6.3227 23.2857 6.79588 23.5015C6.91117 23.3265 7.47562 22.1539 7.0793 20.8207C6.85352 20.0318 6.35392 19.5451 6.11853 19.3485V19.3461Z" fill="#718787"/>
<path d="M8.32601 21.8352C7.1923 22.2356 6.90167 23.4034 6.87524 23.5017C7.16347 23.6072 7.52857 23.6935 7.9441 23.6959C8.72953 23.6959 9.36123 23.401 9.81039 23.0821C10.2547 22.7607 10.603 22.4562 10.6799 22.3579C10.6246 22.3219 9.62304 21.4443 8.32601 21.8352V21.8352Z" fill="#718787"/>
<path d="M7.99922 21.2165C8.52525 21.485 9.32028 20.8808 9.44038 20.7897C9.98321 20.3844 10.2498 19.8089 10.4108 19.2838C10.6005 18.7803 10.6558 18.3103 10.675 18.1041C9.99522 18.0393 9.3443 18.1305 8.81828 18.3583C8.32108 18.6076 7.93918 18.9865 7.75183 19.4517C7.50923 20.0511 7.51644 20.9695 7.99922 21.2165Z" fill="#718787"/>
<path d="M13.1993 14.4329C13.1489 14.4329 13.1009 14.4161 13.0576 14.3826C12.9639 14.3034 12.9519 14.1668 13.0312 14.0733C13.4563 13.5649 13.9511 13.1213 14.4267 12.6921L14.6981 12.4475C14.9071 12.2653 15.1065 12.0807 15.3058 11.896C15.6661 11.5627 16.0384 11.2174 16.4443 10.9153C16.6965 10.7307 16.9463 10.5412 17.1937 10.3542C18.1617 9.62528 19.1609 8.87236 20.2514 8.2729L21.229 7.68064C21.5748 7.45764 21.9159 7.27061 22.2642 7.11715L24.3346 6.12205C24.7814 5.88466 25.2666 5.71682 25.7374 5.55376C25.992 5.46504 26.2442 5.37632 26.494 5.27801C26.739 5.19409 26.9696 5.10777 27.2001 5.02145C27.6853 4.83681 28.1873 4.64738 28.7158 4.53708C34.9079 2.80585 41.249 2.68356 47.04 4.1894C47.1577 4.22057 47.2274 4.34046 47.1962 4.45796C47.1649 4.57545 47.0496 4.64259 46.9271 4.61381C41.213 3.12476 34.9511 3.24705 28.819 4.9639C28.3122 5.0694 27.8246 5.25404 27.3563 5.43147C27.1209 5.52019 26.8855 5.60891 26.6477 5.69044C26.4051 5.78875 26.1433 5.87987 25.8839 5.96859C25.4299 6.12685 24.9591 6.2899 24.534 6.51529L22.4491 7.51759C22.1153 7.66625 21.7934 7.84129 21.4619 8.0547L20.4724 8.65656C19.4035 9.24642 18.4163 9.98975 17.4603 10.7091C17.2105 10.8985 16.9607 11.0856 16.7085 11.2726C16.3242 11.5603 15.9591 11.896 15.6085 12.2221C15.4043 12.4116 15.2025 12.5986 14.9936 12.7808L14.7246 13.0254C14.2586 13.445 13.7758 13.879 13.3699 14.3634C13.3266 14.4161 13.2642 14.4425 13.2017 14.4425L13.1993 14.4329Z" fill="#718787"/>
<path d="M17.2226 6.30676C16.3987 6.8199 15.7718 7.52486 15.3659 8.22263C14.9648 8.93478 14.7918 9.65413 14.9576 10.3783C15.0272 10.7092 15.2026 11.2127 15.6589 11.7307C15.8415 11.5125 17.2682 10.5461 17.5348 8.66862C17.691 7.54404 17.3859 6.66883 17.225 6.30676H17.2226Z" fill="#718787"/>
<path d="M18.4596 10.6182C17.6646 10.5271 16.992 10.7836 16.5165 11.069C16.0289 11.3447 15.8031 11.7284 15.7502 11.7763C16.0409 12.0617 16.4324 12.3614 16.9272 12.5844C18.8271 13.4476 20.6502 12.6995 20.936 12.5484C20.888 12.4765 20.189 10.8244 18.4596 10.6182V10.6182Z" fill="#718787"/>
<path d="M20.518 4.45809C18.8391 5.3309 17.7823 6.80316 17.9312 8.16753C17.9672 8.49603 18.0873 8.99958 18.4764 9.54628C18.671 9.34966 20.165 8.57516 20.5901 6.7672C20.8471 5.69057 20.6405 4.82735 20.518 4.45569V4.45809Z" fill="#718787"/>
<path d="M21.3034 8.74557C19.7758 8.42666 18.6228 9.45772 18.5652 9.5992C18.8198 9.90372 19.1681 10.2322 19.622 10.4936C21.3898 11.5366 23.2177 10.9612 23.5131 10.8485C23.4723 10.7741 22.9559 9.10764 21.3034 8.74557Z" fill="#718787"/>
<path d="M23.7485 3.02901C22.0599 3.74596 20.8926 5.04079 20.9166 6.38837C20.9214 6.70968 20.9911 7.20843 21.3177 7.77192C21.5243 7.60167 23.0375 6.98063 23.6164 5.28057C23.9671 4.27588 23.8302 3.39108 23.7485 3.02661V3.02901Z" fill="#718787"/>
<path d="M24.1231 7.25623C22.67 6.80304 21.4642 7.69983 21.3945 7.83171C21.6107 8.14823 21.9181 8.49831 22.3361 8.79564C23.9478 9.95859 25.778 9.57733 26.0735 9.49341C26.0423 9.41668 25.6916 7.76218 24.1231 7.25623V7.25623Z" fill="#718787"/>
<path d="M27.0897 1.91394C25.4036 2.46784 24.1474 3.58283 24.0537 4.90643C24.0273 5.21575 24.0489 5.70491 24.3107 6.28039C24.5269 6.13652 26.0425 5.66654 26.7607 4.08637C27.1906 3.14882 27.1402 2.288 27.0873 1.91394H27.0897Z" fill="#718787"/>
<path d="M27.073 6.03831C26.3956 5.75057 25.7375 5.79853 25.2427 5.92561C24.7407 6.03352 24.4429 6.31646 24.3828 6.34284C24.563 6.66894 24.8272 7.03581 25.2019 7.36191C26.6454 8.62317 28.4637 8.43614 28.7567 8.38099C28.7327 8.30426 28.5429 6.67374 27.0706 6.03831H27.073Z" fill="#718787"/>
<path d="M30.5149 1.12524C28.8384 1.5041 27.5221 2.44165 27.3156 3.72929C27.2627 4.02662 27.2363 4.49899 27.4357 5.07927C27.5558 5.06008 27.9689 4.87305 28.4877 4.62608C28.9993 4.35752 29.5806 3.91392 30.0033 3.18738C30.5053 2.32416 30.5317 1.48971 30.5149 1.12524V1.12524Z" fill="#718787"/>
<path d="M30.1257 5.1007C29.4964 4.7602 28.8551 4.74342 28.3651 4.81535C27.8751 4.88969 27.5581 5.12228 27.498 5.14625C27.6422 5.47955 27.8631 5.85841 28.1946 6.2061C29.4676 7.53929 31.2547 7.54648 31.5405 7.51771C31.5261 7.44338 31.49 5.85122 30.1209 5.0983L30.1257 5.1007Z" fill="#718787"/>
<path d="M33.9879 0.657471C33.1665 0.748588 32.4123 1.00516 31.831 1.37922C31.5404 1.56625 31.2906 1.78205 31.0912 2.02423C30.8967 2.2856 30.7549 2.57094 30.6709 2.87067C30.5916 3.15121 30.522 3.6044 30.6613 4.18468C30.7766 4.17269 31.1969 4.0456 31.7157 3.83459C32.2345 3.62598 32.835 3.25432 33.3082 2.59492C33.8702 1.81322 33.9711 1.00995 33.9879 0.657471V0.657471Z" fill="#718787"/>
<path d="M33.2529 4.4508C32.6765 4.06235 32.0592 3.98322 31.5788 4.0072C31.1032 4.05995 30.7718 4.2326 30.7141 4.25897C30.8222 4.59227 30.9999 4.97832 31.2882 5.34759C32.3858 6.72634 34.1224 6.92536 34.4035 6.91816C34.3963 6.84383 34.5043 5.30682 33.2505 4.4508H33.2529Z" fill="#718787"/>
<path d="M37.4732 0.51123C35.8712 0.537607 34.5045 1.17063 34.0865 2.34077C33.9857 2.60214 33.8776 3.03375 33.9568 3.60443C34.0697 3.59484 34.4901 3.54449 35.0041 3.35026C35.5229 3.1992 36.1354 2.90187 36.6494 2.312C37.2595 1.61423 37.4276 0.849324 37.4732 0.51123V0.51123Z" fill="#718787"/>
<path d="M36.4308 4.0913C35.9096 3.66449 35.3211 3.51343 34.8575 3.51343C34.3964 3.53501 34.0601 3.6597 34.0024 3.68128C34.0745 4.01457 34.2114 4.40302 34.4564 4.78428C34.6894 5.14875 34.9656 5.4173 35.2562 5.6451C35.5493 5.88728 35.8543 6.06951 36.1353 6.20379C36.7022 6.47475 37.185 6.55627 37.3219 6.57785C37.3219 6.50592 37.5621 5.03605 36.4284 4.0913H36.4308Z" fill="#718787"/>
<path d="M40.711 0.664655C39.9448 0.597515 39.2122 0.691031 38.6165 0.926018C38.0185 1.20656 37.5573 1.63338 37.3027 2.14891C37.1826 2.39109 37.0409 2.79393 37.0697 3.35022C37.2931 3.35502 38.6886 3.29987 39.7695 2.31676C40.4132 1.70291 40.6366 0.983566 40.7086 0.662257L40.711 0.664655Z" fill="#718787"/>
<path d="M39.4116 4.0097C38.4724 3.02659 37.2138 3.41984 37.1057 3.42703C37.1465 3.75314 37.245 4.14158 37.4492 4.53243C37.8359 5.29254 38.4292 5.6714 38.9528 6.01429C39.4764 6.3308 39.9376 6.45789 40.0673 6.49146C40.0745 6.42192 40.4228 5.03118 39.4116 4.0097V4.0097Z" fill="#718787"/>
<path d="M43.6822 1.04363C42.2218 0.710336 40.8527 1.2978 40.2906 2.22097C40.1561 2.44157 39.988 2.81563 39.9712 3.35514C40.185 3.3959 41.5348 3.46065 42.6541 2.54707C43.3195 2.01715 43.5885 1.34576 43.6822 1.04363V1.04363Z" fill="#718787"/>
<path d="M42.181 4.14398C41.3427 3.22801 40.1081 3.41744 40.0024 3.43183C40.0169 3.75074 40.0793 4.13199 40.245 4.52763C40.5597 5.27816 41.0953 5.76012 41.5805 6.05985C42.0657 6.35238 42.4956 6.56819 42.6205 6.59936C42.6325 6.53462 43.0745 5.2254 42.181 4.14158V4.14398Z" fill="#718787"/>
<path d="M46.6149 1.64307C45.2266 1.2786 43.8767 1.68383 43.2618 2.52307C43.1153 2.72449 42.9255 3.06738 42.8655 3.58291C43.0696 3.62607 44.3499 3.87545 45.5076 3.02662C46.1969 2.52067 46.4972 1.9404 46.6149 1.64307V1.64307Z" fill="#718787"/>
<path d="M44.924 4.54446C44.189 3.59971 42.9929 3.65007 42.8896 3.65726C42.8776 3.96418 42.9088 4.33824 43.0361 4.73628C43.5213 6.24931 44.936 6.78403 45.1666 6.89673C45.1786 6.86556 45.3083 6.54425 45.3467 6.09106C45.3852 5.63067 45.3251 5.05759 44.924 4.54206V4.54446Z" fill="#718787"/>
<path d="M45.4163 4.0144C45.3299 4.5659 46.1441 5.16536 46.269 5.25168C47.3571 6.06694 48.8126 5.61375 49.2138 5.58019C48.9327 4.21822 48.0128 3.34541 47.0184 3.23751C46.3747 3.17756 45.5076 3.45571 45.4163 4.01201V4.0144Z" fill="#718787"/>
<path d="M73.4803 36.059C73.365 36.059 73.2665 35.9679 73.2617 35.8528L73.1993 34.7043L72.6804 31.3113L71.8254 27.9879L70.6436 24.7653L69.4715 22.3411C69.3658 22.1205 69.2601 21.8999 69.1472 21.6841L68.5539 20.7129C68.4146 20.4875 68.2777 20.2573 68.1384 20.0296C67.8814 19.6027 67.6244 19.1759 67.3482 18.7611C63.702 13.5554 58.9438 9.4863 53.5972 6.99735C53.4867 6.94699 53.4386 6.81511 53.4915 6.70721C53.5419 6.59931 53.674 6.55135 53.7821 6.60171C59.2008 9.12422 64.0191 13.2437 67.7133 18.5165C67.9943 18.9409 68.2561 19.3749 68.5155 19.8066C68.6524 20.0343 68.7893 20.2621 68.9286 20.4875L69.5291 21.473C69.6516 21.7056 69.7597 21.931 69.8678 22.1564L71.0471 24.5998L72.2433 27.8609L73.1104 31.225L73.6364 34.6611L73.7037 35.8312C73.7085 35.9511 73.6172 36.0566 73.4971 36.0614H73.4851L73.4803 36.059Z" fill="#718787"/>
<path d="M62.4601 8.19142C61.7059 7.57997 60.8724 7.16035 60.0846 6.98291C59.2872 6.81507 58.4945 6.95174 57.8796 7.29703C57.5866 7.46248 57.1639 7.77899 56.8108 8.37126C56.9213 8.44799 57.344 8.72853 57.9709 8.93475C58.6026 9.13377 59.3688 9.36875 60.308 9.2081C61.4105 9.03306 62.1575 8.46477 62.4625 8.19142H62.4601Z" fill="#718787"/>
<path d="M58.7396 10.6805C58.4658 9.03798 56.9189 8.52484 56.7964 8.47449C56.6139 8.83896 56.4482 9.30653 56.3833 9.84844C56.1911 11.8506 57.4233 13.4116 57.6467 13.6466C57.6996 13.5795 59.0542 12.4141 58.7396 10.6805V10.6805Z" fill="#718787"/>
<path d="M65.2368 10.7476C64.5643 10.0882 63.8005 9.60627 63.0559 9.36169C62.3185 9.10513 61.5259 9.17706 60.899 9.44802C60.5987 9.5799 60.1592 9.84366 59.7581 10.3832C59.8589 10.4671 60.2408 10.7788 60.8293 11.0378C61.4058 11.3135 62.1384 11.5941 63.0583 11.5317C64.144 11.467 64.9198 10.985 65.2392 10.75L65.2368 10.7476Z" fill="#718787"/>
<path d="M61.3961 12.8049C61.3169 12.0352 60.9782 11.3974 60.5699 11.0521C60.1735 10.6876 59.7964 10.5078 59.7316 10.479C59.5202 10.8147 59.3113 11.2487 59.1984 11.7666C58.8189 13.6801 59.8541 15.3298 60.0583 15.5696C60.1159 15.5097 61.5402 14.5098 61.3985 12.8049H61.3961Z" fill="#718787"/>
<path d="M67.5837 13.378C66.9952 12.6803 66.3034 12.1455 65.6069 11.841C64.9103 11.5341 64.1441 11.5269 63.5124 11.7307C63.2122 11.8314 62.7606 12.0472 62.321 12.5316C62.4099 12.6227 62.751 12.9584 63.2938 13.2629C63.8343 13.5723 64.5092 13.9199 65.4075 13.9391C66.462 13.9727 67.2546 13.5771 67.5861 13.378H67.5837Z" fill="#718787"/>
<path d="M63.6876 15.0252C63.7261 13.4523 62.3978 12.6873 62.2873 12.625C62.0495 12.9295 61.8093 13.33 61.6532 13.8215C61.1104 15.6391 61.9727 17.3295 62.1432 17.5837C62.2056 17.531 63.6684 16.6917 63.6876 15.0252V15.0252Z" fill="#718787"/>
<path d="M69.673 16.2028C69.171 15.4762 68.5514 14.896 67.9076 14.5387C67.2567 14.1862 66.5217 14.1047 65.89 14.2462C65.5898 14.3157 65.1334 14.4835 64.665 14.9104C64.7419 15.0063 65.0397 15.3635 65.5369 15.7064C66.0389 16.0469 66.6514 16.4498 67.5185 16.5481C68.5321 16.6752 69.332 16.3634 69.6706 16.198L69.673 16.2028Z" fill="#718787"/>
<path d="M65.7629 17.4471C65.9454 15.9269 64.7228 15.0756 64.6267 14.9989C64.3697 15.2723 64.1007 15.6367 63.9038 16.0971C63.212 17.8068 63.9038 19.5164 64.0383 19.7826C64.1031 19.737 65.5923 19.056 65.7629 17.4447V17.4471Z" fill="#718787"/>
<path d="M71.4889 19.1999C71.0734 18.4542 70.5306 17.838 69.9421 17.4351C69.3344 17.0443 68.6427 16.8932 68.0182 16.9748C67.7227 17.0131 67.2664 17.133 66.7764 17.5047C66.8436 17.6054 67.0982 17.9771 67.545 18.3559C68.0086 18.7252 68.5562 19.1736 69.3825 19.3462C70.348 19.562 71.1479 19.3294 71.4889 19.2023V19.1999Z" fill="#718787"/>
<path d="M67.6076 20.0512C67.9246 18.5981 66.8125 17.6701 66.7309 17.5862C66.457 17.826 66.164 18.1545 65.931 18.5813C65.1047 20.171 65.626 21.8855 65.7292 22.1588C65.7965 22.1205 67.2929 21.5954 67.6076 20.0512V20.0512Z" fill="#718787"/>
<path d="M73.0189 22.3434C72.6875 21.5857 72.2239 20.9455 71.6955 20.5019C71.1334 20.0775 70.4921 19.8641 69.8772 19.8856C69.589 19.8976 69.1374 19.9696 68.6306 20.2813C68.7411 20.4947 69.4953 21.7751 70.9797 22.2931C71.8876 22.588 72.6803 22.4345 73.0213 22.341L73.0189 22.3434Z" fill="#718787"/>
<path d="M69.2023 22.8158C69.6466 21.4395 68.6426 20.4515 68.5802 20.358C68.2943 20.5642 67.9821 20.8544 67.7179 21.2452C66.7715 22.7031 67.1318 24.4056 67.1991 24.6837C67.2663 24.6525 68.7579 24.2809 69.2023 22.8158Z" fill="#718787"/>
<path d="M74.2488 25.607C74.0014 24.8469 73.6171 24.1875 73.1487 23.7151C72.6299 23.2619 72.0438 22.9934 71.4481 22.9598C71.1695 22.943 70.7276 22.9742 70.2087 23.226C70.288 23.4442 70.9125 24.7438 72.2888 25.3744C73.1343 25.7413 73.9125 25.6646 74.2464 25.6046L74.2488 25.607Z" fill="#718787"/>
<path d="M70.5331 25.7197C70.6604 25.4056 70.7132 25.0963 70.7204 24.811C70.7108 24.5304 70.6412 24.281 70.5643 24.0628C70.4082 23.6288 70.192 23.3435 70.1536 23.2955C69.8605 23.4682 69.5291 23.7176 69.2384 24.0724C68.674 24.7486 68.5395 25.468 68.4362 26.0962C68.3449 26.7196 68.4098 27.2064 68.429 27.3431C68.4986 27.3215 69.9662 27.0937 70.5331 25.7197V25.7197Z" fill="#718787"/>
<path d="M75.1111 28.7314C74.9309 27.9833 74.6739 27.2999 74.2007 26.8252C73.7468 26.3456 73.2087 26.0339 72.6395 25.9499C72.3729 25.9092 71.9477 25.8996 71.4265 26.0986C71.4577 26.2017 71.5826 26.5926 71.8733 27.0362C72.0174 27.2568 72.2047 27.4942 72.4449 27.7171C72.6707 27.9449 72.9253 28.1655 73.2568 28.343C74.035 28.7674 74.7868 28.7602 75.1135 28.729L75.1111 28.7314Z" fill="#718787"/>
<path d="M71.5321 28.5251C72.1326 27.3454 71.4048 26.2568 71.3616 26.1609C71.0637 26.3024 70.7227 26.5134 70.4104 26.8299C69.8195 27.4293 69.5746 28.1295 69.4833 28.7074C69.3368 29.302 69.3512 29.7816 69.3584 29.9159C69.4256 29.9015 70.8572 29.8056 71.5297 28.5251H71.5321Z" fill="#718787"/>
<path d="M75.666 31.6735C75.6179 31.3066 75.5555 30.9517 75.421 30.6328C75.2793 30.3163 75.1087 30.0286 74.9118 29.7792C74.5203 29.2804 74.0375 28.9351 73.4995 28.8105C73.2472 28.7505 72.8413 28.7074 72.3225 28.856C72.3609 29.0694 72.6564 30.3834 73.9222 31.1555C74.6259 31.6255 75.3489 31.6759 75.6636 31.6711L75.666 31.6735Z" fill="#718787"/>
<path d="M72.2383 31.1986C72.8436 30.1244 72.308 29.0022 72.2575 28.9087C71.9573 29.0214 71.6138 29.1988 71.2848 29.4794C70.031 30.5464 70.1126 32.0954 70.043 32.3712C70.1006 32.364 71.5105 32.3784 72.2359 31.201L72.2383 31.1986Z" fill="#718787"/>
<path d="M75.9997 34.642C75.87 33.2177 75.1254 32.0499 74.1286 31.7262C73.8932 31.6495 73.5089 31.5728 72.9973 31.6759C73.0165 31.8845 73.1606 33.1769 74.3184 34.0185C75.0077 34.5197 75.7019 34.6204 75.9997 34.642Z" fill="#718787"/>
<path d="M72.6922 33.9274C73.3744 32.9371 72.9709 31.8149 72.9324 31.719C72.6346 31.8029 72.2887 31.9468 71.9453 32.189C70.6506 33.1169 70.5401 34.6276 70.5305 34.8793C70.5954 34.8769 71.9404 34.9968 72.6922 33.9274Z" fill="#718787"/>
<path d="M73.3482 34.2344C73.0576 34.2775 72.8558 34.5413 72.7237 34.805C72.5676 35.0736 72.4739 35.3469 72.4499 35.4213C72.0128 36.7065 72.8198 37.9534 73.0552 38.3227C74.1889 37.6345 74.811 36.4931 74.5972 35.5148C74.5252 35.2031 74.3714 34.8578 74.1433 34.606C73.9007 34.3542 73.6172 34.196 73.3506 34.2344H73.3482Z" fill="#718787"/>
<path d="M37.5596 22.9298L35.3555 20.7257L36.1324 19.9487L37.5596 21.3704L41.1909 17.7391L41.9679 18.5215M38.6617 14.1133L33.7024 16.3174V19.6236C33.7024 22.6818 35.8184 25.5417 38.6617 26.236C41.505 25.5417 43.621 22.6818 43.621 19.6236V16.3174L38.6617 14.1133Z" fill="#718787"/>
<path d="M20.0439 52.6181C20.0439 52.1807 20.1385 51.7917 20.3278 51.451C20.517 51.1061 20.7799 50.8391 21.1163 50.6498C21.457 50.4563 21.8418 50.3596 22.2708 50.3596C22.7965 50.3596 23.2466 50.4984 23.6209 50.776C23.9952 51.0536 24.2454 51.4321 24.3716 51.9115H23.1856C23.0973 51.7265 22.9711 51.5856 22.8071 51.4889C22.6472 51.3921 22.4643 51.3438 22.2582 51.3438C21.926 51.3438 21.6568 51.4594 21.4507 51.6907C21.2446 51.9221 21.1416 52.2312 21.1416 52.6181C21.1416 53.005 21.2446 53.3142 21.4507 53.5455C21.6568 53.7768 21.926 53.8924 22.2582 53.8924C22.4643 53.8924 22.6472 53.8441 22.8071 53.7474C22.9711 53.6506 23.0973 53.5097 23.1856 53.3247H24.3716C24.2454 53.8041 23.9952 54.1826 23.6209 54.4602C23.2466 54.7336 22.7965 54.8703 22.2708 54.8703C21.8418 54.8703 21.457 54.7757 21.1163 54.5864C20.7799 54.3929 20.517 54.1259 20.3278 53.7852C20.1385 53.4445 20.0439 53.0555 20.0439 52.6181ZM28.3506 53.0219C28.3506 53.1228 28.3443 53.2279 28.3316 53.3373H25.8902C25.907 53.556 25.9764 53.7242 26.0984 53.842C26.2246 53.9555 26.3781 54.0123 26.5589 54.0123C26.8281 54.0123 27.0152 53.8988 27.1204 53.6716H28.2686C28.2097 53.903 28.1024 54.1111 27.9468 54.2962C27.7954 54.4813 27.6041 54.6264 27.3727 54.7315C27.1414 54.8366 26.8828 54.8892 26.5968 54.8892C26.2519 54.8892 25.9449 54.8156 25.6757 54.6684C25.4065 54.5212 25.1963 54.3109 25.0449 54.0375C24.8934 53.7642 24.8177 53.4445 24.8177 53.0786C24.8177 52.7127 24.8913 52.3931 25.0385 52.1197C25.1899 51.8463 25.4002 51.6361 25.6694 51.4889C25.9386 51.3417 26.2477 51.2681 26.5968 51.2681C26.9374 51.2681 27.2403 51.3396 27.5052 51.4826C27.7702 51.6255 27.9763 51.8295 28.1235 52.0945C28.2749 52.3595 28.3506 52.6686 28.3506 53.0219ZM27.2466 52.738C27.2466 52.5529 27.1835 52.4057 27.0573 52.2964C26.9311 52.187 26.7734 52.1323 26.5842 52.1323C26.4033 52.1323 26.2498 52.1849 26.1236 52.2901C26.0017 52.3952 25.926 52.5445 25.8965 52.738H27.2466ZM29.9985 51.9052C30.1246 51.7118 30.2823 51.5604 30.4716 51.451C30.6609 51.3375 30.8712 51.2807 31.1025 51.2807V52.4225H30.806C30.5368 52.4225 30.3349 52.4814 30.2003 52.5992C30.0658 52.7127 29.9985 52.9146 29.9985 53.2048V54.8387H28.9197V51.3185H29.9985V51.9052ZM33.5801 53.924V54.8387H33.0312C32.6401 54.8387 32.3352 54.7441 32.1165 54.5549C31.8978 54.3614 31.7884 54.0481 31.7884 53.6149V52.2144H31.3594V51.3185H31.7884V50.4606H32.8672V51.3185H33.5738V52.2144H32.8672V53.6275C32.8672 53.7326 32.8924 53.8083 32.9429 53.8546C32.9934 53.9009 33.0775 53.924 33.1953 53.924H33.5801ZM34.7235 50.9526C34.5343 50.9526 34.3787 50.898 34.2567 50.7886C34.1389 50.675 34.08 50.5363 34.08 50.3722C34.08 50.204 34.1389 50.0652 34.2567 49.9559C34.3787 49.8423 34.5343 49.7855 34.7235 49.7855C34.9086 49.7855 35.06 49.8423 35.1777 49.9559C35.2997 50.0652 35.3607 50.204 35.3607 50.3722C35.3607 50.5363 35.2997 50.675 35.1777 50.7886C35.06 50.898 34.9086 50.9526 34.7235 50.9526ZM35.2598 51.3185V54.8387H34.181V51.3185H35.2598ZM38.1928 54.8387L37.1203 53.3625V54.8387H36.0415V50.1704H37.1203V52.7506L38.1865 51.3185H39.5176L38.054 53.0849L39.5302 54.8387H38.1928ZM44.0351 54.0565H42.3822L42.1172 54.8387H40.988L42.5904 50.4101H43.8395L45.4419 54.8387H44.3L44.0351 54.0565ZM43.7575 53.2237L43.2086 51.6024L42.6661 53.2237H43.7575ZM49.4056 51.3185V54.8387H48.3269V54.3593C48.2175 54.5149 48.0682 54.6411 47.879 54.7378C47.6939 54.8303 47.4878 54.8766 47.2607 54.8766C46.9915 54.8766 46.7539 54.8177 46.5478 54.7C46.3417 54.578 46.1819 54.4034 46.0684 54.1763C45.9548 53.9492 45.898 53.6822 45.898 53.3751V51.3185H46.9705V53.23C46.9705 53.4656 47.0315 53.6485 47.1535 53.7789C47.2754 53.9093 47.4395 53.9745 47.6455 53.9745C47.8558 53.9745 48.0219 53.9093 48.1439 53.7789C48.2659 53.6485 48.3269 53.4656 48.3269 53.23V51.3185H49.4056ZM49.966 53.0723C49.966 52.7106 50.0333 52.3931 50.1679 52.1197C50.3067 51.8463 50.4938 51.6361 50.7294 51.4889C50.9649 51.3417 51.2278 51.2681 51.518 51.2681C51.7493 51.2681 51.9596 51.3164 52.1488 51.4132C52.3423 51.5099 52.4937 51.6403 52.603 51.8043V50.1704H53.6818V54.8387H52.603V54.3341C52.5021 54.5023 52.357 54.6369 52.1677 54.7378C51.9827 54.8387 51.7661 54.8892 51.518 54.8892C51.2278 54.8892 50.9649 54.8156 50.7294 54.6684C50.4938 54.517 50.3067 54.3046 50.1679 54.0312C50.0333 53.7537 49.966 53.434 49.966 53.0723ZM52.603 53.0786C52.603 52.8095 52.5273 52.5971 52.3759 52.4415C52.2287 52.2859 52.0479 52.208 51.8334 52.208C51.6189 52.208 51.4359 52.2859 51.2845 52.4415C51.1373 52.5929 51.0637 52.8032 51.0637 53.0723C51.0637 53.3415 51.1373 53.556 51.2845 53.7158C51.4359 53.8714 51.6189 53.9492 51.8334 53.9492C52.0479 53.9492 52.2287 53.8714 52.3759 53.7158C52.5273 53.5602 52.603 53.3478 52.603 53.0786ZM55.0048 50.9526C54.8155 50.9526 54.6599 50.898 54.538 50.7886C54.4202 50.675 54.3613 50.5363 54.3613 50.3722C54.3613 50.204 54.4202 50.0652 54.538 49.9559C54.6599 49.8423 54.8155 49.7855 55.0048 49.7855C55.1899 49.7855 55.3413 49.8423 55.459 49.9559C55.581 50.0652 55.642 50.204 55.642 50.3722C55.642 50.5363 55.581 50.675 55.459 50.7886C55.3413 50.898 55.1899 50.9526 55.0048 50.9526ZM55.541 51.3185V54.8387H54.4623V51.3185H55.541ZM58.2848 53.924V54.8387H57.7359C57.3448 54.8387 57.0399 54.7441 56.8212 54.5549C56.6025 54.3614 56.4931 54.0481 56.4931 53.6149V52.2144H56.0642V51.3185H56.4931V50.4606H57.5719V51.3185H58.2785V52.2144H57.5719V53.6275C57.5719 53.7326 57.5972 53.8083 57.6476 53.8546C57.6981 53.9009 57.7822 53.924 57.9 53.924H58.2848Z" fill="#718787"/>
</g>
<path d="M19.2468 36.1307V33.4309H23.9504V45.8265H20.9279V36.1307H19.2468Z" fill="#718787"/>
<path d="M25.3424 39.4589C25.3424 37.5118 25.7159 35.9779 26.4631 34.8572C27.2215 33.7365 28.4385 33.1761 30.1139 33.1761C31.7892 33.1761 33.0005 33.7365 33.7476 34.8572C34.5061 35.9779 34.8853 37.5118 34.8853 39.4589C34.8853 41.4286 34.5061 42.9738 33.7476 44.0945C33.0005 45.2152 31.7892 45.7756 30.1139 45.7756C28.4385 45.7756 27.2215 45.2152 26.4631 44.0945C25.7159 42.9738 25.3424 41.4286 25.3424 39.4589ZM32.0326 39.4589C32.0326 38.3155 31.9081 37.4382 31.6591 36.8269C31.41 36.2043 30.8949 35.893 30.1139 35.893C29.3328 35.893 28.8177 36.2043 28.5686 36.8269C28.3196 37.4382 28.1951 38.3155 28.1951 39.4589C28.1951 40.2287 28.2404 40.8682 28.3309 41.3777C28.4215 41.8757 28.6026 42.2833 28.8743 42.6002C29.1573 42.9059 29.5705 43.0587 30.1139 43.0587C30.6572 43.0587 31.0648 42.9059 31.3364 42.6002C31.6194 42.2833 31.8062 41.8757 31.8968 41.3777C31.9874 40.8682 32.0326 40.2287 32.0326 39.4589Z" fill="#718787"/>
<path d="M35.8251 39.4589C35.8251 37.5118 36.1987 35.9779 36.9458 34.8572C37.7042 33.7365 38.9212 33.1761 40.5966 33.1761C42.272 33.1761 43.4832 33.7365 44.2304 34.8572C44.9888 35.9779 45.368 37.5118 45.368 39.4589C45.368 41.4286 44.9888 42.9738 44.2304 44.0945C43.4832 45.2152 42.272 45.7756 40.5966 45.7756C38.9212 45.7756 37.7042 45.2152 36.9458 44.0945C36.1987 42.9738 35.8251 41.4286 35.8251 39.4589ZM42.5153 39.4589C42.5153 38.3155 42.3908 37.4382 42.1418 36.8269C41.8927 36.2043 41.3777 35.893 40.5966 35.893C39.8155 35.893 39.3004 36.2043 39.0514 36.8269C38.8023 37.4382 38.6778 38.3155 38.6778 39.4589C38.6778 40.2287 38.7231 40.8682 38.8136 41.3777C38.9042 41.8757 39.0853 42.2833 39.357 42.6002C39.64 42.9059 40.0532 43.0587 40.5966 43.0587C41.1399 43.0587 41.5475 42.9059 41.8192 42.6002C42.1022 42.2833 42.2889 41.8757 42.3795 41.3777C42.4701 40.8682 42.5153 40.2287 42.5153 39.4589Z" fill="#718787"/>
<path d="M46.0701 36.5552C46.0701 35.6383 46.3304 34.9308 46.8512 34.4327C47.3832 33.9346 48.0681 33.6856 48.9058 33.6856C49.7435 33.6856 50.4227 33.9346 50.9434 34.4327C51.4642 34.9308 51.7245 35.6383 51.7245 36.5552C51.7245 37.4722 51.4642 38.1797 50.9434 38.6778C50.4227 39.1759 49.7435 39.4249 48.9058 39.4249C48.0681 39.4249 47.3832 39.1759 46.8512 38.6778C46.3304 38.1797 46.0701 37.4722 46.0701 36.5552ZM57.5997 33.8723L51.0623 45.8265H48.2605L54.798 33.8723H57.5997ZM48.8888 35.3836C48.3454 35.3836 48.0738 35.7741 48.0738 36.5552C48.0738 37.325 48.3454 37.7099 48.8888 37.7099C49.1492 37.7099 49.3529 37.6137 49.5001 37.4212C49.6473 37.2288 49.7208 36.9401 49.7208 36.5552C49.7208 35.7741 49.4435 35.3836 48.8888 35.3836ZM54.1527 43.1436C54.1527 42.2267 54.4131 41.5192 54.9338 41.0211C55.4546 40.523 56.1338 40.2739 56.9715 40.2739C57.8092 40.2739 58.4884 40.523 59.0091 41.0211C59.5298 41.5192 59.7902 42.2267 59.7902 43.1436C59.7902 44.0606 59.5298 44.7681 59.0091 45.2662C58.4884 45.7642 57.8092 46.0133 56.9715 46.0133C56.1338 46.0133 55.4546 45.7642 54.9338 45.2662C54.4131 44.7681 54.1527 44.0606 54.1527 43.1436ZM56.9545 41.972C56.6941 41.972 56.4903 42.0682 56.3432 42.2606C56.2073 42.4531 56.1394 42.7474 56.1394 43.1436C56.1394 43.9134 56.4111 44.2983 56.9545 44.2983C57.2148 44.2983 57.4186 44.2021 57.5658 44.0096C57.7129 43.8172 57.7865 43.5285 57.7865 43.1436C57.7865 42.7587 57.7129 42.4701 57.5658 42.2776C57.4186 42.0739 57.2148 41.972 56.9545 41.972Z" fill="#718787"/>
<defs>
<clipPath id="clip0_152_430">
<rect width="75.6558" height="76.2246" fill="white" transform="translate(0.344238 0.51123)"/>
</clipPath>
</defs>
</svg>
